<mxfile host="app.diagrams.net" agent="Mozilla/5.0 (Macintosh; Intel Mac OS X 10_15_7) AppleWebKit/537.36 (KHTML, like Gecko) Chrome/132.0.0.0 Safari/537.36" version="26.0.11">
  <diagram name="Page-1" id="loTP32G7AHd_blTVozKu">
    <mxGraphModel grid="1" page="1" gridSize="10" guides="1" tooltips="1" connect="1" arrows="1" fold="1" pageScale="1" pageWidth="3840" pageHeight="2160" background="#FFFFFF" math="0" shadow="0">
      <root>
        <mxCell id="0" />
        <mxCell id="1" parent="0" />
        <mxCell id="1jEyAe4BTQBdPuvEd-_A-253" value="" style="shape=image;verticalLabelPosition=bottom;labelBackgroundColor=default;verticalAlign=top;aspect=fixed;imageAspect=0;image=data:image/jpeg,/9j/4AAQSkZJRgABAQAAAQABAAD/2wCEAAUFBQkGCQkJCQwTDg4MDg4ZEg4SEBcOEBAXEBcXEBQXFBQaFxMTFxoUFxgjGBwZHxoYIRgjGCMiIiQnKCMXJzUBCQkFCQkJDAkJEyEXDhoiHAwYKSIoGiIkIiIZLCIoISIUIyIaHx8aGhwYHCIaJCQjDhkkIRcvGRoXIiEnHxckKv/CABEIBdwF3AMBIgACEQEDEQH/xAA2AAEAAQUBAQEAAAAAAAAAAAAABAECAwUGBwgJAQEBAAMBAQEAAAAAAAAAAAAAAQIDBAUGB//aAAwDAQACEAMQAAAA+ywAAAAAAAAAAAAAAAAAAAAAAAAAAAAAAAAAAAAAAAAAAAAAAAAAAAAAAAAAAAAAAAAAAAAAAAAAAAAAAAAAAAAAAAAAAAAAAAAAAAAAAAAAAAAAAAAAAAAAAAAAAAAAAAAAAAAAAAAAAAAAAAAAAAAAAAAAAAAAAAAAAAAAAAAAAAAAAAAAAAAAAAAAAAAAAAAAAAAAAAAAAAAAAAAAAAAAAAAAAAAAAAAAAAAAAAAAAAAAAAAAAAAAAAAAAAAAAAAAAAAAAAAAAAAAAAAAAAAAAAAAAAAAAAAAAAAAAAAAAAAAAAAAAAAAAAAAAAAAAAAAAAAAAAAAAAAAAAAAAAAAAAAAAAAAAAAAAAAAAAAAAAAAAAAAAAAAAAAAAAAAAAAAAAAAAAAAAAAAAAAAAAAAAAAAAAAAAAAAAAAAAAAAAAAAAAAAAAAAAAAAAAAAAAAAAAAAAAAAAAAAAAAAAAAAAAAAAAAAAAAAAAAAAAAAAAAAAAAAAAAAAAAAAAAAAAAAAAAAAAAAAAAAAAAAAAAAAAAAAAAAAAAAAAAAAAAAAAAAAAAAAAAAAAAAAAAAAAAAAAAAAAAAAAAAAAAAAAGDjzt3g3mp9ccT8g6A+tdX8da8/S3pfz6+8TaAAAAAAAAAAAAAAAAAAAAAAAAAAAAAAAAAAAAAAAAAAAAAAAAAAAAAAAAAAAAAAAAAAAAAAAAAAAAAAAAAAAAAAAIHix6z5J5fojoeY1sQzwZV5qo27jHmHKeuebFv1Z8ebs/W7N+bMw/Q/k/gvpz6e5vwDGemch5Lxsy+zPpP8mvT1/TRz3Q3AAAAAAAAAAAAAAAAAAAAAAAAAAAAAAAAAAAAAAAAAAAAAAAAAAAAAAAAAAAAAAAAAAAAAAAAAAAAAAAABxfJfPR0+j0WvNnAx3FL4ukOijecdEdLk1e4IHIei4DwvWeoeemq2mu2p1m24yWd/wAZtOi0+l6J6vt7+f1/Mvl77v5TPm5H7E/Nr9Jerwqi4AAAAAAAAAAAAAAAAAAAAAAAAAAAAAAAAAAAAAAAAAAAAAAAAAAAAAAAAAAAAAAAAAAAAAAAAAAAAACETPnDTeXmsrsMJih2yDLAu5wwcNi3p2lJthqcO2obuT0vp1eO9P7DcfJ/in3R8JE3e8/2MsH6I+a/q3j+i9PVphvA8I+4/nf6J6/ADZyAAAAAAAAAAAAAAAAAAAAAAAAAAAAAAAAAAAAAAAAAAAAAAAAAAAAAAAAAAAAAAAAAAAAAAAAAAAAKNAZflaDzxdr9hFNPh2lTHhswEHgeo86MHpXmfoRj6Hh8h6j9E/PHc17LXgtjXW0jSUv/AD5++fk+XyXtOH7LHLV/UHzH6zx/S/Tq27HMDW+/fnX9pdfz/oVaV2coAAAAAAAAAAAAAAAAAAAAAAAAAAAAAAAAAAAAAAAAAAAAAAAAAAAAAAAAAAAAAAAAAAAAAAAAAAAjGr+SJvNmPZVyF+kc+SI2sjm810TaHD8B7jqDyvqbsRrzCd36386fQJNkw8NbDec5hOX2PJ+ynyB1vJ9NEXeZY3N7f0L638Repa+v6L884zwDbxab6f8Alzpujx/1aanbIAAAAAAAAAAAAAAAAAAAAAAAAAAAAAAAAAAAAAAAAAAAAAAAAAAAAAAAAAAAAAAAAAAAAAAAAAAA+Uu/8MMW72HPmHFTXmg826Pzo2HSwOqN1C2OvOH0HuvnJj2HnnYHLWdZyRG+ifnn1s9Az20q/o4e3M/Wc5tK+OdB694ri9SrwvVnS5NBNOd4HvOGKyYUo/RH2zyH14AAAAAAAAAAAAAAAAAAAAAAAAAAAAAAAAAAAAAAAAAAAAAAAAAAAAAAAAAAAAAAAAAAAAAAAAAAcv0/yocf0uTVGLRytcZOf3XNnm+rrsza7+2EX/RXnvrFRNZs+er545L6j+U47PkOt5uI3X8t0J7fsYc+p+4yaE6XRcNpDX8T2OqjX7vncx1DJaYuA7CWeOdp796cfRryvuTdgAAAAAAAAAAAAAAAAAAAAAAAAAAAAAAAAAAAAAAAAAAAAAAAAAAAAAAAAAAAAAAAAAAAAAAAGEzRvMPFj1XzeTqCzU11xTDUOe6LWHhPe8F6yTuf7LjT2n0nzX1rJpuY7jmznPmT6j8JjWaC/exrOw1uE9Ay8poyb0GYMN2tMvAbfhzd9xznUm8l8t1RL9C5L2KoOm2vNmvjwNkfQ/d/Gv1vGzAAAAAAAAAAAAAAAAAAAAAAAAAAAAAAAAAAAAAAAAAAAAAAAAAAAAAAAAAAAAAAAAAAAAALS63zbws9o8T5OGbHttLtDFyez8oIXpPzb9EEm/BcX2UHhHo/NRT1jg+o509E+gPlL1+vUdDtYNnN+H995vL51p/XNdGg7PSzjeaLeyjVT8kcw6LbckctfqNodNF12pPSeu0M+vXe/wCa6OtRyG54c2WryZEr7v4f0kv1eIAAAAAAAAAAAAAAAAAAAAAAAAAAAAAAAAAAAAAAAAAAAAAAAAAAAAAAAAAAAAAAAAAAAOW+eT3bwbzXGbKBjoXb/nuiOj0+LXFfKfStSfPnvvnfrJW5aXVsHNeT+3+aE7cea9Oduj5zaTtRriXmi7ItsvxF9dbFM9krsTk6+t2Hi7vYVQvJfZNnHzHmusPVpNJFe/y9T0FnBYIcw1CRaZMtMp9i5KVxoAAAAAAAAAAAAAAAAAAAAAAAAAAAAAAAAAAAAAAAAAAAAAAAAAAAAAAAAAAAAAAAAADyv074WI+LHHJusi4iZm1+En7nmd2bDHiqX1peW0utKWX2ljHUy8v0cU8GleoRjntxtdsaDcQ5BPsjRSXrog3GfXcceudtwPR12UrW9SQLZ/mdb7ke+iR5z87fVfikdZtOI7WvSPU/nb6GSByPoGrrgHWaAj7nV+zHqQxoAAAAAAAAAAAAAAAAAAAAAAAAAAAAAAAAAAAAAAAAAAAAAAAAAAAAAAAAAAAAAAAAAhnE+Jet8zXmHmv0RqT5r1W84OOzw8htD0LYc1ujY3x8xmux3FbVpWltDArhMsbLQyWYrSNyOs9EL66/OW6z1baHzjuOk8+KayJNPe9todzUzteK2VncfMP1Bzx4/wC3c50a+dYpt0fMvqus1Z3HqXj8s+osPnXotmrjbiQc99Aa/fyhAAAAAAAAAAAAAAAAAAAAAAAAAAAAAAAAAAAAAAAAAAAAAAAAAAAAAAAAAAAAAAAAADjOz4ivKb99Fs1eDpIh5n82/Rfnkvlc/l+8jF1nn/Ym9zwsxMRxntxWmVhGSJnjF98e00+trzp0M6Nsjbepc76tWaHLh1rPB/d+Zj5OyXI9t2vkfsFdHJ0PSm92vOb2zJrckY4/V7bwqW+TzcyN/gj+tHMfaO36s1mzAAAAAAAAAAAAAAAAAAAAAAAAAAAAAAAAAAAAAAAAAAAAAAAAAAAAAAAAAAAAAAAAAAAByfWaE8b2eh12U9V869T8pMXmXq3PHyFv6a7GyOh5zfm/zay82ddbkJqHcSbod5Ksx3GKBLyGq5LrdEX+jeaetnc9tFkZSyLKjrqtF0unj5g57t+AiR6fwuE986Pxv02uvx6Lqarm2nIxrOCzUjFN9c+kDyL24AAAAAAAAAAAAAAAAAAAAAAAAAAAAAAAAAAAAAAAAAAAAAAAAAAAAAAAAAAAAAAAAAAAAAGHMPCpPTbKvNI/rPCJreR7byFfEOU6bmYndRq+iIdMGEnXa8bGmuobXNpc5usuqlGemGpjgbTRmDueXhn17F4zoq3WLNbULX7bzaPAYOORGs2MvIRtxE2h083S7QmqWnWfTXF+4gAAAAAAAAAAAAAAAAAAAAAAAAAAAAAAAAAAAAAAAAAAAAAAAAAAAAAAAAAAAAAAAAAAAAAAAGq5L0Lh6i8vA1VV8S9s8LjipXS2xrOb3/ph87dn9Z9dXxPzX274jMvCXrEWbPMcnqfKRo5ejmZadxjj2mw1+WhBkxrTb+n8Jaer7XxSbXe+BbTl4mRdxmNJLsob7f8ABbE7TDyGwOhv10k2P3D8Kdwfbiy8AAAAAAAAAAAAAAAAAAAAAAAAAAAAAAAAAAAAAAAAAAAAAAAAAAAAAAAAAAAAAAAAAAAAAAAW3DkuqvDW7IeVRfXxrNmGPzr0nz6td437L4Cz00tOw3eu9RH9Na/zj5/61+Y8OnTW7aPt4ddfZHJWw02Ut2u7kGmxbjWHKKSzYzpEo5/V9boyPn1k4mSm7ImyyZzNSuU9m+kPgD7KO1AAAAAAAAAAAAAAAAAAAAAAAAAAAAAAAAAAAAAAAAAAAAAAAAAAAAAAAAAAAAAAAAAAAAAAAAAAAA5Xqoh85+d9BrZvp1vW+3sdTuy6oPxX9w+Vae/4ws22q2cuTDdMy1c5A72IcFL2+vKRZFDV9LpuvN1XZ4TVaPq9OcdE3eoM3Scnujrc8CWTMsbOZdpq7D70yfO30SAAAAAAAAAAAAAAAAAAAAAAAAAAAAAAAAAAAAAAAAAAAAAAAAAAAAAAAAAAAAAAAAAAAAAAAAAAAAc3Z05aVEApjyl+MPK/rv5Z5vY0uXFXp8bY7DUTTZ22SzTNtsDlNvtBix57SHD2Uc5LRddz5pJeCh1215bpCbIhyCVlj5TD9r/F/WH2QAAAAAAAAAAAAAAAAAAAAAAAAAAAAAAAAAAAAAAAAAAAAAAAAAAAAAAAAAAAAAAAAAAAAAAAAAAAAAAADTfFv3T8ocnv+FWbbUdPj55mulZaNnL1sslTYdDZVx1L7LrTHjy2Gp0HWaM5SBu9UZum5DenSyYUkl54kgzxs959Let/Cv3KZQAAAAAAAAAAAAAAAAAAAAAAAAAAAAAAAAAAAAAAAAAAAAAAAAAAAAAAAAAAAAAAAAAAAAAAAAAAAAAAPB/d/MdXofLXE+j8Nz+tCy4L+35nYS9dLNjbjzk3PqM5sEaQW2XWlmq20M5vSdPpTQzMeI6/Zcz0JNkQ5BKywbC733xDGfe7WbMAAAAAAAAAAAAAAAAAAAAAAAAAAAAAAAAAAAAAAAAAAAAAAAAAAAAAAAAAAAAAAAAAAAAAAAAAAAAAApyPX6DDb8c6Xc2+V+heeMuH1/zqRKgyLjsZOvlk3PCzmXFkvMFc1piojGHUbSAaPWbvUGTpOQ2Z1OfDMJOLLlJNkaaes/S/wJ9uG/NCb5SoAAAAAAAAAAAAAAAAAAAAAAAAAAAAAAAAAAAAAAAAAAAAAAAAAAAAAAAAAAAAAAAAAAAAAAAAAAAAw5h87aH6lpo9X4q8q/SL4D2+dzWaPly1zZMCUT80W8l3xrzPbjqVtWlsSViNRqOg1pz2XLGOo2/JdIbLPCklmyhZDN6x5VGPrT5b6fgK7H6i+HfoQ+jXiPSnpKHfElbcAAAAAAAAAAAAAAAAAAAAAAAAAAAAAAAAAAAAAAAAAAAAAAAAAAAAAAAAAAAAAAAAAAAAAAAAAAAU879FH5q2fWHyaSZEOQTc8OSSL8GUzLagtKY8lhH1+1gmi1m/1Jh6Tl9qdRM10smYMmI2WOt5zmHZQh6J5jvq9ej8B0J6JB1u7r2Tp7L8QAAAAAAAAAAAAAAAAAAAAAAAAAAAAAAAAAAAAAAAAAAAAAAAAAAAAAAAAAAAAAAAAAAAAAAAAAAAD42+ydQfnVmm68mSIecmZY+UzXY6lygWX2lmCTiNXq93rjQ5MkY6na810BPzxJJZN1uxMWo3mjLPPvUueLvRvn/cn1ZuPn76cPZFKgAAAAAAAAAAAAAAAAAAAAAAAAAAAAAAAAAAAAAAAAAAAAAAAAAAAAAAAAAAAAAAAAAAAAAAAAAAAAHz38r/AKU/nuaWREkEzNFzmeuO8yLLitl1pTHfYYNftIRpNbvdQX9Nx/QG/lwJJIqwmwiSbDW7rntwXa6eO9+u/gbuj7CeYenFQAAAAAAAAAAAAAAAAAAAAAAAAAAAAAAAAAAAAAAAAAAAAAAAAAAAAAAAAAAAAAAAAAAAAAAAAAAAAU+fvoKEfnBJpYS88TOScuDMX1suK0C22tCyNJxGt1O81ZqJ8S466bpdqTcV2UkViyTWXyNWbkFKVtLtnq+cP0Wl6LegAAAAAAAAAAAAAAAAAAAAAAAAAAAAAAAAAAAAAAAAAAAAAAAAAAAAAAAAAAAAAAAAAAAAAAAAAAAAHxb5N9d/IJLzxc5Mvw5DNWypkpQLL7THZfQia7aQTSxdjrjc7/kumNhJhSSkzXzho95rifdr54trQauf0R9xVAAAAAAAAAAAAAAAAAAAAAAAAAAAAAAAAAAAAAAAAAAAAAAAAAAAAAAAAAAAAAAAAAAAAAAAAAAAAADSfnZ+lv55mjkRcxLyR5Bmuw5DIsuBaW0raY4k2IavV7rVGHouZ3Z0EmDJJFl+EnRs+M1e50O7LqLSN7D4t9SHuAAAAAAAAAAAAAAAAAAAAAAAAAAAAAAAAAAAAAAAAAAAAAAAAAAAAAAAAAAAAAAAAAAAAAAAAAAAAAAHxb9pfNB805Y+YlZo2cz5MOQvutqVKFtl9pZhkYTX6zba81E+HkOqmaycTsN9hLtpU10ikU29tKGm+8fhH9GyoAAAAAAAAAAAAAAAAAAAAAAAAAAAAAAAAAAAAAAAAAAAAAAAAAAAAAAAAAAAAAAAAAAAAAAAAAAAAAHnfolp+aGToOdJGeLnJWTBmMtbLitK0KUraWWZbCHA2cA1GCVCOh22g3ZMkRM5ZJiSS3VbTVG9xsRu/vH5E+uyoAAAAAAAAAAAAAAAAAAAAAAAAAAAAAAAAAAAAAAAAAAAAAAAAAAAAAAAAAAAAAAAAAAAAAAAAAAAAAAPnX5Y/SP84ymaPlJOXBlM9+DIX0Ctl1pbS6www5sM1Wu2utJXQc1vzZZ4mcpLh5y6BNjEizHjPpr6B879EAAAAAAAAAAAAAAAAAAAAAAAAAAAAAAAAAAAAAAAAAAAAAAAAAAAAAAAAAAAAAAAAAAAAAAAAAAAAAAAHxb9peLHxxmj5SRmj5iRdjvL7rBdZUUsutLIkuMa/VbfVmHfc9uTcyIckkYcmEk478ZiwZduffUwAAAAAAAAAAAAAAAAAAAAAAAAAAAAAAAAAAAAAAAAAAAAAAAAAAAAAAAAAAAAAAAAAAAAAAAAAAAAAAAGp2w/NCvWciZ80bMSb8V5mWVKqBbW0RZGE1+u2etIOx10s6CREkErDfhJlq0j+m+Y/Qh9OVpUAAAAAAAAAAAAAAAAAAAAAAAAAAAAAAAAAAAAAAAAAAAAAAAAAAAAAAAAAAAAAAAAAAAAAAAAAAAAAAAA+QvC/qr5TMmfBkJOTBmMl+O8AWrSmPLiIWu2UA1efFU6CVAmEm1eXo+cs+kvmv2A+v60qAAAAAAAAAAAAAAAAAAAAAAAAAAAAAAAAAAAAAAAAAAAAAAAAAAAAAAAAAAAAAAAAAAAAAAAAAAAAAAAAeU/EX6M/nOXX47zNIi5zNXHeXVtFaKDHdYQ4E+Eayy/Ebudq9iScsfKW5o2cp1XJj9I1KgAAAAAAAAAAAAAAAAAAAAAAAAAAAAAAAAAAAAAAAAAAAAAAAAAAAAAAAAAAAAAAAAAAAAAAAAAAAAAAAFPz5/Qf5ZPnO/HcZssfOZb8V5kKFaBbbfYRIU+Aa2NKim02Op2ZJyx8pSRDlFIknEfoT0Xzd9IgAAAAAAAAAAAAAAAAAAAAAAAAAAAAAAAAAAAAAAAAAAAAAAAAAAAAAAAAAAAAAAAAAAAAAAAAAAAAAAADgO/ofmZfv8AnjLlwZTNfiyF91orbULa2kaHLhmuizIJN2em2pKzRspSTHyF+K+0lfQfzd0x+hFfDfcSoAAAAAAAAAAAAAAAAAAAAAAAAAAAAAAAAAAAAAAAAAAAAAAAAAAAAAAAAAAAAAAAAAAAAAAAAAAAAABGJOq8s8rOT807zgTLfjvMuTDlL7rLiqgpS/GYIUyGQIM6CZNvptoS8sfMZbMmIz23WkfpOa6A9Y+vfhT7rAAAAAAAAAAAAAAAAAAAAAAAAAAAAAAAAAAAAAAAAAAAAAAAAAAAAAAAAAAAAAAAAAAAAAAAAAKPHfn0+rOZ+dtke9bPwWafQW7+bqn1RX5XkHs3inNYCfjjZTX+Ter+Ui6y8vzYshepUvoCy6hhgzYJCgzoBXaanZkvNHyknDfYZ1aEfc6jZGw/RD86Pu86gAAAAAAAAAAAAAAAAAAAAAAAAAAAAAAAAAAAAAAAAAAAAAAAAAAAAAAAAAAAAAAAAAAAAAACmj+aj3j5V8+1pDm6ueY5/PbA3UrTSTd7PmNueka/HrCfdjjEvWYsBO0OWMaB1vOGHJiyGS6y4qpQrRaYoc2EQoE+EY9lq9iTMuDMZ7K2ElQWzIkg2H2B8efTp76AAAAAAAAAAAAAAAAAAAAAAAAAAAAAAAAAAAAAAAAAAAAAAAAAAAAAAAAAAAAAAAAAAAAAeTnqPgPi3CG61Wnll0GTDIc7XXEaRbiNpK1Ms2ez0Mo9IwIZs9RtNMMV2ExafaawwdTwkQ7/AElOpOXu2mqK3WVCgxw5kIhwNhrzFP108m5o+Uz2XWkpSpSRGlkr3Pwn0w+0gAAAAAAAAAAAAAAAAAAAAAAAAAAAAAAAAAAAAAAAAAAAAAAAAAAAAAAAAAAAAAAAAAADVG14zxPxU77zGHmNdu/Ue7Ob1HtXi54ZCkQiNGkwzZa/UXG/lc11BL6ro98cjjna06Hmt1oRhuwmGBMhmq12115r89uA7Xo/IpJ6RqYHSmopuNeQYkuIRIE+CYJcOUT8uHKZ648pffi3ZF3UqYavb4R945fnf6IAAAAAAAAAAAAAAAAAAAAAAAAAAAAAAAAAAAAAAAAAAAAAAAAAAAAAAAAAAAAAAAABQrj8y+dT2f5/5+EZLNr6Ecx9RafYm25DyLxo7bzudLNau0JdrdpsDSbXve0OV7C2hVQYOK7vjCXqp+rK4b8BbBkxSHCnRCFgmYCJjlWEXJfabPoOLHokLjJJuddj2Rpsvc2nLZbJpj2EvakLew9iZKYxdktvLvrf5G6o+xAAAAAAAAAAAAAAAAAAAAAAAAAAAAAAAAAAAAAAAAAAAAAAAAAAAAAAAAAAAAAAAGu+fz2n5t4DER9FuuoOe9g9Hhmg7/ivnw6TynPKIU3PzpuOatnmvnb3tDk+7m0K0AtuClCvGdlwpjkavamqpu+eLcGTERo0vARMMrERbZFphskiNWReR8kvozXdJi582OmsmGTZYNgZ5cbKSMGapnviSy9bUupTCfXnd+VeqgAAAAAAAAAAAAAAAAAAAAAAAAAAAAAAAAAAAAAAAAAAAAAAAAAAAAAAAAAAAA15P8/8250g8B6jiPK7Oo5Mu9M8r1B9P+deXxyNLkwydp9JeYpkvqTn+x6CQUupQuWgAAoHC91w5r5MOaS9hqshrdR2lDh8e80xHxScZgpnGCuW4xTZu5MOOFpzLZTbke7ZYS+bbJLpFmUvy47iuCQMtIGcy8bb2h9SepWXgAAAAAAAAAAAAAAAAAAAAAAAAAAAAAAAAAAAAAAAAAAAAAAAAAAAAAAAAAAAD5e+ofhEnbPmMx1+bmJpvoGHMcLzfsXPHC11fOGwiyNoQtpO2ZB6nUcaew0026KAutrQuWgoCgrxvY88cPtNVU6TJp9qX0rQy2YsRG1e5HNOg1RgmaLEdxoIVBlkdCR5OLCJNJAzUyF19Blui4DYWc/ojf8APwdgU9Ugzj3T2n4klH2zpvjmCfVfLfOOQ9k0/n+Y6mBzmtO96H596A+p/U/h6p90vk/0s9labcgAAAAAAAAAAAAAAAAAAAAAAAAAAAAAAAAAAAAAAAAAAAAAAAAAAAD8/wD7/wDhM0uw5rZm1yYLjZzOdlnQZtRKKebenDyzbdDiIuykTTa8B7FEPOtuoVUoXUoCgrSgqWlbbMJw+r9F481UiPcbyRzec3OPDlMeHJiMWt2OtNNhzYjY7m/aF0WzKW5qWEnLqIR0uDkoR18HlMRv9fBoS6Zd4S+44bdG7rfeL41SRireRcmeMX6zFojDn6+WQ5UeIS7Y+IlSNXpzruv5Me++p/F9D7ofJ/sJ6gpUAAAAAAAAAAAAAAAAAAAAAAAAAAAAAAAAAAAAAAAAAAAAAAAAAfHf2J82nzRMgZDfbPmNib2NbOIk6LrDps/NbI2yLnM1cYAKULqUFaKFVBWlMJlw4MJmw4opJjYt0c9z3e8malfgLq0xkzNq7Da6/BcRMezjE7PoYp1GDmMRv4WpoS8OC0kMfXHNTPpHjzyXb9xqTTL8RW6RNInSQ55PsuqRr64jNfhvLsWQaTLtNGTbvO5Z2nO2dWcr1ku4AAUrQ2HsPhw+2p/w17KfQCNJAAAAAAAAAAAAAAAAAAAAAAAAAAAAAAAAAAAAAAAAAAAAAAAHjvsXKn58347iRnh5DbbTm5p1dur2xo7Ok1RfsOYlHS5NTMJjDeXKCqlC6lApShiwSo5HjV1hlnZNqOdn6A1VNljI2UIsToe4PHH3Vrj4jg/THRnznp/uHw+Pn7D7bql8es9CzWecTuv3RyvVdhOl+huv8c9hs2Gg34+b/JvuiEfC+t+gvFjS7DPsCNPzSzBq93pBAlcmdZdW4sXWCippNlm1JurseQUrQAAUrQAUqNh9K/LeI+7K/PH0OAAAAAAAAAAAAAAAAAAAAAAAAAAAAAAAAAAAAAAAAAAAAAALLx+bEXuOHL62XGbNGyGy2ehlnTy+b2Zl0fUYjmtlggHSyed2Bt6xM5lWVFKCtlI5WBkikazNQ6rCoamJs4ZExzLCHJyd4dj9E4tiUrg8gPQPA+d1JKaMb2JbfLoNhOmnLT9nGJmCHHSZsvPOtr2z1v5Emn2W+cPZDq/AvfPFT593OquNrZrRmiw+dJeqt2x1F2KotoK1tqXR89DR7uPqDpKYcwooXNfPFlamPLbjM1bRdStDD615XCPvZ4n7YAAAAAAAAAAAAAAAAAAAAAAAAAAAAAAAAAAAAAAAAAAAAAAfIvg/118iF9bLi/JivM+eJnJUvXZjebXlZ5vtXLlnJV6HSmfYc1nOov0k02FMGQurZcWw9laann+l0Jn3/nnUG8110k1dZOuJvS8Xtz7Yw/K3uR5Tyv094zHm6lK8k9N5LEd7kh5DdZNQNrCwYiluPmDgfU+L9VLc2T3g8/8AoanznHqXz1HVjvtgk7Q66IXqYiVt4+6M9bbhUK1tqXKC2JMtNDvoWsOlRbzlNpuPOzvcHnHYHQ3QZxmgZOGPRgMeTGYPt34c7I+yGPIAAAAAAAAAAAAAAAAAAAAAAAAAAAAAAAAAAAAAAAAAAAAAcN8C/pj+bBGutGStlTNkw3EjLGykjLFvNlsufznVX8/szFpussOKkbjRmyn8rIOqv0U02WbX5SVxHY4zzHcW8qehSuL3hv5WpvM0WTIMWePgO49p+Zch9d+Jcf7ZHgXNfZ3jlfNO76zmDor/ADe89EgcLaZtnvenInb9z6JE7gPI+Orax4NpOwwdKbDUW1K48W2Ie9kSi3MqLgqAAoKgsg7DGaHW7+MdHivsIXL9nlPLMnp9pxHYyLilQttutI+HPEPdfon4Z+kz1QAAAAAAAAAAAAAAAAAAAAAAAAAAAAAAAAAAAAAAAAAAAAD4L+9Pkw+fwVutqX5cV5lvw3ma7FkMrFQky9Zcb/ZcpLOrj67ZGm03cwTjZU/Tm3l8zLOjyaWUT9RPvPNYHqehNbuuEqekOc3BOvxWF1uKhJug4DrfYfnHEfZ/lHiHucvmcX6f0afPt/u2+PJPbuV+dl9o8H0d1m2rAnEiNBwlVkElXy9yYtgzFclt4uAAAAAoK0DFrNxHIW652UbbDfgJqlSitBRQW1sLY0jCbvkO081P0J3Xx19igAAAAAAAAAAAAAAAAAAAAAAAAAAAAAAAAAAAAAAAAAAADw/3Dkz8+FlxWtBffivMl2O4y34qmSuEZWIZ8kW42E3S5zpp/JbA6DXZJxyWs73VnKSs+tNtn0Mg3ldXmM3O9APNM/d86bDa+ZzT0vFotsYo24sNJG2WpLol+Ew7jV0N/qYWI2N2qmmXb34yVBpHJMCHsTBv755WVZmL8lt5cC5QVWiqlQUKqAACttRF1O+ikho+gMUvR7srRQrbW0pRaUxZMR0nmXq3lRb95/Bn0qfRwAAAAAAAAAAAAAAAAAAAAAAAAAAAAAAAAAAAAAAAAAAAFKj86ND9SfLJfW0XVtqZLsdTIstMlcYyMYzXYrjJfgvM+eFkNrsNBnOqk8zsTYavZZzjdd3erOXzS9eS8+pym0th5TDzvU4Dz6b0miOg3fl0o9Qs5feEDV7uKaTBuYZr7kU2M3RbE22XVwCbGybct29k0vk2SC7LS8urSpcoKgAFCqgqUKqCqgqoK48lDXwN3AI3RaPeCihS2tgtoGO606fzXuudND675F6afaoAAAAAAAAAAAAAAAAAAAAAAAAAAAAAAAAAAAAAAAAAAAAKfFH2xFPzSr6V5oXVsGRiwkthvL62XFVKlyy4uyYama7BeZssXITJGtym6n87JOny8/PJGu29TkNb3WuOQy7bWF1YgkRsg1Ot6KGc228YrJ11htcerqSLcd5ddfLI2wzTyzYpZdJtkF2a3IXVpcVrSoArQK0ClRRUChVQVUFa2i5SpTBnoaabl1J0TBmKY7rC21aXWrS3b6fozzr0nzf0w+06gAAAAAAAAAAAAAAAAAAAAAAAAAAAAAAAAAAAAAAAAAAAABzf50fpJ+cBi1W2HIyOmkmo26eQsPQxTUMuIuUqVrQVrShkusGa7DcSckS42ErV5jdTuflHQX6aWSIGwqc9q+zinEU6rXmksmQzBGm4iBjnWkJMuIl83ORJmaYYZeTOJLOMtLy6+24uBdQFaUKqC4BaLqUBTnjNbse+POtr6B5KbtbcAAUiy7DR76DDN3jyYzHZfjK221HZ8V3x5H6JwfSH3lUAAAAAAAAAAAAAAAAAAAAAAAAAAAAAAAAAAAAAAAAAAAAAMP5ufpT8rHzndbQl5MOcwbDFuTVQem1RosUzXmbPqaG5a2WZ62i6tlxddjqZLsV5lvw1JeeBkNlI1ec20rSZzdZNTnJeJUiw9rhOa1/XRDlMm11Rnya6UTMuCQXZrM5dmtyGTJZlLr7bxdbcVrbUqpUAAAAppdb4ifSkfxP2I96n+H4Dbc16z4+b1Eli60XAUqMet2uIgbLTzDPhz4CyttC6drqHY+fet+NH6PXcZ2YAAAAAAAAAAAAAAAAAAAAAAAAAAAAAAAAAAAAAAAAAAAAAjSR8KeafpV8HHFT9btCRudT0JXU9Dqzm9ZvdaaWLtdUWVx3E2Zp8ptr4kgyMV5dWypfdjGe+PUl3xMhMywspOy63KbLNrbzZ0g5CTioI0TZ4TRa7pIJp5VIxtpXPyzf5dRMNnkgyCXfGymWtlxcBdaFyhUoVABE8I+gox82byRzZ73uvAfXTv+i4DeHn+79O8ROvavZl1bRWtKilRg0++ilLdbsjFbdjL6W3HqnjPV7Q9i93+LftIAAAAAAAAAAAAAAAAAAAAAAAAAAAAAAAAAAAAAAAAAAAAAAaLej86Y3118kErqtH0pg0+605p4E2EQMWzgGuhbi00MmRryXJ1kk3V+lmEmuahjrjGW7FUyXYbiRfFuJWSJcTckK4nXQshNvhXE66HkMkfIIkHcYTQxt7AIkyLiN/M52cb3PqZZsMsPKSa4by+ttSqlQVKgKULqUGPxb22w+Z9n0vDntnWfPHqJ6X1/nuxPPN3674Kdu57oCoLlKi24a+Du9WZsOLOWVsD2Hx/wBLPJf0H+EfoQ98AAAAAAAAAAAAAAAAAAAAAAAAAAAAAAAAAAAAAAAAAAAAAABi/PH7w+Ejf7SzMQtNtNUau/YQTXYthENfr5GuIupxbAxz8+YhZsGI2MzTyjoMGqmF1ZmIxVsqX3YqmS7GM2SNcSbo15nyRbiXfDyEu+HlJVMVwxZhrYG+iGkTYhK2GgkHSSue2BuMuukky7BeZa2XFyguUqFKgAFPJvWh8xz+980PW+++dPRT1TvfM5p57tPbfn47mvJ9UX1sqXKVKY8tDT27XTmS0K1tHtnlHqPk59+3eN+yAAAAAAAAAAAAAAAAAAAAAAAAAAAAAAAAAAAAAAAAAAAAAAHh/wA8dzzpJpksNFXkemMODPri3QSuYM3PbbozVSp2uMUSbUjWS+eMe01W3MmXBcSpurym7xayaWJ+AwsdTJS0ZbsFTNdgvM90e4z5YlxNyQ8hKyRMhIx23mCLsKGki7uCQpsO03k/m550GbTzTYXw85Iuw3l92OpfXHcXKCoAHm/pA+ZJfp/kZ6f6T85d8es+k+WSDhZPvfz6drXjOyK3WVLq0DBIoaC/ZakvqEj6A+dvYjzP71+JPST6WAAAAAAAAAAAAAAAAAAAAAAAAAAAAAAAAAAAAAAAAAAAAA0u6+fjwzoIc8tsy4iBzHRa85u3oNYed7/dwCRSZpiPllUIeG3mCyTtpZCrJtI1M9hjvWGW/AJczS5ToIuvnmGs2MY2KplrYMt2GpmyR7iRkjXEjJGuJd0XISq4Ly/Bnoa+HucBpazoZL2GglHRS+e2BuL9fJJWSPeZrsVxetqX0tuAFaCvC9zU+ZJPrnjZ6B6r849qeven+U5jjrPoTwQ6yvDduX1svKqVLYk200F8zXmQqfUfyx6V0h7x1nw99vlwAAAAAAAAAAAAAAAAAAAAAAAAAAAAAAAAAAAAAAAAAAALPiL33wAnZqXGPTz9EQcWbXi++hjhzdUQcm5hms0PQ5Tk+ln2ESyZjImKZiItsnGRscmIZbJ0cx4JdpDyVGaTqam8x6y8lZMVTJXFeZK4qme6PcSaxspIyRriVfFyEm/BeZqUGOLPsNPg3EMiTYmE6CdzWxN7n1Uon3xcpIrhvMlbLi6tlxUAFeP66p8zZvZfFTt/WfnTrz2D1XyW80Ef1XhCdI4nozY3KF6lS3WbW00F+aMXfWvyX2Rofet/8pn6HOd6IAAAAAAAAAAAAAAAAAAAAAAAAAAAAAAAAAAAAAAAAAAHMHy7D0PSF9LoZE0Ww0xhzXXGPWYuQJkXY9QUszxBbmjizNaRrJFhFtlYyNjkWEaBtIZMiy8BSHLGGLnuI918UhTNJty4xkvNqqG5v1Eg2N0TKZ749xmyR6ky+JkJWWJlJN8e8kVx1GLMIETcRzT3yYpsJ+gknRStHONnlhZyRdivMlcd5fdjqX21oFKleS6ofNd3svKFvrOq05O1CpTNhHS7nht0b2+20yqXGLT73AaWq0+rfCtP9bHzp9j/AJ2/Xx6oAAAAAAAAAAAAAAAAAAAAAAAAAAAAAAAAAAAAAAAAAB4H758dHP7jV7Eu0+z4cn4LoBL5yNzpb1s+aY8tNUL5GEpodryJ2mRkMFkjGYLM+MwWZ8Zgx57CJlwbAi4JlDBGzRi3QX7o1+yl3ENLimrxb6CaykyKXSYFhu5HPyjc3a2WSb49SXfEyE3LCyE3JEyki7FeX2VqR40/EanDtYhina8dFN5rZG6y6+QS74+Qy34chfXHcXUpaXW44xr+k8w2J3XGdlccNWTDL6VFa4hvOl4LqDZ3qFwI+k6OGar3/wCfZB7Z5j9afHB99SPAPfwAAAAAAAAAAAAAAAAAAAAAAAAAAAAAAAAAAAAAAAADTfDv0V80nQTdRQn8N0GEicrsohp+5rkLsMahbkstLdfEhkPsZOUx25rDHjy0MOPPjMNubGYrMtpCyZtebCHF1JO1k/dkWTmGCkiwi0z3kLHLEaBuI5pYvSxjnsexxkPPZhNrO5u86iui2JPyRbibn1+Un5oGcmVwZDLbUWYJVhrou1jmvzMRtthzewN/n1com5Y15nuwZC/DWOY9a5gl6ePrTte98c6E9J5Lo5RwLY6wrkoK5sNx3F/MzzcXw5RdRU1ms6TUnsW68G+2z4l+7vgD3Q+oQAAAAAAAAAAAAAAAAAAAAAAAAAAAAAAAAAAAAAAADGfG/mbCdHHy5TT5JMEmVi5zn5W51hstfotedHzOHqDX9HkuLbMlpZbfaWW5MZbjyWGOzPaYMeWhgpnwmOzPcRpWglmyv1+UlY7cxbXIMK/CVtiQTbYudxGLbWbg0sfe4TnY3RRjR3Tohm2OjqdVm5TYm+ywJBMz67MbG+FlJNcd4xZqEONscRqU2MS9hoJB0knSTjY3R8hfhvoarlO105wmu6XnSLudNjPQu+8b6k9M4PuIZyLFlL62WEbrJOxLq0F91tStl45/77+Hfog+Y7MsM+7un+S/rQAAAAAAAAAAAAAAAAAAAAAAAAAAAAAAAAAAAAAAAeb+kfPJ8wzYuyN/ffINTdstcaazotEX3wc5mw56mCuQWLrSlt1pSy6hZbfYWUw1LqZMJavFmOThIMqNnLouwqaWP0Y5WzrRx1naDjMnXjmJm6oRb5AiUk0ImKdaa/DtMZqIXQYzl4HXRTlKbuARthrbDq5fFTjrc2j2Rsc2uzk9HzF1twwR5thqsG0jFmy09x0srRbE2FcGQRJlhzXLeg6M88j9JoiN1fLTj1XrfIvTDT6jbxiNu88sSseQuBddjqZLsd5WNJoc9ZmqYPuT4b9WPr5SoAAAAAAAAAAAAAAAAAAAAAAAAAAAAAAAAAAAAABT48+w/g05Tdarfm1uUK1ttMFc1po9b1Ec0meLabBGyl9oW23WlLbrCll9pggbPSm3x4pJGpJtMOXJrCJsed64pdWpauqWVuqY7rhbTJaWUvFlt4sVtKWZKGNfQxW57CPimUNdE3OM5vV9nFOJx9XqzTyrcJv9vxGU7uTx+5N9frpJIWZDHhk2mvibWOQthBsOjl6DZGxrHzlsLYWHNcz6DrDzavUxjDtNrvyFuMmYplVLq0uAFaVK3WXl99tDT5Mc4gYJ+E+0O2+P/r8qAAAAAAAAAAAAAAAAAAAAAAAAAAAAAAAAAAAAAB+eH6GfnQSeg02/M9FpcsoXLRdHyj2TwD3X2I+E8nsnjZmv1+UmUw3F1oUsvsKW32mm1/U2HJYOzHAbXrbjFfdkLF4tXixdQtXULShQtK2rStq0upbaZLLbTJSyhdS2hcsoVtrQx4JVDUanqsBxODsdUaS7NGNpu+QvPQJPCbw6W6BLLsWYa6Jto5rpeDAdDM5zam2uiShikVNbZt7iHMvzFMi4pVUVACoF9LDPzEXcmwzR8xZgnYzX/aPxv6kfVAAAAAAAAAAAAAAAAAAAAAAAAAAAAAAAAAAAAAALPzq/Rj8+DJutXsTItC2lC5bQvpbUrstbafR/Q/J/TkfzL7OlHxHm9N8sJOTXXk6ke8y0tuCopW4UrWpStRSoLbhSihSihS2tpSiwrbSgtWF1tthdbS0vpjtMtMVpnphGVHuMzCM1mMXY7hD1e/xnIx+s1xpayI5N3vKj0WTwG/N/ZZlI0LaxzVZ8kQ3Ww5nZm+y66WSb8WQy348hfWy4rWlSoFVQpqSbyapNl6PbG9u12xM98bOUtzUPuOX576EAAAAAAAAAAAAAAAAAAAAAAAAAAAAAAAAAAAAAU+NPszzw+Q9hz21JyNcZaWitFCtcdTJSyhltULeo5ew+mel+PNkeg+Me9+onwy+xvJjxfJteaNpfqbjb11OQ2rW3k9AvJqGJdIolWxxnpgGW3HYZbcdpkttoKYxdbSwqsoVWiltbSitpWi0rSguWiqwXqWF9lakSBtrTmsPRQjV3ZcJO6Hkbj0SvF9ES4uxwmovkwzZ7PmJ500jS7EnZI2QkXYry8FxcUph5Ym6+/VGfZzdgLvS+QOQnZtWby+DNJFsb0g917wAAAAAAAAAAAAAAAAAAAAAAAAAAAAAAAAAAAAAAPJ/k79CdQfB0zvfJjoEDOSa4LzIsF6wX0tFaMYw32GPFfiOm9Q8FsPrra/FUo+lOR4XoyBofS92fPut+q9gfHNn2YPjHH9q2nxY+zJ58SPtKMfHD7H1R8mPpaOfOFPoXVHh71vnjhLd9oSqHcSbY9TMwjLTHcVUoK1tKFSlVS0FtK2lVKFbLqFtl9SHD2uM0ePcxSFfWw2nQ8XkO2jarckGzYRjNs+dknVSuf2RsssLKS8sa8k67VasrJj5CH1l/QmDvOk6k5u/QeVEeyy4wS5H1EeffS1QAAAAAAAAAAAAAAAAAAAAAAAAAAAAAAAAAAAAAAAA8u9RHwFqf0L+bTxO/TyzY1jZTNXDeXrBfYtKYr8Rbiy4CmO60x2ZMZjxX4zHiyYjFZksMFL7S0Ft9oySYQ3254qp6Xs/Ih7lufnWh9Vdp8SWn6A3/AJ+bA+5ea+aenPReei9KcFyX0n1p8JQP0U5w+EX2Hxp8219j8/OcrjvKlhfS2oKC2tpVSpSlbjHW60pHk1NfG22I09m1ikXPiob3Ycn6KaDB7tyZ5rM0WM7GZwkg6/TWbgsgYusIW1l+wHN+j7TzY3PL8frCsTHML990n1mc91gAAAAAAAAAAAAAAAAAAAAAAAAAAAAAAAAAAAAAAAAAAAcl8lfcVD845/098sk/JrJJMrHvM1tgriutMeLLjMdmTGY7L7DFjyWGDFkxmOy7EUsyYxbUFBVSpW6lSqtS1cBcUpcLVwFSlt43nf8Akg+iu1+QB97bX89OzPrri/OO7jm+B+nd4fAuq/QnUHwlZ9kcdXzQ9Q85IlK1LK3VLKXVMV9RbS8YqSvUDx7p/p70o8K9W4zwc91+ZOaqQpU/aEHcTdgaSH1Fwl4e5O71vZeOndeXa/XmaNknGH3ntfUylQAAAAAAAAAAAAAAAAAAAAAAAAAAAAAAAAAAAAAAAAAAAAAaraj5D8X/AEk8+PiyTuuNN3WBIM1MYpYoWWrS2y7EWWX4THhyYizHdYW0WhbQvrYL2O4vvxDNXFUyXYqmVZUuUuFLhbW64sZaGNkGOl9CymShZZkoY+k5yh7b3PyxQ+6Oi/PadH3ri+Vu1X1PjN73B888J9oYk+A4n6FwT4J6T7alHyp6F6J5qerWfLvl1fSfhfOhbkqWX5Liu210w3UvV7Ez2ZrzXX5oxepBMsivoxzf19upQAAAAAAAAAAAAAAAAAAAAAAAAAAAAAAAAAAAAAAAAAAAAAAAApUPF/aB+e+k/SHw0+W8mx5U3FsDISLcAzYbLDJgRy7DSOX2WYzJbioZrLKGRjqVrbUqtoZGO8rW/KYKzM5q79pU1ldjiIuWmAl36uw3V2mvNu1uQl2WZC2mW4iWy7CPbnxFtLrRSousuobztvLR7hj8Tqen8JqxbcFKXWlaKjJjGW/FeZpEXKbLYaeabiXq5ZLiybzTSJX1ecT7/UAAAAAAAAAAAAAAAAAAAAAAAAAAAAAAAAAAAAAAAAAAAAAAAAAAAAPNfSh8dePfpMPzDv8A0A8uPlG36A0J41i9bvPHKe57g+crfrPpT4mr+iXWn5q9b+hNT4k6z6vofOm/9tHmm868anNsBRUUqAClRRUYdXuhxmg9SHg3PfTVD4/5j7nH53c7+mg/Lmv6fc6fnTk+6eWPkGv0zozwF7Dojzq3qtOa2zJgMtI9TPSy8K0CtSy6otVsMt0a4mZIOc2MvVyTcSdNebzfdD9dGj6MAAAAAAAAAAAAAAAAAAAAAAAAAAAAAAAAAAAAAAAAAAAAAAAAAAAAAAAAAKVAAAAAAAAAAAAAAAAAAAAAAACmHONHp+0HlWn9tHgOm+l6Hy7rPrWp8ca37ZHwrA++R+fWt/Rcfm9B/S8fmbuv0YHxh9A+m1AAAAAAAAAAAAAAAAAAAAAAAAAAAAAAAAAAAAAAAAAAAAAAAAAAAAAAAAAAAAAAAAAAAAAAAAAAAAAAAAAAAAAAAAAAAAAAAAAAAAAAAAAAAAAAAAAAAAAAAAAAAAAAAAAAAAAAAAAAAAAAAAAAAAAAAAAAAAAAAAAAAAAAAAAAAAAAAAAAAAAAAAAAAAAAAAAAAAAAAAAAAAAAAAAAAAAAAAAAAAAAAAAAAAAAAAAAAAAAAAAAAAAAAAAAAAAAAAAAAAAAAAAAAAAAAAAAAAAAAAAAAAAAAAAAAAAAAAAAAAAAAAAAAAAAAAAAAAAAAAAAAAAAAAAAAAAAAAAAAAAAAAAAAAAAAAAAAAAAAAAAAAAAAAAAAAAAAAAAAAAAAAAAAAAAAAAAAAAAAAAAAAAAAAAAAAAAAAAAAAAAAAAAAAAAAAAAAAAAAAAAAAAAAAAAAAAAAAAAAAAAAAAAAAAAAAAAAAAAAAAAAAAAAAAAAAAAAAAAAAAAAAAAAAAAAAAAAAAAAAAAAAAAAAAAAAAAAAAAAAAAAAAAAAAAAAAAAAAAAAAAAAAAAAAAAAAAAAAAAAAAAAAAAAAAP//EADcQAAEDAgUCBAYBBAICAwEAAAEAAgMEEQUQEiExEyAiMDJBBhRAUWBwQhUjM1JDUGFxJDSwU//aAAgBAQABCAL/APEUfK1nqfisDEcdb7f11UtYypHh/WbnhnL8QiapcZt6ZcRmkT5P9nVQCdXL55yoK4tcHCGZszA5v6wmqmQ8zYk93pkl+7pC5a7I3K0IsU0eUb9BWFYl0io3teLhOka3l+JQsTsZHs/G3+0uMy+/9afdU/xA7+VPVsqRdv6kkkbGLuqcTL9mFydL9ibLlWzKe1SstlFOY0ysHsawpshed9a1Jx9hJFdOGlAqhr3QuBVJUtqGB4/UVVWtp1NO6Y3cTZF2pEq2V0XgLVfiyLSpGJ0atkwJrlrWvQ0vWtz1RYbtd4powqjCopeKmmfTOs74drLP6Z/UNbiOi7I3SIzJrte5544RKkmDUZXSGwEYiGp0D+punPDeURdTRW3D8ggU3dVRtpYsNh6j0M6ylFSwtOFkxVDR+oCbLEcVJuyLlaVpUXoGRcpJbK5cbqmi0i6qPFsIZGjwqqcDZobsBkylfLxHgsXL8SwsQWczKnF3hSHU9ywdnhc7tlp9NZGR+npZWxC7qyvM+2d092yaNIARKkenu1FU7NRUsmgKJtty+JrjdRw24iw97uYqRkeeIxdWF4QypdiSgsK/xdvS11EH6enqGwDU6qq3Tm5Rci5blBlkSnFSvyphpF1fqPReqaPqneNjI9h2HcKpj6cj2oKH0uTFhTvCR2ioEM8d/wBOVVS2nbcz1DpnanZdMlaQFwuUVIU85E6WqM2C1XVG/hSPJKZNpjCiqeobIOCuhK26xuLRNqyZ6CmLD5+m7txGqvPthlT14Qf03U1IgbczzumdcoMVk9/sCbZFFSlFN5UyHCCpH7kI+xQ4IUbtJBTnG5VXUaIW2Y5Yl/dp2vyi3aUxA2VBWhw0Oyrq0QNNidVysAq9L9J/TM0oiaXOqqkzuJICAV1LJZE6UZWtXzAXVugwnl0cfuaSJ3D6N0ZBU69hlC/S8FD0oZHlVILoDaMpkHUp5GlQFGK6s4IOVPVyhS1r7Kol1m2VLJ03giln6sbH/pgmyr6zru2aLq2jMu1ElTz3dYNCa1MbpCfdykiIV7KKpLeZ2B7dTbOCGVM/UBl7o8KndZ25p4WG6jN1WxdKZ7U02QdcbCa3qErF1ftPJmFgEmqD9MYrWf8AE1rdSA0JxvlIbAp7tDU1NCiCc4N3IeXen5aQqopy3KCTSqgWcFxdEKgdsvdFRNubL5cN5aR/Bu3qxxtpGHKOXShIChvxoUrEdsmrA4unTi/6WrKj5dl1vKbr0BOOdQfCql3smBNamnQ0lRsMrt4oxEEZHJzhJs+vpDA5MKnP9sIhBUhs6yPsVG3Vsm07l4Rz4ijUxw8VTvmHandONNbH7bD1dZq6zURdTR5UUPWka1Rs0NDf0vWTGpk2ADNk4pxzqeApeVG1abBS8MCw+PdWuiE5TR9eJzFwnbxleoLSowQQVENeyY1wKdf+bqprPRJK5/KkZr2QpWDl0/tHHGtCMS6Zbw2My7KmweNu72RRw7tZWuUVUH8/pNzgwXdWV+saIwNARKJRzqfSn8qBqkHhKk9SoByrJwTwo9nBVjNErkBcJ0RG4iIcgxRPManxRwIYyoZI7xJl7b5cKom1eERtTAggF01SQaRqR3RiBT6b/WOpdGbOpKrVYH9IOcG8z4oG7MkndMd7aU4ontmF2lO5VONlL6SnepYeUEQnhNHiCrxd91O62kKGUP2L6a/DTIxCZagZNS39yb5PKmk0hMCjQNkJLmwYo29R4CKIunQNcjrgTrThUk3TdpMMvUb+jnODeZ8Ua30TVTpOb3UbNCc5Ty9NpKp6wufZ3bMLEqldspfSU7ZwVM/TYppuinhegFxmF1KCTdcKKqLeW1DCuo1Oja9NjtkU8qZ1zZNTSpJVTiwQKw9vLkU8X5kg92xzavC8XheqhtrOWGT3t+jOFUYk2PZs9W6Xkvygit4i5yJWIv2AQNjdA3APbWM8SppLIuuFp1hQvVPUadkHgpxCqJ9ew9ZRjRhC+WahStCDAOwp7t0Tc5al6iE3KiH9sIqRrXK7oXKccOEviaHL1xLDX7/ouoxBkXFRXPl5L1fKNq1IlErEB6coPQ3tqW3svQUyVQlOjug57UJpFqJ5kd7Bot2moYF8yxB4dwcmU/u75WKTZ1RTup3aSSofWEMqT/G1TO0tJVNud61lgvVEo943Km3a4Kh9ab7foiprY4OanFJJdgZ1qvm1NK1InKWLqCy+ScSgLdsgu1VUewcmuUb0ZbITtXVajLfhjLZ3Rf8Abp39QYAoqXXuRHHHxqvw6JzitBQTmCoZ03yxmJxa6H1hNyoTdilbqBCZdhVUfDvbTEoto3KmHheqEeNN4H6HxOv6PgYXE7lXRZ9mv9i5NKDlfy3M1MIViECmT/e4KDU1tsyUXIC2UADjc9e/AjVlp+5ZfmSG+VdB8yzUG7EJissOfy3JwRgMhu6o8RDBMNDA1W6cSw6P9DzP6bS5SSGRxcUSta1ouDuTcJiHmcOKMS+XahA0KwauuPbUSrrUi5R77rUny6zpEbfZBRSexsuEa432in62ymj+zHaTdYlTdJ9xSvuLZQv0OBQN8nAngRti3TWGZ1zUHWQ0UEOn9D4rqdFoYMLd/J9CWqc9L1FwK1JkmrYxSFpcFr813sUcpJBGLlrXT7loDeESnJ5QdspZFT+tqZtkFC6+xcNVwpAYXWMLvELSN+552mi68TmJhMZumPDxcKin/gcjEDzI+2wp6fdRx9MW/QzpNKkrbv0KSWx0kp7A8WdVURg3bdaimHe6Bum+Sczugdk42X+d6Hh2Wr7CMuUWH/7HD4yqvDi0EtJsEd1GbOGTTk0oO1BVVK2ceKGjDDcOsFJymHSQVVRgSvAY3TwHrqWVPWg7OBuiLqOH/WGHp/od5uSqgEyteK4WLHqu3a16e2zQ4PN9lUw9JyYnD3TCm+SewO3VU+wsqZult0XX2TGKlh98inLEKe3jblA/qMCaUN0FE6y2atyr24fynyCMXLpNZJQK1IuVLTukcAKfC42NF20kYQFv0RIOcpGaxYyM1REKjOuOyEdw9VMfVaQo3IbpqYfMJsodzdTeJyJsFTNvumsTBpAyKKkbqBCe3Q4jKim6btJcEx2QV/cH/wAuKeLXKn6jjdByugCVQ4XJUbqkomUw8P6Kk9RTHaZHsIk1SdMaLXBojpc9qtoqCFVR9J5CqGaHlRHZO9SYrq6ur9xylvbZjdIVrlSKlbsFo2zKKcq5tpCm7pzVR1V/A/TZROXCa65Kv7NEf3rJOGCy03UUHUNmUmDhnilAt+jJxuqzwyMcut8rO5yNSyXSj/bqFWjS5j1ijfQ9Vo4Kj2CPKZldXV1dXV1ftG1wmDlSKj4anN8HYU4Kv3lK4XOUFZp2cx4O4uXJkH32apasDZuVJhD5PFLBAyEWZ+jZW7Kvbdl1PSddjbUVE+NxfJXDSWOVYNcV1VnXTtKq+AgUN0wIq6urq6urq6v2SfdR8lOVC/ZMdqFkzjsKndqkc5Ft91wr3yZtwJnLruVz7qkopKn00mHR036RnZqDmobK6rmaoyof7kSe/wDs6VVngIBMYgE47q6urq+V1dXV0cuUNiE4KJ/TcoJVqsb9mIVPSbpHCBy0IMQag1AZ4PWhzRCf0jMz3V1qUcvXa5ULrB4UztTnWfAXG6bCGrSpZVqUFLLP6JKKWPkgjsur5hXUgQcnN1KKYx7GOqBTajSvnGqWu/1kk1uJQCsuECmuCAXC6q1Xya4tIIoKsVTNX6SlZZU0xc97TS+GV7VNh0/jcwt07HLxSnRHTfDcsm8v9Egp7EAW4qGKVq6YKNOwqHDOudLaiidBe6DldXV0dwi2+4jksrXXSCEQymk9gAgi2+Vsg8hcoIZBUdUaSTUmODgCP0g5gKZQsa4vQaG8KWnZKPG/BITw3AoBzFAyEWYpW3bk8XCnbkAsIZ63KvpOs24mh0FWzvkHaSnQh+48cSFV9+v9jqPL0EArJ7F/7stKsgg0oMQRCwat0/2Xfpp4sSnHSCTNL1CgFZYUPA7LFqL+YItsrItRar5NeWJrw5WycpEzdAKyITguEJEJED2nbcYbW/NR3P6ZqBYhV8v8QArKnpXTcQQCFtgnsDwQa2m6biOwxgox2VshK4LrldUpxuqcXCsrIhOCOQTD3UlQaWUPTHBwuP0xNHraqn1lAKlw7V4ntZp2GeKU+tuoSN0nMLlOjujGtCstKLFRt2Vs3BOCOTSge0hYLWf8Dv0zNRMm3MVFHFuO0i6rqfQ5zewIZaF0t10l0lE3SOxwTgjkCmnu3aQ4UNUKmMP/AFDi8Wwepm2OYyGR5b3kJwTgjkwod2G1Xy0u/wCoJ4+oxwUjNiOwZu4V+9ycEcmlNPc4LCKvrM0H9QV0fTlcpW2PYM2cW7ynBEIoJpQPdBMaeRsgZIHtDh+n8YZuxylFx2DM/dA37yE4IjJpTT3O8WwwSq5gd+n8VbeK+UjdJ7grfbV9w4HtKITgiMmFDPUAvVfIOMbg9sEwmY14/T1c28L8px79g7bXVlutS1DIohEIoFNK1fbcoCyO2+RWC1OhxhP6eqReN+RF0RbzCtIRaiCiCiCrJiHYw5XLSHClqBURteE6siG36cIuqjCXXvH/AEiZVmGSQt6h88ojIJp7ODngtRoeYjic/Sj2e+6psRkgddUlYKhmr9OvYHgtNZTGlkLDkPMKKOTChmRdNNxlcsIcKyv+a0q+VG7TG0IT6fSyucOWTtk41hRvDr2/TGJ0PzcexGk2PnFFFBNPYNjkVwroKOptz1mlXCje5TVDmnbD22jH6axnDdY6zPPKOTShm5DJ4RbfcMQTUwpoI3Ev9zSVE3S0D9N4xQfLv1t84o5Aph7G/bIpp0lTRahdoq3M5jrmlRTNcmqBup7R+nJ4BOxzHTQmF7mO84o5MPYdrHN4TCqimEu66GnmGimku6OnZVAXGFxyOOp/6cx6j1N6wHmlFHJpTczumm+TlHkWgrRbjDsSdS+B7XB24/Tj2hwINXB8vK5nnlHJh7BzkUdir9lLXvpthBjEb/U14duP03j9Nqa2UecUcmlA5u++b0w90Na+mN208wnja8fpqeHqscxPbocW+cUcgmnsbxkU3Y90ioI+lBE39OY3B0p7+cUUcmns983bIdhTG9SRjUNv058QQ3ia/wA4oo5NQzd983ph7CsKZ1Kln6drIerDI36AooJvY3jIpux7HL4eZd8j/wBPVbOnLI3ziijk3sHJzPY9YAy0Jd+nscj0VBPnlHJqGZ9s3JnGciwuPp08Y/T3xFH/AI3fQFFBNzdm5Mztrc0Jg0gD9PYxB1oHeeUUUE3sbmOcisOZ1KmIfp8i+yrIPl5Xs84oo5NPZ75uQRWAMvO536g+IKW4bMPNKKOTUMz7ZuTOE5fDrLRyP/UFTEJ2OYXN0EtPmFFHIIZu4zKjUiwWPRTM/UON0/Snv55RQTexvGbOU/dUzOnGxv6hx+HVFr84oo5N7BycxyqZnUmjb+oqiLqxvabW80oo5M7PfswVmupH6jxCPpTyt84o5NQzPtmV8Os3lf8AqP4gj0zB3mlFHIIZu7Phx+0o/UfxGzwxO885BDsbxngMlpy39R47HqpyfPKKCb2N988OfoqIz+o6uPqxSNXHnFHJvZ75tdpc0ppuAf1HXRdGaRvmlFHJvZ75uWHv6kER/UfxDBZzZB5pRyb2H27MFxFrWCF/6ixSDrQP809g7HdkLrFUOJug8L2uDhcfqGrh6MsjPMORyHYexuxV1gdTqa6M/qCWdkXOLSdSbV5hyOQ7W8duDP0zj9PvkDBc1GIudswucqzex8w5HIIdjcygqJ+iaM/pVzg3mSvaNmnEHoYi9DEfuK+NMqoyg4HhVFcI9myzGQ3JKG6q22Z5hyOQQ7B75lN4TTYgqM3aD+krqsxlkGzJcTkefEK4oVoQqmlCZpWrIFOqX8LWtaG6dJp4l8bfMKKOY7PfsZxlh8mqCM/pGqxGOmVZikk6cU/gFByurq6DyhM4IOIG91dAXRf7Bak+O/mnMdnv2MywV94Lfo+epZAPHV4y+TZjjdFFDdiCur5xbuCkduroDa5c+6urolB9kQJE5mnyzmOw+3YzL4fftIP0a+QRi7qvGvaKWYv3dzkcovcZDK+UbrFOQ3Kld2FOQksmyB3Loftx5JRyHYexmWAPtK8foslVWLsi2ZUVT5zd7pMmnYooophsVILHO+QTDqaibWTx2FFELVZRz2Vw9Oitx3lHIdh7G5YO/TUM/RVViEdPzVYjJUJ0llu5Q0z5jpjw6iY3qOmxeNn9mVpRRyl9jlZAINUVKTy0aHFqm9lJs0dpRRyD7KOoV2vRi+3YcjkOwoZBqDVoULum5rgyQSNDh+hp6lkAu+qxZ0mzHPtySXJsap8NImYyfxUFNKY2T6vl3uxWoikZoJysnGyucrKGldIoqdsWU4tZyPjeFMe05HsD7JlQhK1y6d+CwjMo5DtYLprUBmFhVXoPSd+hHPDRc1eM+0UspcdTjJfgM+4pH+AmOiZATG1srdMfVrq0UUvixDETVOGnTfk/+NIby59+NK0pkBdxFRhu7s3C4IUWzlJ2lFHuumyptQuo1yLQi1EKyHYGpjeUB3YfV9ePf9BVWKsh2bUVT5zd7pftpJ5a3cAYhh5pQ0qgqAadpe6ra9pkVfiLXtfExxdJubWWj3LpbenlaUI1HS/cAN47ZRpddHdX7Cj5Fs7q6Yy6EQTtIyDUGoBcb99HU/LyByBv+gKiujp/VVYlJUbJztIW71DTmQ6WQ4U6OWLq4mxxDSqhzZiad8VX8syaE/8AhaUGkoyNZw5xfzpQao6cuTIwzjvqDumOsnsV8yj5dkyL72snS/ZAIBDMG23fhcmuBt/z2WZsIu+qxcv2iJvuU8XBUNIZYXzCh0tZA9tcHspzaerjjhcqutdUFrjp+4F+Dpj5fMXLSg1Mi1cMgDefJm9SCa6yczVuDt5obdMZZE6U598hsmodlroG2x7CbLBHXp/zwlTV4GzKljpjqTmlvOeCSgOlhc5v9Ppi11Vizi5xiAQWm3qfP/ryg1BiZT/fjy5/VmDZbPT4S3y2sumtsnPsib5NbkO7lA25yvZSSalgrNFMy/51NK2IXdPWGValdEalJT/6nbInS4ESTPm9VrLR93TBuzSS7kBBqjgLk1gbx5lTygewORaHJ0JHfZNYrJ8mbY0VpQHkelOdpT5NSwyi+bksQA0AD86xKp1ykIPQctSurp7A/mSEsRsUBdFzY06UvQCDUGq1lFLq86p5GTXdupGxRi+xYR2CyvZOffIC6ayyJ8m6upJdkXak1us2FPen3ZT4x7SxytkF2p1TEzl2KQhPxsfxdjMns/FJyjXTFfNTIVswTMWmaocZYfXFOyT0/lsz7ySZXQcrq6vk+AHcTSOB0qyATWoNQanizSmusopdfm1Dbi+Yf36ldEBFByvfJrLoDSifI1LUjLZGQlFRsL+GMDBYZMe6P0vlkdyDugdiUW+EAEXyLrJz7cmovtHC1wvquhtuIsRmjUONN/5IqqOb0flVR4ZZEDndByur5SRiTYyUxYg1BqDUAoaE1Ye0TYXPB6ooun50sejMOsg/vKKGTI1wr9t1rRkRlRlRcTldQ0+rd2nuLbq3stQRcE99ueuXbRtpr7vawDhF6aUHXugbqyirpouIcZH/ACRVEcvp/J8TboqJUCgUDmHK6vm6L7BqsgFS1Xy11U1r6jzzunxW4zDlr7Sigo2ons1LqIyIyIyK+epCMlBoauE2f7hwd3uaCntc0eFlNq3e1tuEXon7j1WDf5FcN3E2tzQ3shxKaJQYvE71BwduPyTHmWnvkCgUDnqWpX+jvndEroatwQW853WtXyK0rhNfZawuouoi9GRas7qxQic5dC3IaB2gJr8rd1lpPsbgeI7Wt/JcXJ6/tGIC/dzWBvfFK+HdkGM+0sM7ZRdn5F8Rs/xuzBQKByLVwg5A/SXQ3TWWT5Q1Pfr50/a/bdalrWoLUtSv23Td1BSyVBtHJhE0TRqRCMSIIyAQCAQarZHvk1t9PzpvuKlx9Igc/d7WBvHlNcWG7abGCNpo5WyC7fyDH2Xgv2goFBFt0W2V0HIFX88lEpsf34UkvsOzQtJV8yVS0E1VcsNNIEYXrouXTcumV0ymwOcm0JPLKFg5pqaJ0DGqOBkI0sVRRxTeqfCHs9DmluxsixAIBAIBWzb797m2QA9vOhmfAbso8UbN4Xfj+JR9SCQdwKDkDk5i4QcgfOJRUbPcqQ+ysrKytk1qpqR8/op8KijHimwCndxL8Nv/AIUfw6yI655sQDPDE7dFqLUQg1EKEIDKmxLpgNdHUNl9Oc0DJvVU4OW3MVsrK2TjtkUx3j7yvSgb+fZUGKFtmTfjz26gQnt0uI7gUCgci1FtldByv5N1dE5AI5O7QFRYZqs+RkekZz1TIOaisdL6ta13ysixNYnMTBbIuWopptuocTez1Q1bJuM8YpwLSDK61Im6upJPYRjxDyCF6UHX8m/cQsNxHpERyfj2JR9OolHkAoOyITmZAq6v5ZOm2bu2giEszAW7nJzw0XNTiZdtG5yJRIbugVfK2Tsr5Gp0u0kFakHKDEXxKnr2T7ZYzKLNZlqzc+yc++TBbySF6UDfsa67nDttbucFg9brHSf+O/EEemZr/Jug5Aqyc1WV0HIFX7rK2U/sonoG+RGYVNN0HtemvDv7jJ5zGzU2epdKfEZFrXKrZvEQm8DK6CJV0451Tv7hVJfQL2VlS0jpuIaZkPFVioj8Mb3l5Jda64V06T7LlX+zB5RC9KBvnUXYeoIahsiLT7dT76wVqGUjtIv2teYnBwp6gTsa9v458RR3jY7yw5B2RaixcIOQctSv3FS+IJhQN1q+6LEbhA5U9W+n9MGJRy+qekZN6p8OezdpCCq6Xqbtgnt4XXyurq+ctRp2UVJ1DreNkxpebClwu28s1QynHiqsQfUbZ3Tn2ReTlxzu5NYgPLIXpQKuipqT3Y2rfFs9tYxyuwrYIyNapXmYhrewrDqw0z0DfcfjeKxdSnkHmAoOV1ZFiLMg5ByDlfO6IupWkLVdByDstX3RYuEHZU9ZJB6YMUjk9c1KyYXM2GvZuxTRal4mcMqRwdSurp0ganTOl9MMFk0WVNRPqN1T0zIG+GqxYN8MT3l5u5XV06TPV9msQareaQgdCGuVwzcwOT6JpXyP2+Ucm0n3a0N47CmmxBWGVnQeaZ/429uoEJ7dLnDzLoOQcrotRYnMXCDkHK6ur5EXUsCuWJst0HIOX/rV91ZcK+UFVJT+iHFY5P8AJNTMnFzLhzm+h8YPL6daC309SRapChBq9TIUxhPhbTYcG7yT1LKYXfVVz6nm6urousnOvlxzu5NYgPoHBMdpyt5ZyrR/hesJr/mWaXfjeKR9OokHm3WpByDsi1OYi1XQcg5aldXyfGCpILISFvLJAeA5Byt9tVucuFqyhqnweiHGI5NpnwNnF1Jh5/43Cxs7Q1aGq4aoKJ0vidDA2Nu1VjIb4YHSajc3V0EX/bLX9msQarfROao3+xyH28ufenjKgmdA8PbTVDahge38a+IY7SMf591dByDsixOYi1XQK1K6vla6fCCnwkJsxHLJA7gOV1p+17c3y4WrKGpfTm8cGNsk2n0xVA2OFNQwhqbRRw7qbE6eBVmIy1Z8SuhuvSi6+RNud3JrEB9IU4JjtWyAsnbWPl80z8sHrehJoP418Qx3iDvoQUHIOV1ZFicxWV1dXV1fIhPhunRlqbORyyQHgFAotBRBCv2WVk2ombwauco6n+rSAtSumsRdbjIyf6tamtQ+mIRFkx2pPFwUw3A8qLeKcZ4bUfMQtd+NV8PVgkb9HdByDldWRYixWtldXV1fItunxIssmzkcslDldAotBRjIRy1LWta1lasmtugA1E3yLtKuXprUB9SQvSVe6pz4PKpN+q3P4dl/yR/jR3VVF0pZG/R3V0HK+RCcxFitldX7C1PjRbZNmc1MmBV8jvy6Me2gqx7NS15mT2AamtQH1ZCB0ql9HlUX+QIi18sCdaot+N49Q3/vt+kugUHIHItRYixWyur9haixFqbK5qbOCr9hzugtYaiS5AIBD60hRm23lU7tMjCqlumR4ywY/wDyWfjZF+cVw00rtTfpLoFakHK+RCLEWK2V+whEItWlAlvHWK6y6gWsLVlfIBAIBD69wTHX8rEB/c1ZYP8A/ZZ+OSRtkaWuxLDjSO7LrUFf6C6ugUHK+RCLUWLT3EIhWVlZWVs7KyAQCAVvryimu1eTVC8UL8sG/wDss/Ha5odBLfJ0quXIRprEGotI+hBV0Cr5EItRYixWt2FWztlZWQCAQH1Gsv8AT0wrlvPkFelXv5DR1KaQZYR/9mP8dq/8MmVkWBBq05NV0QCrfQ3V1dXysi1aUY0WZ2VsrKysrKyt9QB1N3L5bo2c+qphKdbL6PJITTp8jDd5DGXN0kg0DtE8R/HZGamuCezQ4tPaAiEVdXV1fz7q6BV1fOysi1GNFudlZWVvqDUMCa4O4tZUDoyPDK75Vr2iacy2CO+3lOCY7274pOk5rliseiYkMdpc0prrgH8dx2h0nrNyGQCARCIRCOV0HK/n3V1dXV+0hFqLVdXV/qK1xaza6ilLFFMJE0lh1Nc4u3LKJnQdK59xuGvDuPJcE11++p/vUsUmWGS9SCM/jr2B4LXYlhxo3ZDIJqIRCIRHaCr+fdXV1dX7SEW53V1dX+kewPFjPTmI5MkLVDPrRCpao052qaRpb1oHNLfE2OQP8koi26Bv3YadYmgJFtlgEt2vZ+PTQtmaWOr6F1G+xyCYEU5P2Cf7BFvPbdA+dfK+d+4hWyuroFXV/o3MDxY1FMYVdMfZQVGtFU1S6ndcVNK17evC9mnxNjk1jySF6T3U03Ska9YpB0ZjbCJulO38fqqZlSwsdUwOp3ljkE0ZPTuQF9yrbIohFtlfMOV7q3m3zur9tlZEK2V0CgVf6Mi+xqaUxbhNfZQVGrYqnqHU7tTaimbK3rQSR28TYptfkuCBt3Tf/JpGvQNrEU0omjY/8fxuk60esJgz5KvyURYWRCO6tk4DK+YcrgrT511fyCEQrZAoFXV/oiLqqpNHiaE1yp6m+xsoKh1O7U2enbO0zQyR/wAmwz6/Jc1NPbhUoEhjdUQGB7mHAKi4dEfx5zQ5rrkWJUYyJsneEJw4aiFzm42XPL5fsy+V1fIOVwVp+msrIjK6BQKBV/oqqj0+JqDlT1PsVDO6B2ps0DapvVhli/k2GfVsfIc1A37L23GIt+ZhjqW0k/y8jXppvuPx2tl6MMjkwIDJ32T/ABOARVkcnP8AYHwblzi9MjsrZc5A5hy2KLfNv5NkQrZXV0Cr/RVVJ/JiBVPU+xUUzoHamywtq2mWKWH+TYJ9Wx8ghc9mESg64HVMBp3uYcEq9bOmfx3HZdMbWKNubXai5O2Vsii4v4e8R7ANMm5DNKsibLTq54CI9k11+0OWxRb9LZWVsw5Aq6v9DVUl/E1AqnqbbHlRyOhcHNkibWt6kc0PuIKi+x7yERbsY8sIcMQj+dgbOylqPl5GvEcge0OH45i03WnITRncwvcg8ORCc6yI1buln/i2OD3NlZF320J3ATvspJPtG23eHrZyLfpbIhWyugVf6KqpNXiagVT1GnYjdRyOicHNfG2uGuOeC+4gn/i7vIXHZg9V039J2I0ny0hCwSst/Yd+N1M3Rje8s33Obmh3Lqce3jYuuE57peI4NOR2R8StYWTvZONk9+rYMjsreSHrZyLbfS2VswUCgVf6CqpNfibwgVBUaUCCmOMbtTXNbXjU2eC6gn/i7vcO239TpluwrD6wVMYP43jc3piDR2OdbdaldOYHINtwyS+ziEW+7j9keU9+m63lKayyt5N1fIPWzkW2+ksiFbK6BQP0NVS9TcEWQKgqNCB1JrjGbghuIC4np7qGf+Lu9w7MLq/l5Qsboum7rNoKv5WS6a7ULj8Yc/QCS+TryOeRm91hdEcNB3cgeTm5ocvFHx1mlGUcp032bFq3dp8n7ZkZXy1q4Kt9IQrZ3QKur+fU03U3BFkCqeo0IEOTSWEEeHEAp6e+ygc+xBa8Hvc3sw+YVkBjfUwGB7mHBK3/AIHfjGNT6IwxMGblJuQF73Q4JHCtk54aRkWArohCMBW8l3BTsj9l77+25GV8tS1fSWRCtkCgUCr+fVU3VFwRp2IKgqCxNcHboHSbioqBUtaS6TTsL33TJNW3e4Z0FT8tKHLGKTrRiRrHlhDhR1QqIw4fi9dN153FDO/ur8lWOna/2Tn+wfLo4jiLjd3mycFOy/8AK9lbfYfdWR37LrV9JZWyugUCgfPqabqojTsQVSyOvYccvlvxmyS+x7iM8HquqzpuxGl+WlIWF1ny8lj+LVs3Rie5RhDJxT9hsW7BcrhOfq4fLfwsigtlZX3tlx5TxsVyGnP37LXTzci3bdXV/orZ3QKur+dVU4l3UVAXbuGmAWDnF3b/AO45PY9pCItlTVBp5GvFXA2uhGki2xwis60eg/iuOS7MjTM73KkF1yi4Dl7v9i503EUIbnq1cNFtkPcqY2ahv5UfpIztkV/5LnF+wbHZWVlZW7LrUg76GytldByBV/NEwKvdEXT2dPuuo322PaQuMsFrLHouxqj6buqKSoNPI14Y4PAI/FMQl6srim5xu3kCKMoT5NO7gwzHdkYauUTbnd6C9kSGjf8AzFDyr6XXRFuwkMW8iayytmd0FbZFtuy61LUr+fZWzBQKv5d09ukqKXSgbohPj0dwUT77HtcMmuLSCInNr4N5YjE5zDglXe8J/E6mToxvemm4ugrolTDQ7WBIHKWcD0xwl27gNOTnaUG33I91wFJIGBNYZNy1tvLcLph1BFcp8mjgMLtyB2FAL7o8L3VrrRlbO6D0D59lbIFAoFX8glFyc7KOTSmu1ZSRadx23t4kDfuc3LBKjTJ01jlNbTKIpDG4PbBOJ42vb+JY/NpjaxRnYq61IuyfD9mQWTDfgovPsG23PsuApZ7bCOG+7gPNN2nUDMjI48MityB22XuvurcL3VtlZFt0RZWVs7oPQd51lbK6BQPeU5OKJV0190yTSmP1ZSx23HZdRO0nSpJdKbwL9jmqKTpva5V0fWhkGWCVfTd0j+JY1N1JyEw2QRyvmWFm7WTA8oiwT36bJ8xfs2KHSrefZWTDqF1bybK2cztxaysrKytmHIP84jMFXV+0pycEUcmSfdj9KY/Vk8aD2cp13bNjhtue54soDqijT26XOCaS03FJU/MxNd+IvcGAkyP1uLkEB9vUi3tfGHItc3g610C7lkQb9BbMXiJXWC1hbLbsutQRlCM6MzitDnJkFtzZWVkQtKLVbMGyD0D2XV++yOQKBQPaU5qe1EZxvuo36UDdSM1hD7Zf+7a0zbyCLrCK3U0xPkOpzjlg9V0pNB/EMWl6cD8gmJzNS1eznMVu2yt5Yzt2HbMxhdELoLoldJ66b103rouXy5XyyELQtNs7KysrKy0rSi1ac7oSIPv5dlbIFAq/aQnNT2ojNrrqnk9sp228SvZBl9yAh5Ny3dudBVfMxNd+IfEMmzGZNQyIvzuxFoO4Lbee47FN4b2jKX0lN3A+lsrLStKLEW9geQmyeXbIIFX7SE5qcxEZMNkDZMfqCll9g1lkB5tssIqujLpP4fjkmqeyCb22923D05lsr+YRdQm7bZFXWoK+VQbNsmiwH09lZWWlFiLFbMOshL9w6/kkZgq/aQnNT2KyAQTNR2DI7Ieb79mG1PzMQP4fiDtc8pQTO4i61W9To78Wtlfy3gg6mtkDs7ZOlDUwdV2o/VWVlpRYixWzumyoPurq/kgoHtIRanRoMTWIDzibKPe57MKqehKAfw6beR6am+Rp+1Rg50gskiLDY+Y6K68bV1ius5Xe5Mp/9gPr7ItRjRb2CQhNkBV+4q2QKBQ7dK0IDz3O6h0gduHVPXiaT+GO4KdyU1DyaTFHR+F7o4a1qrMIfFu0i2V1f/r7ItRYi3sD7Jsl1fttndA/SEpzzJsGt092ET9KXT+Gu4KPqKb5cczojdtLiwf4ZKnD4qndVWGSQK2V1f8A6i/fZFqLEW9gfZNkV+yytkCgUD9C52lEmVOcIgopRJ3A6dxBJ1WNd+GzN0yPCb5tPWSQemnxSOXZ9ThcVRuKnCZYVbK6v/2FkWLT2NfZNlV87K2QKBQPnvk0q2vl8oZsmQ38T3x+4jfq7sHN4B+G4vD0qglN8+Cslg9MGMMftJNRwVYuqjAnt/xyQPi9Surq6ur9l/8AqSEWojsa+ybLdXzIyugUCr+WSny+wa33LpL+FkUIZvm9nuI36uwmywuMxwMv+GYnRfNR7A22N1fz4qh8O7IcacP8kdXDUbKfCYZFLgbx6JaOWL1K6urq6urq6urq6urq6vlf/oSFpVuxr7Jsl87ZhyBQPkk2TpC7gNsrmbZrGBnAUtC2Fnjmpnw21p7fcMdqyLrLDKA1JEj/AMOxHCm1XjZIx8B0vDlf6GKtli9MWN//ANGYjDIjTxTcyYPTu4dgI/i7A5vZ2E1LUaGdq6EgWh6sc7q6urq6urq6urq/Zf6ohWVuxslkH3ytmCgUD3vk0okyIkRjcMMu7gLKGB0xIZBTh46bp4XTua9lZrFOevkxu+pOd7KhwbVaScC34hUUzKhtpK3BpKfxRhyBV/omyOZ6WYlMxNxl/u3GWe4xaFDFIShXxL5thXWYVrartK0ArQ1fLtKFHH7mggRw+kRwymX9IgPH9DZ7HAnezsDnCdhVQE6jmbyWkc3+ssiFbsbKr3Vsw5ByBV87p89uA3Vy+TTsGQ+7lSxCWRrHRt30NNUZG6xV1kU7dTXPLuSbIN9y0OlcGR0GFtpvE78TrcIjqfEKmkkpDZ4cr/XXKEjghUyhNxGoahi9QEMam9xjX3bjER5ZidMUyvhPp6/U4s5Phjd6nYdSHl+D059JwG/pfgUw4fhlQxOje3n6aysrdgKEqvndByD1qRlARe6RNZZGQv8ACyOIR5R0bR/mbRHplpxGztE8ctfq0vai72AbpVNTPrDZlJRspW2Z+KvYHizq3AiPFBctNnByv/07ZXs4ZidQzhuOVA5GOu/kzGYD6m4hSu4ZOHejx+74YX+p+FUr0/AWn0SYDUN9MlHNF6vo7KysrZ0WHTVXpmwyJrbNmwqaJms6lqWteIpsSNmDfxTprQ3hrNSgo4w4xTRUgAdEnmbDn2EkmouIV9XGzAqHDXVXjfHG2Joaz8YrKCKqHirMMlpN0Hq//WxVMsXoZjdQ3lmPD+ceJ00iYWv9F5Gp7GSet+E0z0/AB/CTBqhifC9nq+hsqfDpaj002GQwbvtJOp6+no+KuvlqT4kGoNQapH9NMhL/ABPWk2uqODpO6bo3jemnqnbWmkqHy213sgNfOq2woMH4kn/G7KuwNsviiljfAdMgKv8A9fwosRni4Zj0n848Zp3+qOaGX0dNzUXH3dBE71Pwmken/D4/45sHqIt05jm8+UATxBg80m5gw2GBGNxF3T4nT0/oq8SmqebKyAQag1AIsvnT1zoRpLJo5I/7NZUCoIcnPLuXOsms93NDpXaI6DC203iP49PTMnbpfW4I+HxR6rbLV/2cNZLD6I8fnb6o8chd62VdPL6enfjcI78vo4H+p+Bwv9Dvh+T+LsKqGmydE9nOkoRuKZQTv4jwSQ+qLBoWeqKEM2jlljh3lmx0N2gnq5aj19oQzI7S72DW6VS0klY6zKOiZSt0s/Ia3C4qlVeHS0h3Dlf/ALVkr4/TFjVTGmfEH+8eLUsia6OT0GJwXiCMhOQv7aHFSVMEXrlx2Jn+KfGaibZHfvCCBQOZGe7+NmBUOGPqvHJHEGANb+R2uqzA45fFHUUctKfGHK6v9ZfK6urq6urq6v2WVvNjqZYvQzGapqHxBUI4/UlOxmqKknfL6/MCCGZC0F3JPs3D8Ht/cn/J3NDhY1eAxyXMVRQzU3r1LUrq/bdX+g0ldNy6L18vIvlpV8rKvlpV8vIjE9aDldXV1qWpalqV8rK31YQQQObGPndojw/C2Uu5/KrXVTg8E+6qMAmZ6JIZItn6lqWpXV1fvbBI/hmE1L0zAKg8t+Gnfyb8Nx+4+HqcIYHShDC6cIUcIQp2IRtWkK3dZaAjAwo0MJRwqnKdgVMU74ch9nfDQ9n/AA3KOH4FUtTsNqGcuhkbzey1rWtSvnZW+mGWqypKR9afDS0rKZuln5cWh3M2EU0vMvw3H/B3w3L7O+H6kL+hVS/oNUh8PVBTfhuT3Z8Mj+TPh6nHLMIpmcNpo28fXOgjdy7Dad/L8CpSn/DcHs74ZH8XfDUns74eqBw7BKpqdh1S1GnmCs5arLWtYWoK/l3WpalqQeuqFQ4Q+os+WKMRgNb+pNIRgYU6hhdycJpijglKU74fpjwfhqFH4aYj8M/Y/DL074bmR+Hahf0CqX9Dq0cGqwv6ZVBGgqV8pOvlJ0zC6p/EHw7M7/JSYTDTbj/8cD//xAAmEQACAgIBAgYDAQAAAAAAAAABEQACA2AQEjAEICExcJAFE6Cw/9oACAECAQEIAPq6ceuZMy9B1GVykGAsauooo/SXLPOMuurvgwj0lvfnHVV1u+AtgYrSnhy2fjI+Rx6ydeOuv4vUXdWnjld1cPTB3Ry+Rw9Mfbeog8HlQzrhuB7+Rx6qIYBDTqClLp0OtGLjLT2uK3Fqiw1xSlv15LYjrviQunIK3Fq1sNcz1eK08JnYNDrlw6mY8nRkBgswxrh/H4iXK1FQh31/mvv+0x68ou0449cUUXkcceuKKLhxx68p08OdUf24/wD/xAAoEQACAgIBAwMDBQAAAAAAAAABAgMEABFgBRASBiGQExSwICMyQVH/2gAIAQMBAQgA+LoLhiOt8cpUFk0z/RjHss9BJFJEkZRyvGgNnWVIwsXe8mrDcaX+QyEftjXa7KHsMRxn+8p9VQjwd70C+5m63EFIjJ2dnje/mX1+lU8jrDUIG8WlI4JTjaD3wtvEtPBKJEt11ZVsxcaQADGk/wAyjOpZq0s1ZoZGjbjPke4OjsW4fuacV5OO9EcTCei9io0EzxNxzpdj6V6Fs9QdNKutpOOV38Z42y7SFqo8ePEUZkbje9YnrG/GgjEtlpnaR/xtuvwPW++uP7zy76+XL//EAD0QAAEBAwoDBwMCBQQDAAAAAAEAAjFBEBEgITBAUWBwkQNQgRIiQmFxobEyUuHw8WKCksHREzOisCNDcv/aAAgBAQAJPwL/AKRQzIzpg/CY90/DTQzKtBNIyCR40yKqVdj9JejPIUZ0ygE1MuIV3vZHppKZlULUzJs76WVnBG5lbJkITHGSOkT8bz0UGtIepsnqqgFWnfFl4iNIKha1lVKuXCjjRhPo/tZwscbGM+ju1vCkV4rHwp40b2usZPCbB8jjpCZBQrFj4TJEUvdGhHRlwuUaEVsqljZQOjHWzZTKFKEsUUEa8FEWXi0XfC3dY1qpVmUTqrypRKhou4W7w6TypFCjVSrQARnVWisY3HGkK01P5aRboz2nlSxoVpk3ByfohUq0aMbHCzNyjodWUbq67RUFDQyso2WFlWhN1RpmkJvNb46KmvBCYX6uUUehwTxon9R9uQuElfwq/hV0PqZ97KOhEAo3SMgQkrQsXUBL9LShTdJDQcTlopoD3Rnu7rWNF4rFDpRedCXy/TdHSlGSsWJsd5Qn6FukceRPVVg8wVZxnQ0Mwkeyb9GiK5KqTsYJ+OhonMsb++g6kzOV3jhDQ+IT8FHkO9h3RhFCbQ+BTwjJC6wkhRxsnfcq2vuOi2N6eZKrF4d56K+agsaTKZuBtoJ8dFYwjQE58kez5RQn9aAQkhenRCcdEnmVmdTjqpz1TM1i8WYuHTSDGSN7+oP0e3oQvToqOjm1F4vfTRsV8hgnx08+lp+kUL29nSmFzgo6edNIIWQuFUkFHR/C++J2j+FxNo8KMjWjpRCde/E5RkM4wVWjriul6ghNNQaQnlhoz9QcoXeNMKpV/KL1HRoVh/IXrDRv6Wva9v0hioXt8kEySmZtHfC+/VsfGj0VC7RsKxgu7o7DkGy8Q0biFDkH2jRzxC/xI0d8Jv8ADR2Iv8Bo9jfonR6Iv2GncSFDR7w33HSDG+eFn50ghUb5E/GkEQoXuOkLmr3ADSHw3rHSKIvUAdI8fnTzxD408xN58Q0j8JF5x0jiLzAjSTG8/aNI43mDjpHD+16rZ+NI4G9eF2kJWAvUQdHyqkb3josJ1Mpkyqk0jJWUb9honWaJoNcgw0RrOCqFi/kMDoeVUNOTMt0eWxGhlZR5fGfQqs4KoYSidM97h+FCbth3LIKOg5VQ96AmDSf21/7GZiv9zhmaxfjyRxdoKZlujPKzMGi9eNh/mFFx80J2OIHeYQ7IZcLCvk7w/QOsoyxRnBiqwDsj/tcT2cndp6PMHR0BNeCqGEonKcVwuyGS9eJicIdqfmkP7Z+MyqGNA/TBCaeookkNv+1cTtloOVUwm5r9xz7ujPRc0jX26lUGhXzeM+fHYWBn5u5l+fHM5ANaHVGeRoKtMIBFNlNndNlVoTI5u+42NXOTMmjJGiZkFGUz+qZm9K01mv7jZOomZM1Ywt3X7azqQ6oz2DW9aZmTWaMbcTzqoYc4M9A0IUTP6run2zNEZJKNqZkOoRnzH582ZnQ7XpdGUzamZDqjPmGB5WzVi5BBCiZGQ5CYSDqj2vlVchMyqazBhyYdYIds4n+ynZ9CuID6iZHteUFvCyFQRoCdGfyjyLo1l/BQPJP6VUJX4J2Fo9Vo9KEeROgcMv4/PI/1NKZlV53EzhVHCR93haPDsveJn45HBVgpntXN2K3VZxgnm79aBsIZegfnkh6QXcPsh/MF3hK9VGx2l/pVXkqmcKe10CqU0hp/SXjLuHxyY9F3T7IT/wAQXeHvQqpPkqZxX9UVX/En3moCiUUbDHu5ciFA8nPSCHZOIch2v4g9Gf5QrVaMpnkC7x+2C6MqpnDlUWfipfUz76CmZCb+IKZsYhGfyL0K5BJ3Wfn0XdZ+4r+pV8rg0U8ZciOSVU2pkzN/EE0y2EyehQO6AHmUf9RpO+0O5bBoSOay3A8mqsGzumzujPy/AS9ctYZV87KLBl9ctwJyp52UZYsnLfXlFXNsVjJ55c+g+2XvEBJ55crBX0lxy75iTzy7gckOxXzdPAQZPPLv2nI+0g7TJmrEER3g5ydcvGyQoLHLsQoHIhlqM3eBc0j/APM9c3l6YITAQFzgU5utQIUcuuL8jwkO0Lo9ioyYZdrBX0FxyG6i4vGKrZw+1bXLxCSGXnFOLjkN1HqMV9MWftubmq1HMEMhuo7Yp0WftuX1cKoyRGX3sU489dR/dfzM4XF3EE3+FBQdl/DIu1H90/xMJ6fb/wAyhl/DI21L6h9TH+E+3c2oJ7GXvEaEKLshvVTcWU9PtXhPD5I5dczQjQ2pP50+iZlVxA9nFPtvpb+U4uXTLkAo2jlHnj6L1VxIjFVEW31sp4KfHLfqclvpVcUB33Koi1c09OaenF+WoKNGNJ2QX0quKP8AkqiELSD1BdMsvbs43KCjHmD6TPfi1jJun2Top7PwnhdcsOFQsn3KCjzJ9L9eq/Xov2X72T2fhOLl9LWXapXY3LCWHM3qqTZfr0X69V+vRfhflb2MF6smR7GWoUXUN7aHOXS/mT8r8WUXJzUkcq4/FDGwdQdZx505fsvyV+AvyV+Ao7qFhBRf5FQK6ZUgFiaHW8PEr+cfmT8lfgL91Cxc0vQp4Ucp+I2Qyf8AgL8lfsvyZHQsIFYfFcjmsp+HkGPOvyV+F+vVb/4QT7D7QoFQXXKMFE8gdKeb/uv16L9eqdZPZFXookyObyjGqjvfzSKPMX3B8crVi5YZUc1lCAvEKccnPD8n45tc1k/E2ZnOGXXUnh+TsbOse6r84rvDMLmsnYm0MyqOMFUcQhOPLK7rCCiMm4m2PSC7p9lUcQhOMqvWyen0oE5Nc1cD0gu78IdQjOhNlJ8r6Ucm/Uy5PuJmQn80R6FDsozpk/OTahjK33j4UJp6X0fOT6mvlCa5tdHpnqE1umQ0p2VxEQUymCmTsmTshkF0jsJIIdjiBxxX1svZPkvqLVQo/wBP+cohd5n3upmTU6ZBTHui0uJ7LihcRlNsosbhdjcLs7hMMbrhBcFcEpkqdNlcVNhTJmdMFDmL1WZKp13eLw/+SZn7P1MF4U4bRnlE5VbeOVO61ih1hyElNndcQpr2QB6LhDpUmCOs6JHRcbdcRkoArhJiZEhcTdTFMIHlO63kPZ7X0mCr7NbLQRXd4kTjQd9y3icrCdf0oTEQ5S0R1TZUx6LhhMEe64k3qFxWT/MhP7rhhAsribqZr0KYI6XqofcXJolqLUFNNsadQlHeLjAprtM4H6mUavZVTwk3kqY9yhMMsivFVs48vbI6ohr1C4WxTRZ9U2D1kYB6IFn0K4m6E/omSOlzFWK759lUzsF32kelLaRyrZ4oeoHutYKriMOaHiRnmkctl0Zy73ThBCY8ybPymQUCz7hcUfCEnDB6IFn0K4u6Zn9K0JrTujzQ7R813Rsv/IfZGYYCyHaZwRmaYrAKExjQrKrbxy+J13hhHmrZHWrZTNJgs+i4m6rlY/smiPVNBMJkyA7JgogLvJmZNzJnqU1P8XB6d9y6nHMVRxCrGI5uZk1P6rhbGZEs+q4jJ6oShD2k4o6VpjteZqR7I8ri7GSpj3KEwGZe6fZDrDnTZHVN+y7Oym2Tfsmiet02T/tzT3DhBM9YXoIHZMnZMHZMHZMHZMHZMHZMnZDlonK7zeObB2T5I9pMkWrBPRcM/CmCbTZU56plcMJgJkbIIWATITATATPuiVxE0EJ+q4Z+UyduRVMxaX75wY2qTZHumwpimfdAbqZNhcTYItHquGPlMDa/sjZcMJibqmmguL7LiBTFM+64ZTB2QO127rOEShMBpKEyEwFwwmPdT7poriFcRcRNhEKbdM+6Y91wiuE1suGdlwzsuGetSa7KE5xP/Tg//8QALRAAAgEDAgQFBQEBAQEAAAAAAAERECExQVEgYXGRMIGhscFgcNHh8PFAULD/2gAIAQEAAT8h/wDiJsuiR8RoVzOrQkze3YmWyvtpd1dRhG+gfYeThyVhKvd5uWYJNjFgPZOlhbj1rP7Y7lballt+pdl5ep0gaczN3HQSrQmNWjUNFyfJbcxOWQkSyleZvFyF/nZod6iPskRgVaUE7jzLtS+0tlQS3VNWSy2/M0O4Tc/2OeReolRFUxKlEjiULZ/PA+ScNambshq9wyGPDUJ48evU85hfaO3L+Wpfu5aIymO6DRQt2SaM0xJvDam3CIbql6WQiKknkT75aKxZPd9wihdoX+RDsue46Qsv2ivxzbOgmW27s2h4J6G9SluYwSZ4MejbGxDziSZuKzQ3UL2HEhootJHRCIXkJCiuSrVsxiswP7QLVtuEhzZL+YHOQi7HUREeRzQu3LFj2hvvqI79tjwuRJtk9WaofbCGTUPlMJk0ZMuZHvH7faSRGF0JD6HR/I1LdHEfKNaiEFE8vMBkj6jJJV9xbTcEG3j6mGUt2Y/Am+hufcvKhHQCZc55nvOG4bvR9nu1Rasn7bTQuC0hUJSOkhHNGtwIxaHjOCASkyU8XM5MEitid5ORrUWs5MQ9WfD4dKaJ3J+zmqB41MemX9qO1BpLjayG3yrbV0Qk7EWTkSj3JhSUNQ43JxqRHrLlScncsiVsjEwgh46NCUJ7+j/pE54IVYDoUv4+zepfTcPD8+glNKCL/eYizUS1dxh6DXMA0Iawa55dHnmDUkjFwZy2jUF3qJ+Yiw8iy1AsMvo6qppf0Hs3LZf6z9mm4WXqeX0tiQgGYMLLIBkbifCNkXSw/wBczeOjkRDILY1hHUIu6B79RY6M9dEKvwMwDdVUeV0JFyCGalT0Ezz6COJsLFZOygziee9G6EaELNH2YUkvCHMXJcyWNU3Y3TkJgY5liWkiZnTKgJzZLkPQNDkjcNiOWCt5Dt1FyPYXBgpBivsuOuahojqE9SWnSGKnmboc8PMbDSy9RUeGmSCf2Y4LvUPYQkInUl/Ind4FoTvpRB/DX6EW4lJgJwydyJZuv8E7GzIGQx3DVy3MExT30G0kIWle7L0zaAsXkxXg1M2hJK9BZElzRO+Z9l1v18BJltXkUQKjJJ3jRYVQLa6smQX7XEuQia7PU302GQQSM2Y1KXljyoZ1YhpQT2ZHQayJiS9tITNjwtkXcmCxyIrF7jTSZJkSthiuSNR6QpVhF9lm4Usa+QQghRsV9cPKEw5PQTyZZMeSmpLGCfKJSa2LQF5gjsAIzCY1kSExrbAhiTmxLfnTQg16EXG7zNChuKd8vcSiGNybDE77iKKYyTOtYUmyCx3PspPCES5S4lmuvVfWXKTpMh6Zi5JFroFWv9G5COYto5CyYdNomi8xamXmXk8idHaNzcbgThcc+lqQkYhIO2Wy6EO8MGaILtAsHeqZw/sijl4W7ZPJl7jLwJOuqN8EHMRYCln6C5G6EqPdTz/LEEmqLvsZYGoE+QnHcNRY3NbkYGhMFiNyUNbcSKD3Y2o2rRYo0R0iNcv1JmZCPtYaDdBb7MiZys/Y5BLQWrJ1L1aDuZvYvwIWdaaGOhpSx5DFVqbEO5kiDT0R5W6EvYEqmtRKDa0MiKm9x7EvkLJcjVYOWH8qZ3QrN1RsihZRgsXR5ZCWaROWCNTnyIsApk4ENHrZ+X2MbVzsia+GH8zctETEtnsFV/rMapNGc4CayQM9zEJXoODuabyjPYEcpi2WcqDIxDGtCY0oxaG6MYvC4iZYKUudCeCBm9DmG7iipt7i08Ic3ZGRaiOHmK/2KsfRaG02ywTVKkdWXGGa/ZwxWNEkVBNyzvsaEuaYNOnM5D1ZToRBBI2ldm+hbxnk0O+Bc5OQtUGnTyHnydCUEmjWa6KEGouC0MnJll6HkIeIcmYdC+xHpsZJ3kBG8mjaoxyJDoWxU4srxuRUlpwzHItAiI31HIoWNB7NiLUdZZz1Mx0bGIrJLNd+jQQWRtlGFUNsULdoYHpvghTcY1Gkw6j9bzFzXB4FBrBG8qeNd6Decy9nUSVuRM5EzeZ6D7DwwDlslvUlnMLd3h7aF3Gxyy6yeJ8El6fA8mirHcb6R7whNzuySaO3k6/mSTs+QckY7kLTy3YU/wCoQW56GTh6HRpf2BqGyy1u+6/oaZzGlIckXKWqlJhqthwEV+YiJ3O8Ij7DJf4czOs1IR0rF3iK3W5ci3wHwKw2C23Ymo5A0Q8E+gQrbaqf4RwHrxt9y2kwhIFf2gbdF6DaVtYWoxODQlsFh7WCgepP9F8/V+Dm4J09UqawxoXRYLG93uaKlAFh/Z+w8UwgxssiankH8Rgl9H5J8K15WFkp2LRu7Wo6rHGLC8S3kOpxBzhXQSwg3QZPJA7lqQK2oncGDVKY6WCBDbR/YGlUKXA5paHuIi7+5EU2jmf4RuV2ENRQBGq0NbDSXkUsd9kMUmpKJ+w1fMWCoY5ORoMRalMeu+2m1KQlOmGMk2WRIGsiRPwE0SDRKhCkvHoIIk0G7td7Gev2SEtSwVajMfeIQYTXmbEwrEBjPPQQVE07MXmN83+DU3fdjThByQZiwn3uMeWg3hJcKE0IvRuiZ6m4u5/YdIBAPJnK5iw26NeD0Fq2wy1dAYiVGwhE1mkmFZLRcy2NS5NRjwNoVmOhhdl1QnSbf1iAt0yOT/kPUv6v0PVs9e41SFnnoTy/A4BI+r4Eqh2fyEtPVkRuLq5E2JR9iFyuwlNxJW8q9hde0D4PIchGqaEDhiQh6jw4pJiZJJJJJJI80iMu9g9kglyPNiJEK4FbDDJj0ZBK4PeQ3IiNaVJKRq8iGuXshjV7NiEnCFk7rRbCNbCUx688IjEXV9m5rc2Xy/sWoaUsoXJtWMLqSgoOoopRhfc9BjrO/clUtbmOLgCSSSeDI6CreopLGO1ih5lR1VOv4LRL1IPlHuNscCHZnOZ9G4Wlnmarzy0FchmiOSHdPCXzoRzYPL/IlElZLy+xkMhOek4ecQihZ3lk8op1mJVuUq0Q8pTPgAJJmiem9BkpX9IvntAnKQxiUEg7JCl5E4ShodC6hCtRNSkWsixokayvcblv3NUQvuL+CMxPsdLboRm29bE2aFKGSEHeNXfU5Rs8sGckGj19K4RQNDfGeggmMksaKW9/kSxjbhbdyHwoY0JF9hqu4QsP8EniLoiQ7eWg1jk2BMypdUjU2PLcjmvWPLb7I88C0ltR0iNbezL/AG006pXnCE0IIoNqSYNDe8JJ5jetmi+SvJnFGiZ/BDTuQtvd6MaTzalg+nFRtHwAp9kpbdPUcDcRF6Cedwl7B4DG7oCgRWQjlB88KhGWUEkkiCCZJ7BQL/Ux8jOLWW9hHmRGNm0m6ZUvmOeuSUcLMU2ZRHgas7CCVmQ0oSPShtZijo2Xn+/si1I14RurFr3vgwp/boOdqaa0dnSBuQnaJJid8wTXmtIhYSFsSKSFseUlENlYfPAyTrF1WOLmhrBE1EYbEtyG3QT0IWhbfdpLTJaMZSgtaL5CjUWWJC523l+hmUoUPf7IoYZc8wxiKRZXVmht7nbCAJeSpPViMV6FzoIXF/NyLTp7VsWgkvApwielYVoEryMfZci0WkhITFgp4EEEGjcEgmJs9nn8C+zUOF6AGcughC8NCORlye41pDpHKhjzkLLDXYdqyWcTw5E2ULYnRUkyZDWojkCv9v8AZqZbmClIM7IXoO8p7kGNpof/ALxEUVNbgxuiIxYshySTK8FJpeghCqtHR3X6Fi8kmfszZFlCON6UHRsruYlEiEqssd8qpjEMQE4D0Ni+iQZPrQ0RTgoVOYQhCJiC7/dPs0/hh7qzHvmDvxRmtzka5XmOiYwxkaMUGW9S0c6xUlGq0hCrNgW1meWw2f2hszTPmXfeiGExhMaGc473+CeFklQQVBpEJio7kNyPwYvtApjqhzZyHRMYQmXvy+BS4mJQWkFJCEKkqL5/OvtA0RvR3Xmed0QhhCHAuJakg1OQQhV6uLmtR4tllP7QQ+RJflWRhMTJJw80IuXE1PBM6khCFRvcMikc/wAftBKbipIKqYmKieXjloSX+hgH4KBWosIQ9QJtkdi7sSSVjKo8j2cO2/2f86KWakMIQmJkMkW4cDjz9B7kSa0XgpFTU9wlkcdBGBdXeISUaKfV2+z8A5xEBomNOiEJiExPhRPJtW84GfyTcL+8zlDeehLVkBxCIksQ8qjyZU15Gi8utnqTAxmi+zlwmNujD0dEs9aZiqExCETSeFoWk7DU0KjsPe34o1Jo3v6h0GTjEuxWZt4xWjnh/Z1Dsoaa62MMmrdOiGESSJkk8SCi0gHkQiA1WtQDJovSsccx0o5IMaUr0NCnK4olu406l3Jlf7MM2R/JD2Kh5LaiExMXgtCCiDRSQnwMkjv603FsgkdRsT0OTKx3WBB7CDXnn/H2antlVqJiEJi8FjQotdhMQtug0qa0PvIa8VmMeS3ES4EeDkUn2aZbu/3UQhMRPGxiCjRESCFS1v8AkOiyWTQfNx7h5C4MwY5l6k6ne32cx9J2M2DiEJi8JoQWqmJiL38X4K3SBNgECVuYUlQYHorX7Owab+jvQhUXgoIKPNB5QhMSDREXr5UWR4lEGYNZo6OBwvlCoTpTVn9nUlSkaY13qs+WghCrPGxoUUVBCpY6qZRdwLvNRZll6CWWVuvs5Gra+jEIRPgsYgpitKlsbCaJYnXFL22ulmMdD+zaW2sPZZZoTEIXgsQUaqkIyP2UWR7HE9mckPUv9nJRcTeasxCF4ToWhOkhOit1qtyRpXERSQS+zkOafqIQqLwHUUY44hFkbP51SxMuB7Hnu/s6reX0uK1noIXhsapShxCGpUDyk0xH4BrHJcX2dycvHEIXhoJShxCdLUefxRlrTE5q9jn9/Z1nJCYhC8NiUsccQhobf16qNNT5P5Jf7Osh89UQheEx1rRhCLkxOYdMB4lUZ0qPU5KF9nrazcqoQvBdRaHE64xs6MsqckJdvs+pG2qGtdLOjxRC8J1EpEJiosuldA0ox+0PYgZfsBCFReGKQPUixtz96oNIx+0LW1TofljNdhCfjB0uIRcwnMOrWhjzDff7Q2ru+YhVXgMfBHEKj9k0ZkNJa/JAP+b7Qx6ZcQhCF4D4ChyROlnNoy0c9lF9oVamRyNPSi8J8IYQhGE5qupOdHPtH10v3Unw3QvAITH7HR0dlpfaPku/Ci8YulhOlyYqMR1q+0fSKO/hujHQ66pkayjOZT6faPnQPFY6llCrZ5q+Xzv9o+YSRg9KIRNFxMdRDCFRZc4oznyOxzAS+0TOuL1vRf8AAiro86MwOePofaPb8h8Ko+Fj4QqtEtnVlkGfI8xfaKHLN6CqvCMdaFTDtVlg3GC+VCAyU8P7QtSc5PtlcC8E+DQhF6YsLpRjQE9zqGdD+0KD0tRT1UJ+ZFuFeAdL4uCuHSH7T7P2skaCd9RyXd1JK5Y4V4B8YRg+r4LSkdC/2VQS0IleqaGjgK5TC/xsfyn6jBp52MaPo5p+vFF2KijCId2vFOh8AhGfAvKHJho5tJ9kmqUvG5NfBouz+DUKRrK9aghK8MkhwIKDdxsM3xdmW49kaii8QMXDWVXSZ/FbfZGSl8l8kvfkImHmmkUE4hqa4Jep6DpdGtyLZ96LSZqGo8JjpfhD2pB7j7HyyDlqTHzw15Y9NwthhQpTExYBJQ5b9zoVsMOsCbmOa/gsdLFwEZcDF0k2rX2NjgTczp/vIfOd7kwTG5pZEMOBhMQkiWbxYCRjdHUcwsgaxa1cbHwlV09eDVT+BY+xcF/UmOv6I/WCjYM3ZaKjEKSJImIJjUSX1GsTRvgZC8JceGOFj4ghGPAlOgifYpM03IFgb5PArAYPTLexOy9YKbnsXy4BMCS9wQpHNGbkG7V6npYWwR2CrHwLA8tWRFeg01lVdD4FCpgxrKk9GAjXWRotkn7D2AeWrP3/AAnbjCkzSSl7DlSDi+uxCMtdTGEKxzd2JMDYaMMYZcIsJBSSOVrdiy19wktLQsPQmaVWOhiDQ6PDUZQaZqAxrjKdICqsDQhdDc7P9/YVihN2ZV+cu5HuPsQ1e0RTpMl1Cts3N1POfIibSoS6JuOOvaaWPU2zFZJXfuy5wg0JcfZYvUQRYwhrY204OfCNQPfgdRBjIGQJ0NRujAxhnNIaLBURMRw2fuQUmiRi67kVyf2CTBLfDnbQ0RBYK9YU7FJeoleo7GYB2c9gkKbm7Xe4lKXktvQZSnzbkSYZ3FyouzuHN7EJie9q21FsJHFag8ZoY+AdGiBogiiBNicUqHWCpGpdqEVB3rupPC7W1uj9CLl9gFOTQuSaly/yy8HaFUEgoN7xyTcMQSJ2tYNDWbzX9Jr3KWwpdnYSLN/YytjeTGl3kKh5QtznzcmeOTymM8GoqGOoxjRBBBBBBApmqEik1hmqoIyZny4mbnSX18tSieV6hj3mlvV08hFix5z3MJS+r/qG7IvcifwL+cWrDR4aCWQzkD3MjE2QqF1iF/ufp4WajGeBYJZUdXWCKQQTBISgylMnURIhpkM9A+GPLIF/XihXeDWRiQ5tmYhWTGEseg3A08xzkSpaxaSX8iRghexo2cyHdQm0NcpJYSheH7aEIfgNLvkuCOoxj4IIIGBIXYhmVJrsbl0oQqtJIYx0rtn+avIyZyHb8bv9dymt7jLYLqFJDUmr2iYMbHsEPfZoYXY7kMr+wmd7DXwe3Va4OyPmXi4ehMKrVmn4wajJFIIq3SCJLIdNdm1CoEuKJJklpo9hAf0nXS/HzEAQkrLaPrtqPZioqqXR3al6ytzWjVtZHPWcqW3Amom9hK+N6QmLiHnhTI1aF6qJBEkLc2hqsjqWPYXeyGiFxmFJkOyHah6InJlbtz4p+UIsI9htLJ85DGyEZci3b/0jJoTykYJehRSxkMR7hm2utFtfz5Qnlb8/q6XPX3CZFCgiq2nD20GqAu4Uyd8hzSiJ08Xpqu8LhkkNHlUsENJUOK0tQgSFwTQwvCm4M20tz+gMmjSXtyM7tyR3okQt58g3cM6CYWwQJs15ESYgz1wWs0+waD7DmjFxbBizOawIlC+WH9V2CgpmBUipSI4RhKvwsG2hpXanI63Ctc3eopOb8V3JVqnBT4JGOvkIkuzkHIgSrFDjQQbNU2mWiCxbkNNCZJNECxSUpCdlwLczIeGwwhP/AABYUohcyR37F8eEJwotki2Bu3UK6I1qfLUn6ngXV34BGhOKCKEjYjPZQVAt3wMTH5LQ8tl+d/FkbLEMzcPbgahIyR0fBlq7ITJFGqHUrGTdJOQzdkYwTeAxbjGMakiBMmuVREIkr9AJWBAhWy9hjaUU6FnIbfJe9TpDE0yUT5MZgeXArOVZ7rJtLsLbPnXCyWVyv9SwW3FwERI1AggimSQhWG/FkYbJHQNtAPYSOBMhbiLrbMSCKo6kbsbmrkGORMcbwJSQYHa0dEk15BobcXqi6WuSEcFs8pG5Tl2Jna+Y9NPMdSzyFkJcbSX7Ow639TYgw+o3oaifAdk2Rt1KmT4sjY2NjYzK1Cc7szAzkDKzNuIoDVjBoMTJkkkmhZXxuTmN6LqyBiK5o8jCjHIlyTYMrxCllFkXC1JFlp5MyLq6jlu69S8HkY9BHhTSNuiAmLbnsRHI9U/qGG29UxOrtQPCjWEJ8NsY3UZr9grIVhgtN0TGk8j22GnSeg0MjFoV2dqs8j9xoLE9g5JyaojvgaaJroLaatEQJdXZZl8ibYD2GWzUMYTpwquLq+Oz4siXmLUxLxvIGaPyIvo2j+oZqrInUphqaV6lTJ8KB0GIktbCJNEPhCXPYbxY3YeYyJLMosLvP/izkR94HyXoa6POWvVvI6bid1bgJOFdk3oiVkXSl8tV5Z4F0L93fJak7/kOErYSEUEiKhoO+40ku8oUkrx2JRW7HUTlSvp7nexzrOCRPgNyTUyhQRTJ8A6RkrVS3Y0QQQapCtU8an1FoSUGEqrHKdGrzLfZsY8zkIQGOqr1MmWyYnpHG4tlnfDN2d1nwQv2M1EWVBwJvcJuQLwC7yuwpZXgNiV8Ug5ivBP0958vdxITqiuS0LqiignxMaGiC/cyZomtIIEjEdLt3F63RihCStO/yRdby99ScvCxrCM0JQhDAy3Il+G1yS6FASWCy0ee+SKXrvhjGF9U9DmM9RsUWFmPqIfHIXeULWVwcty9aTRqRNhxSF2rN+62+nX4GQkTFRSDlRbIVYoTwQMMQWmzBoKRkkmsgfX6OzFCYKbJtlp1J5PpNl5U2onAdsUPPQJELiMuoTWJiNm8iLKyN343FO7Vya9nBgUsuSCjAcKZuciX7CjbuprwZyW8oWsqqL6OHIQ5uTJz2IrGPVCwk7iVgRHbWuBma9zW4WNn9Sr6RMTqVmTkReoVQmkkjUloljVYIHzOke4nXyRM4EPFhMhCJzgdza1bIh/4uYgm4/55kn5BnsbpsP7ySMrZuJXRRHQbkbgXau9h26hIRhIiDLeiuJjef8uKrbkXPkieXpPl0shhNU2JGXGxAQeHOS35Cd5kcWluJI+ZoZmgjPsK5E4IMggsC0rgYpdX9Fxapkp4e8/Tm/8AcvV4KpNURg6URLXAoqJEIFJi17MgzSXK3sW4xz0ZkQ8EModNlt90Q66sRxI8D27sdo9U7MhXUizvK2f5HnlcxI6iyWxhFq3ENa+6htLqfjctp1bLzJe67PIZny1bgbY2JT03Ho7yTJELxDJyQO0dxSJMojQ4GyFDjvMLYSOJJm9/kmbZXPj6cUz1DnyeGhVLcSU4ME1KiqEikNdGHpsKwztWI6OWhZhHsSOYpKV0eTHvk3kRaLkACAmn0ocNRdjJtIGvVyZDsx2tkMaehNyyHqlN6L5Hy9sOu5Pm+gW7oPzuchaSYospcb3I3e3/AAi0SkiHgyco/DNEyTlc9cx/kU3+nOeznv4kiCqVNMlowFlRQVB0VtyLfcjKvLWsQ1R7DbDHsSNIlhIMdy/k07GYPyPMiOX1BSX2F+xiImjUMk0IA+UFa6g89AcnFWcj6sk+/wDgYxsnq3JfShp95Mka6bj0d5IRC/4TVKCky2fCMTlV73Mgr3H/AFn6PVP6b6OfbxZJEFTyESTUYBQooIoSNKAwJvf3PgGtBGGro0G3zCkOCWLxsks9r8jLZ/cnkWHEj+Edmg3fTJZPvpFjvguLC4wPyK1EhbLOw7Oit57E5ail/wAaUWXHgSHl/F/CY11n70ZI/G/pv+fp8OazRPgDUy6st0IIoqlIliQ0Nz+5lXlrVcBcaXK3RBjpdjckrqzPlCLGzTJZ1ORAgrIuGO7sjC7yTm7LcmtZzJSAQX/MTJRCIlyJ/wAl4Xm47OkxgnLKt5PprtU8vFngkTFWakOVabiYEUVUUJR53OjCMVLoPmYK69RhkkSJ0mzJGsjO3Y/OisrvYbF+1WQv+ilyISLJMnJ+7wrH+WuIZ6Mnt9NZExzn+U+DNZ4JESIKmRmSWpNkTAghJIxTovGZujV4ezpTI4pNUgYNeg09iCwkWgmEzm7Lcc9Fb6vgAQhC/wCaCcbMT1e7wrl7GvQmJs2MYv8Agv8ATb4J6fnx54JExcBHJJWnEmBUE6O5NWMW55MzouGxjdDGhC8fOP0GkuvIJCQkL/oap5fwujA6vRkXS9v02tWrk9BxVPqvHmk1kVCqBUy1JuiRCeIxjIBa6T9BJqqTYNCUKGEXfA4gkIS/62qOO8rwZi5YJqxn8/L6cWPqUS5X8o5PgcDnCl4M0mskiCqRSMktfcTBJNHUHwggSoXBAQSEhf8AYgrV0QJ8HpV2Kei9v06gEJEoQsDFPkgJ/GSSRMToqluIqsg8lQyBBiCKIoXAASEhISEv+J2ux2Fn82FzuoVret9vBQltKFBK8DefyR2o0f0w/p1UIsEdjISouAlRbQHHwZpNJExMTEEEVKjoHOkxDsO9SOAoooJCQkL/AI2Mhg00eYlZxp6GioZPndcWI6ad34FJ/I8BqlKh48B1gv4gdmTOTpp9bfTvN09R2SM9KJwRRLgA3HTh4UkiJExBVNUwMMppMRLQnIk4BAkQJf8AI2gpJaR6ePYmmlXSN1sJSafkTu+dtRKCdIS9RbN3++FIa6j4YH0n2NNwk8zmSOzFKNC9fp23/sa7eOnkGWUEr8GayJiYqhUJGMaqcBJCKCZIhf8AI08wg8lCzmINhh7JP9oT6ttWWpzLDSyhTPgmqMXmuLIu8BNHIyHb6dX5AhosW/kHJ0yGKJPCUNVmmpE+AqSJkifAVUYxqpNEiKKCoT/4nHEy9r6GJj2UIXnQk93QUMiHOsue7uEMrt4KEmAlJQ+FOuGOqGO2yrHPXK8/p5NshnF5xR6URUIXDzyEwZz1RI0WmpE3VyaqAp0XgSSSTRNEifCaGqLpkKlRQTE/+FwXZjic7hB7yhFryIZ0p9EOd1uswxu+txdrPgzFwmeHkU1PTU6BDzOTLfx9P6r+HsZb/VszboKQIZs3MI4jTc12MEVbl4FlJbMSxlCaRCQT0vWaTSeCSRCSaEJJoxyHSulVKgmJiZPjrV4GPM/tExjSLjmGpO/zQnMbvcbDH19VuKXmtPBlJsMfAzm48jA98pNR5CQfT5bb5lqImdGPsk0sm0CkJbR8k8chtHcsJITexDQgmJjUakbaXJ8CSSSSRUJJJ4Gqi4ExVUUUyf8AgQkPDGzuewYiLTvjkd6i06hXfu7mh6eJ7CFh2a8B0NBj4NRrOv8AINZrbpoSu3dGv0+oMGwtJYTZDSJI2jP7EqCwrI15BqBisxp3WrY0AkEmQKkmQmpH5iaTwqkkkkkkkkk8DDrFwBUE6T4zU2ZcJtrsERUuExXfDWmnUNiYTyOaHzgC18ANUvNcCZlkTUeQnMEkg3d1+jyIVYGl9PbwJvUkZBS6BDAxfsRVy677UMuZX6IhcSxvCwJuOQtrgi+MXLqhImQk5RiwTwyTVMkmiSRMngaHQMYEFSoJi/4I5V1/AwRkR2dxUbDXZ8heMf6AdsCPqrwGpI7oT4DnDrdRZeXdaEm/5F9PfwjFJKnXaCFxzZGWKWWCzdqLgbaApLdjnFZkpPRoTdWXpyIkoQ/gvFsxE0THqi1c+KSSeCSSSSSawMMswTUUEEySfGvE9UXVHlQTSjw4TUfEwefzQ96aG108CQkyZqxmGyhCPbs9+w7QTvzRfxSzP07A2z+SKsWeGlcyx+moxGzkboV/LkgSarFDAjpXMSJNu+g1Fm3nc0ZQaYhX1IrNYCchD4E1kkTJJJJq0OgdCoUZEyfHveqW5dUX7AZLbBIiLDHNUD89GwEJ9xeBMRwJz+R8jVm9/ORPeB589hfTadZXfT1EbvMznzEqqISUajA+uu44+Y5jAV17kEEuM+XduNYnQJhn4FM3poNcU3PPGkkTHoYN5ieNVTJJJJpNWhhhoT4FEJJ8ZE0fkNNoelB7w8CGUJzITDHuNK5JlNpC6mTxymKzF1oNE/w1+RNFq3ZNGg1h9Ny/2NCKrFoxck99GMZJCSWmBpsdHyMsyeQsxlPoJZyz1FzTnQ8oJWFRBFI4bBBOBiNwbzE8M8E0kkkkmsDoHQqgTE6T4qV/3jHaelFzQ8C0lYF18NYZbLfNH7kx/lD09deBKJxatyPS/IsB7R/sejpnL9CEXE19MowpGx+pj/QlZHPkKSYhsJBbGpq08hXSY2Zw6wZGCbcXXG7Ht6AkRBA0QRVkW6fe9IcN6IQ0mtXglpwXkiZGtHAngkkkkms0nhaoMQJipUEEyfEkWuBfUY8PJAMfkLZVxoMNOzORU8g5my9UjRAJlLTK4nQTo1Jc5dnRozV7Z3WjJbu/6/TMA5PRECrt3GU7EfBraIXckrxLJhzOYbukxaTRnUM8AqIrBFIIPSCQ/JUSywb7NDSeluQ82mQhaWbZOaFSmRB0knhmkkkk0nhdAxMcAiCdJ8ROAX1HtqIgLToIYajUMhrDWhCCTBhReoexqHD/AJHMzFk04oop0bqa3Q/wZB+oww24oZke0bP6Y3aOwLVykXPPOBbBJdbuEoOu76IVZc+osdosskbE1gdIIpBFFn5L2IM3KYGIzOwUkWhXTGu0tIiiQmGuZNLRBMkmsmxNE6SInhaGHQuAgn4y0lY+o9sDVCEVJCu0HJktfwcvT8jn6/gTo7Rrr1HPOgjhaIriohv5Fjr3v/bEU3c5c/pfd2HHnwSJWGsi1TzDkWQwGgGWBnu79iIsslg1sZ15DiYG7J14GiB0aIJFch9Q/SjUpJZY7wduQu7vUgZqvBD9AqsmBFV5JomJkiZImSTwNDQ6lSooJ+KkhZfUTSdBHo+WNb/zmc/X8D+jTzHP11/BHxpo67smbau7psQQ/pofGSKdZIt0yVl2uo/eGPkiGvQ/1GWn0taGrliCJHN/lxEG9Dm7CmRKpsWw4iwIPkV8YIhDazEIZqN5A6d50Hgny4opA0X6l/SisKGaNBEXBoPnSyho8l2KQSIqFBUkTJEySSSRcEEDDEQKFRQTJpPgSOriXAWsMZlf+ZJ1311fQ+Oy67nz3fhGNrdl+WfPd12RCHONdnQa6xPD/PFMNBF6rZdnqvM8xXkzTQyuQ0+yW8/pXYxQVRsncL3FsXewrcbbE0tQh2R/EKWRu22bj5UYE4Zsv8S0WhBI8GBQ9FjHtFW9hRL7DnnQQkIQgg0BPO2Bo9w96NVIIqVZJExMkniaGGGiaqgmJ8cjYxeNNxrC1lCGrjnbWXcXt2/Jnz/HJHx/C3Z8/wAPZHa2oImoeN2XPkRdTiSmCym2syx+IMzLkRND9KVttYYtuYPUs0N4CqS25DT0hac9iNWL6thj+iM7n5eRPNkhyGejohNvhw2qO3dS4VZcHvo0YIINiIDUJZO5Gi5FGNlwJFSJdFRMTJFxwMMYIKohPE3QjJ7EjWFpKGpsOtfLImnjXTV12J1210XQj10/ix8fxzZ89/wQninVGI/QpE1r4A5z4fVfonar9JlcUYoFx79vpOCf8C1CDEpIl3t5aC3l3YhGxuRiBfXGJwzbzgahSRzGMb0iDxU7hRNp8FhGRlwMDsbmaJvYWPYPQ8xq6SVm9KRIgYZgkQgEuqYiRMnhZAw6FViYnxWqrGsyPYQtL/E8rcV75/juL3/jkfHb8mR6/wAPkKF9uy5Lc50BK8x22bOBoguO2uF77b6AiRbsdfpPZ5UvySEbNqWITR4+2WWx/wBofJJrMiMiHp5TuxQ8R1aPQUCQ0S9BSmrgSkgiCNiKkDR006WWWXRIxCdROiYmJkk8MDVBoTiiignwk4eksGMedILLo8Tod7/w9kfGujpuR1vpq/gKbl+gsJV8/sRreI1JdEgeX7ZzpPQSHXhArUfQ19I6YRvsMd5c+9DHfJeomsdNNqbUCYnTKGWT6EgsoYhCXhRSUTRwwKjpMs/ehOJuEhKpKIbj3hE20YA1xIyRpVdK6Fxq0b4l0kkQQnhaGEMcCifAlbgHTAeSYhCJrUtI2Wzqt3XYmL7dkHC2LbVhNl5BIR4EYa4arun4P5AOl/8A4n9I89EhaE3Ye4oPG9NDIBiROjQ18Q0ogdEECL62dIGdBmwem0fxJ/En9TRlygk1GiSJMFBA1Q6DLLDoXAxRMh6yLokTJEyasgYfABGeEm4EUq5Bk1NMJ5ofX0cug7cbbEYgvAbc0MzcgTjGUTJjbq+kLK5sQgtFLF0i/llCHJSJiZPiRM5M9Eoq5CFO4VggisEEEEcEVgihhh1DFJpiHkTkTExMXA0NDGBqaCq1wBQEE8nF92JT89vRSI8FqUJZQ6POj66fSE2unQoqpjdPU1WjFYYew+VEE/Ditbo58p3ETnEngRzQIhsvDjjikEEVGXRQDarhNgKwExMT4IGqDQnTQkVHTnoukUmvBqxH5iEeJF65EDRERFoJD2vL9IKVE4k599SVmG4m4NhIvDd1SEMq1Gpq58P0FUj/AKjLqNuqpkMWRQQQmsEDQ0K1cmrXGZ2kR4kRnmo0QNHJxv4f0cx5P9TQnHInTXPjQatYUt8D8mGt7GBMknwVXKzI5hDleg9I2L9j9ASrEeNPjtDKXSgqnFcRFPggQYVcYVWhhCASEvFf5wZaklpSBoaJsaXk+jfSsaeuEE8CSA6voJDbkYEn8yNEioSTR8MEEf8APJPDJPCxhDpwcDykIp0gaGGjAo00xVggSI8SAaaerFJCEJ0aIL5w+un0anZYoii8GSaZiC92hbH+LJPt80GyJqST4Uf8M0mk1nhTwwOo4OBxWxTJo0MMPgcT/wCBKSxtt7z4YLLZ2qnSBjrJD0FI9D6Mak5DUi8ORrpbrj1qMhH7UEy1zSHAmpJP/fNJJJrNJ4YHOk4EVYEPIldGMMY4BE6T4ci8uxJp7S2rtoh75H6DBZT1Id8Mrhg6NH0b16V8jeFPDtnuuxFIlvk2DX1yZcH1H0PE8TJpNEkkkkkk8c+FPgT4EcCsVYFBSo1UVWoJ+FARPIxu4/Ya2V77F4X3fgVGTpvUSvPaipHbEpld3+jbd/Rge7tplCpTxyTxOpYhF0yzEfshl1TNujEfVZmhLdWehJZSvE/AmiSSSSfBms+OyUZdSGlZyNDDQnHAJJPgaw47ill9ycCWQgk2JZEqyCJ9lo2df3ErPpROYgqEwtf1Eo+jpj4PrHme9yQVU+G6Mz7G6wRj030MRGdLBFPPFB80P9HvmEgGke8znvDzyRfkEersX2ZL28H+dRJJNEkk0nxI8CKDLqTH5izAw1wuSSTwKW7MlbYTzs1Y/wAOgwIQvCYXLt4l+OV6Gns4zn4ETZR3sUbi7LnCUQQl29Fke2Dp/XoIsWFp9IXZfgkOhafzXLuCfAfCy8t6HB8sKRL8cN510D+l5CiJrqHn7yEaeofNGvKDJNt/XmW83k/I9VdL/IxreUDOVD2iSLeseOf7oN/zGqxrLeh8DM+LcmfV5USJkwTwJ8U8Do+OB8JJwMWRKGGi5BWEEyaFWZj2m5iXinaXv1ghuENZLyoWEq36juk/PrdCzB/67Gcuhu5F/gT+zsTwH0PxDF0+lO1K16mCvRcicQmk+K6PjisksW4YDvQYVPnMB3ZN69UoSv1vUx6JyfhRejLPZ7iwcpTRp+9LIsyL6SeYy8YNrxmZfyuYXdUTWSf+JhzGYrBg3i4aGKHDnLArIVf6jDuhZa71oVJsg3fMLRDOtSWWhU39RLWU9x0dAoXhBuW2y5kYu53ZDaFzoRFq7z9LR/iHoyZ734G2cyGs0SCEk+C+Bjo/+X0yIH7FGYdQPZfNWPRTYzJ1iEy6JCezIRYT5CwdvBhmuTJT05eIf8ZO+dOO+CTl4WCOKKGXWyPZXdsfsKC4/wAKPL0SDMTlJ0TcGkPCEmS/yiSEHPC83oupspHfYZ/QXEFxTTOREiL3lakrcBPziHl/p8iGILH0zGOUXKHHZfkkEJ8B8b/7IPRTZGOgHsXWL0PZh+cF3i9gt753J/0szE+ZF2G/jk+113k9XAT40EEDGgO7ZEauPQxoxaYRPHx0SKxsEuA6BiW8DASRFZfNFhlgs+gafqBfQVN3lo0FStTAcEsbse4dhcvRDnLs9RKFb6baNQxg/fUY3Eb69CUQngmj4nR/+Ankj3/Bf8OZ7/6/oMteTc+zuPXPK5gepHxNGa7f4zI/7Ki92K1f2ZGt/qUVjjdh7CNvZKRSoecv2L4+bs7IkYk6uwsic3Bs/lsuP+UR5MVEhTd/B2YQt10Mf/bpygubyI69hj9jYV1S9l12NdbOldPp9ghvVdGSfsoJmlZrTUQTJJJ8F0f/AIkH0r/AWBV81DPWQSjHPSxktDockbho3dVJjXqrj5hSNS+WB1ncbYHjSjWjRyH2MN3h+txf1vdl5Zt2Qsg9C+S3HkmWf3n6D2Xcn4VgSEqyRBL1FRb0Y3q+gm533GJC5EGPd+oiuWu/FqezE4jJJPgOj8GSaSSSTWf+bOPQ4LJZ5JJsTJmunW9JI666Qn5Z+BXHLeUZCH5IhPR2Qn4AjTHex6HP9SwMboux2hLRmzbzvr4BqgqS3WROaTYtCbYjehfzY0uQX1I1Rp4ehN/JiIW6SqUkk8Lo3SSaSSSTWSeCSaJ4TXF0cBFH4PZDTJG6OqCejeb8m2f5zNh9EXwetKzI4FxpjDDCdNdZJGlbIhaVLeEyywvaNC6kfU7QuU9GSj7p/wAD/Q2XCKlWkkkbHQbJJJ8HBJDJ9XZib+YJv5gn/lH+zob/AGR/ohL8g5rsxprTgaCpwIFiFLRHgLwVwzRDDDUEYOcMbLqxDmM7en1W0sZ3wLC6qTbDHPmFC4JdBvhV8X6XPTKZmIR1HysNK9hbMM2D9zMeGE7AjgiGnsct2IbcTV6D2XYz/YM32jPlq5dA3hmuuxkMYJQ9qAwD8w3yFUxJTLVI4J8GKSKqFQjcNPn/AAQnr6vXq+r1EJPW5gdPe4MdkaK2f5QYXvHKdtC5qPmaH+UmoQ+Fl8HvwGPnkEox/wBrU5MovIfHGD4sYc+Ifwa08wlmeUGXedBuXoM2eRM157wlkvQhUIEolFi1LUjgopRKIGg/lC+xo8kvtDHA36Oxn+wfDOkn+QGGINKk0Yf5poE7CWBT/OPSmGrSx+mh/wC5EsgazTGfwkF1UnK7I/zGEfbmP/iD/wD/xAAtEAEAAgICAQMDBAMBAQEBAQABABEhMRBBUWFxgSCRoWBwscEw0fDh8UCwUP/aAAgBAQABPxD/APiKA33MhNal4Zlieq/7SKizXpDkPmb9tAikOlTeyeFH3lsAfVmMQsSTaTtEZ1O+lR6qYjpGfpM9B2S8ttOx7H9sSUu6nKmAvXMuZTV7u17sss14HcxFegZi3U+NvvLtPlthCVWCKmHjuo8vzTxi4wbHcQbZVF+Uzwa6NzEfPNuFPmL5H0kTKCsZn4cTGhsa/aWZmHtd+xH78sjtr2sr8xlfk/0hKu9dwt76XaA0cEguUUjNAjYw7JWKjsv/ABYNSnpf/cMtR0t3MzDBomWHL5d0tPaNZFXt7i0csamVfp48iEEyntMP2iFdTgOvWFyF1p7EEQYLa6H+4t7034PeGKq/J/qJD1nlKSsmaCPJqL6qONXLrBLWDg7YYJVSo6VcPwGh5WIogIp8FhCZ6qvmYVHtYjA6tPyRyflHQjKDH7QLDYCf/P6o6z7Fyr7yjSW2q0PiLxw7Lb7QAUalN3ET9vbBlg6G4pw+adEx2dBgJjD0XCkGkEfNwpCYC+yOWNhLmoXBcx2198S4HVcO2WZPsQSBQceYSmJfeGpgXoEr9nrgxgWrgI4XR2vpI3nPrLNwTJ0ynuS6mZLi2uoQtV0eIP8A0TLd7X/LgNfd+TcRitb2gS+uhKvUomj0IIZVT0aolZdbylSwiqvT/E+MUPuKviD6Kt4T8jTD9nbhn+159CLce4Ll9YBFbZghRVdsD0uD4YJWzNGNe6JU+IOvdgO53Jte4gCPa1Fpe1QPYyyvPy7XsSpaubWC+wMzpf2Y9C1Xu5RTKD/gdR3+S/LDS8/TY/tT7C4fs5cZpn530JoaOL/i44YgoQjc0ep6hLt9HESknWMYYtsEE0MbRXU8o5QrfcGX8nUp2faUbUencH0UeWA3QVbvJTH12OfmKOZWBCfKAfSYhj58YVDCH7NLUdZe6pJdoWjr0EAmDyuqhsYH7xXWTtdEBXD+/Ym+9H+R49oq1iVl4vNPVIJDqH7tbigLitpT49f7iuLXmZwsKflYtLWG4tUhPWFi8yn0YilcGrx9pSquT3FgngmgUXfov5qAFjZ089hLq4w33DYbQ+Myg/s04TL3nLlz9g8E+NOxhBcogoC11/uUux0vXsQJXMeJcpmPqTGynhFDHdj43B9EiPhNxwMCRHthiOqWibDbGEDkzd5uMzm+ekOe8VGq8vDeRJSuO52QbLlwlQkAZSm1KsI6lL9mjTB/K8ETHD7Ilpg0vRLYgr1kCky/y+YjRPbtZvJB0HV0XDbQeDLBFZe8iZW/8BikhDJs9yVL1SbB6x5Z8TX2cRYu5uPgRoiCAJqWfhNQ3DCf/cQ8M/MBSMbwm7mT5kzxhmq485ffDDYKdAf+oNFj2ItUrp947iOKBz2ULe4mVKB9SdHL/wC/swiegVegI6dIg/lFADfUsj6J4ju5c8aYfDcrlDFx6LvzM4SiV3rywGlqdGJnBWLgqfM7qJra2hGFl02d5iuhpGU1Wz+sxGNDGj1cNp0blh+1MfvqI5E3Elm2EpAQRxqswMeysjmNUxbEZNwaPE6FjNz7qzPCvXDp3shUsGINHzr9mCr8CfxC9E2Qe2O3giw/Gv8AOCHnZfkx1t2zVPZxmAq0Gj/RPcy1pK5c+bidpeEjsLHAvLCSl9Vej2oMoyHnTGB7/Ayv3SJn1J4GbVB958CKoljJ8B9iE3Y3MY3cgzGHhhqNnxiPqDqWjRHS4QPsMRd+b+y+2W09aPSqyqDufbMSxhikETPnMvqNQ+JsKwQlZn8EfaLDEYacuiH3fBySxnbOWlLpymX/ABLm9sD7HHvuPzEoP5+YC+3JCG7Lb1E7bwjc6APx+Y0qfTzHtICuiGaLx4YdPCG4n9iMr3lQUhqiOGk8WRksfZliMkEQ/LoWZAvMH2hj4/ZY2SgMsJd5HoO35n3WvmWcBYs/A8ddEsp1FXgXSEoNC/aWmKZTBzZSeOxHewpIUbeRF7DZGaobgs2iUfurIPNCYy+I0fSok9QKvtGi70GB8aiUQmS2HjuHqtPOEssobJligzJtlecjRVejLN/ExBSfCzQ/cgPmHdfwxY9tdL+yjovnWpSvwYHPa2+b/wBcaMt4qWX8D6BA4NjEY/omKYZui921/CU3p/Cz3DWIzH3PMbF6EEJtOKhAzvxYaIu9CEO2DX9susGFeiVbs2stLQ2vcohKhCligthDEehlhBSUwTAqvyZjqfLMy8OhgoqDt2QiQBv36P7Iuil4BPEldJ7EB3I/Y9Iaq2yl8HLusW+fZCPL6wn4J8SEyCQifbAJVfFf7SKo7il3SWy5FV35n3OJhyUTAD7YgrQQVy1AAUegsPu9zRe58xglF2PtL9edEvy3AwQifevBEGCUB0rAEdEQ5fawy2ofcY8Vp1BLr/tUuBWZ+BjIXX7vP7HOz7SBcCGXniFCvRC4Hb3PtLJ0nMRJtPkitily5VY9MoC/sgiixtE+SZ0pf47mcoJUsJsmh5g9VwTsIWYLiCM5QAnA5+bEdn5y4IteAh94YCIaLuLWo6JS+gzImCaJURjRiH5VleyZAbxAZL1+YRhD5aIKLx4bIYQ322MSvFx6jsnwG/llwMn5tP2MMXA2rRMMA76y+7w09giXzGX1ZC7gTNw7Yy2QftK40B+4MIuXDKVSYBLd3TDCdqAgwAp8VFXQevMcGd/iVpt+sLUwhICvzy3oJcNE3MPQm6v7sr6z4iRY64ro2cVZjVF5aIAKOqiKJ5oTLhF337UNuydbAzArDN9lRXuSPtqK9tJ+UVB/YhZcuU9Np7sRT7GhVFM20ShWVEv41enTHLr7QZfP22mVXcQh8TpdWkdETp2j8DFvyammd/wAQ/MvGiKZrXf+p7u7YwjuA8QVSg84nWPQFxzVj3MTIn7GKWdC2LWUuBo94khYxhfdBZ2JYZ6CTFA96wXVQ4/Mzo9Y5mw/mUWTtALvzty9uilkvGMUaz+f4v2ILc3TN8/EsB89S+7EH5xgDasixUSxV6lY8TMRjXc6fECQpuYHTgH2KjLly569yPiVeaL+YkFTohYs7eU8n+GNJC+hmYwo9tpg53r04ogEevpHx7zLYXxEownxBFYuitwi/UqywJrhMZq6qWloYexcoXWJdCyt9ry9IpAKG/5PRll9WfglKpS/NnqqShBFa8+0oNFh0BeJ/wBmxLN9MtHgkUPp/g/YenYoy7r/ALisEZTa+sq0xuVkepFv52RCq+rplIzNeswEbxTzU1GY5l8COHSZnc6x6+EVQa4QB8MGWD8p0eeUqZU9TojLWBNBktEIVdnfZgMyvTffS8SiKvSnZGDqHtL/AGjVlUaAqNBg/GoYaQda/wBmLVHqP+tpRq0/LLC5/wBp7E9HYsnkIUaUd5iYY+ivi4fwflawAuCivEPcmn3Msb3LPTKKFK9D9hsIvvJDB8sbu1LLriVSrpho1PRMkIDg0c/eFQ9YKS4cvDNINS5cHgLD3MMxWnYioqC8AfOCPcweFkNtZ7oMAZRHwZ9+WF+39oGGo+lVFIcwQGPaGKMQAZ02eqO2g6zUYeAVWCj0iQAOL7/1FpSyq7v5lmAJ1g+WZGvJ0NJKF47/AB5gzTDDGI0OfUYpVgI+Rmxj5S3bGU9VKjU33qOKsOiG1WA/K/YevgevcWg9b4ij8wx8Ql/5gAsOmyvnUpCVpMxC3HdWodnSf3NYZ9yGnTO0xGwYQZcXhlxwy5cX396DiC3wMpjga67YjVVg9/xBBgl0ccXLXR81FoUz+saiKLOEtJix7s7CKCbHZn3JZGAiMr5F1C3RzX11fdS7UIdN7n8ruD3HcBlqez8QfO2O/wD2Jh462fyfEQDFfJBDAzDZ/JPNSwyp9S5oQunBBeQwaiH7gwbqGNsMvl8/sM3VWOol6pd4CGUkT2jhNiRYHzo7jt7LmV+pDAN65cBi9kt3FgcAZcWOJcuecIueq5/EO7vEsk6JjJyylFB+I6mLt6RUEt0iAfbFmue+4ncDXWVC9BL2eoTPRmhQ8GC0RCNJ/Jp+IwpL6DQTz/UU9dFRUpjGh/iDdZ7f+KJ4c6ii9DPIjh7SDt4/ZmIrTFwKJM4QMf7QoQR7MwsFh4MTBqraz92DbkZfH7Dr6i/iKIASNJdJc0pSxOx8xR6kX2r/AEw6Rss8kwJzK+vbjoB8+vDf8RRQi4sYvhkpcuGvzPnOvvctkzBrsUP738E1g1AWWtR2rw2MsaBeL+ZatwYfZ6fRwSXiIB7njKEuhB7ry+JdzucF2vY0JnK9O8veHnq1v5bZa72+OnxFrwa6X0I3lF/RMMakoj4XB/d4BPH9LJ9Aao1ND7yfzYPSHgKlfsOB2kwiBse/MU2o6zph7/a9YLc5Ih1tl8o6iBV6kTW017MDrBM82LPy/UHfojCkGWJ6GX6K78xLHTC6YEQK2pkglK+I8pB4U+8btERtRLu59+Iu1MMux1MF2RLALF0OFsdvaisJkkDpv5Z76hdegMV4PT0nlPQiTrM3vRtQZpi5Oj7dqMAfsWNEeokbvRX+SHq0ugp9TC3iRw/mXV1iQDtfdIIjZgb9QwhGqD+UtLNN4TWyzMJrwOMggfM6MGIAtfsQna3Zep6fMx/EvxbEomt/yEqjkMyyhmgvuRe5KNmBplUtAydYpef5QElWXSMUtBYxVf7m5Kd3/llrnfDAjsMMwagI4QvwMP3T2Hq6Q8foHbARmgGB7B+xlUTCRD8Yj7lTMFmjzcztQqgJWbhLNYDKu6AwSulLNf3ZFlpcPTiVhJJOcqcQTONCS5da0IczZK3mf05hsx4iPaJixm38ksHocBzREbnwCAUKU9NMGO6DsV5gKLxLosunRAR3dDhi5zEU+qdT2jMcq2+SzoMq0AKvsGVmdjfFkcUhrb6r3+xxNTMUkWofbJMtGJn0AGajumVp45RnLQgdtER9GXIcjNhzqScBJJ8piwojBRfPrDt6T9hZLszWGU27ghtIS8PeD8ajBChBWrNwiqKwdhidYe/MPWvjRDFuXiFZCSH6NErh8gqGh0+iwfIsMdfmouDFwa+KEh+QB+HX7IWC/wCR/cp48QEvB4st+4vtK1brmq9X+opAIhUrgFD9AeEr9HGEghB0uO5w6+GoaPWR/cIrrH+jAoLh/wDZeYILVj3HhJGafZ2ykWnz5l4fc37kUA5edPsy7qWszEuBZD1gQQiXhlVYeeiAfsiJcLt6O4sFNNf3O0yEPC7/AGzaJKgMYODvHUwgW+YGRLjrme2I0F5n52II/wAZm116jPXxuR+K+GCeYzIlP5EsWdQWxg/l1ES27X/qCEfeVKHqhbAAKPeakz2i88veyEHy6MiT52zSqKkorVk6Y+74YuDb8MdklC3HTlBwRSSR7BJqKJ4Pl7bH7IkEdJLBYuxe50x4HipYi7AF7hygG75nvpFpvkqPciRJuEOz4ZKU++s3zepMoGIHQo+CYMbINg/FzEI+JgcH0alpdC9ozfKw0+/tMkuw4hNF54eIotmo3vyQl1rrxCxhPI3Hc5+TESvNPLf9sA6EEQvzsexKluYSoBs3Nmw4Gg5SvzBa1co4jMTFLrmgWvKesm2QA2B/ZH85YPPXHEsg7bQyxIe8HQU9nZLZXsWIvft6IBeJyHgAhkyTMBTxCSwdIJBFFoBHAKft7UVqUlo7XZGC4umUZ/HBA3DZ5IUazGO3oyTTcZhVHwQ1tXwbX3ZUUFBw4uILsHjQ4U7IFS3UJ1DgMCEHEpc5VnT3+zUz0pY/FAzESYLglM1z1glmBsKb+pDMcj/7AYLNwQ6Myl6M+EPNLdkS6vwTZX+poxXHC9CXhCCqOtMy8RXJiBq3CMEug8BhYzxBsSCcFHqfPtF/syaJqfeWDPVlJxGxhS3rbXlgTPm02pZhB2oSNvfbyZH+o0l1Fe50FTxp4eMu7aoV2CLEMgRuVCwrGLib2HM1HK41FFCJZLZ1Y8l/cJ/SAZG/2ZvPJEQQj0ZbRTl0b+PMp+9f8yF0Bo0fRPLNobTcwhp08FNkAKYJCeCXrN/zCqzuM9KAu2KI3xuLDh6QVMY2JQI4oopRln3jfz+zUXTe+Bi0PVED6El45BklFH5kyh3fFXOgbkXwQafAE/hj6YndS1GLUSJaxtClkOIJK9TVFHFBgxeFM+BIdqBjxP7Q2j2tPZAINZni++FKOZ+Jnv6+Ap+afMfKJKxEiXBUqMzMpv1la3CCEyykR8DgwAzGvtXpskIPn9oCGsWGBnfuNMP0G74gp9Ce6H86gEfMuXG6qWYi3Bw75TElgmKOOLgQmiZ0fz1wb/Z8owhlP+vrMoa04UfApkVu6xBEtqv9PyRRTix4ahMRvmqJU7lAY4ooKyrnYwx6XSFySA8OYfs8kIDwqYxvIjiEORVyiGyvUo7+IQLY9whmPDjkWTix4DSOKKKHUueB9A9L9Za0F/3/ALPlzPPi+PA3XAvNZxMQvNOXlP8AJ8QrqHqYf7mkH0umXWy4sqJcMzLGJRHZlUtjimEcvBll+VDH/FErAo8TXBAef/upj2Fjy6P7PMqvhPtBlp8IwxFwOLgpyRZgnm7fJH4R93+pRsPz/EH0H2cP2jktm+XcIqNSDQrjywNCvxNZejL8wzCvyzFPQ9i7+F+1xb4K2NXP8vy/Z5nrxHQhM6Yu4Cw3FHwLgRlwYNai3LEA+5EM28qVJsCrw1Blye4kZ+fsYroQdx8YhKKXnbmWkUcQEdIn3xEX4l9jTNRBaQNUx/FC3r94gKtUbgNY1h2rDpH9mwArGz3uX3G+nDu+4xszgO9l9sqEXE2NihA8L3LwS7jkzMbfBVfpDaUpLqODg4iQtZv5jcO0vV+JP+yXFo4eaNzeB8ysoqX0xLpNGQ3n9mqlz1YVkG09Ur1az9AUB3DkcuHMXhzDZrrri0xWErEcdZheUPz1FBdmH3MM3NSXj1P9kNPClf3MtnbLVUtl8XECTsbt8jKyjyMirsexUk3ucqZ4Hu3+zGjDqJlv+XG3ORMKOmDFyShCEvjcMxz9F6jLAS8qLiGoih0LPc/2QaCVJdQhlF4dEgAYmCH13TC8QvmhAZgW/wAobYaY4x7zK2qr56P7NJjI9Flp/UUfIGEHheNmYw2fRCtSqXg8lFpuqQCOqjmIlmyV+2C2jYgp3KAuE6R+B94kiiv8IPg5+zRERmrGh1Eiil0UIJcXhhngZdw1XERHoRRwZ6JGz0/0QghmRbTHE6NEMWiqSVIalCnK0myeppX2yh+zTCRH790wnkqe50/Qygwa+hxFjEm7j3wZRUvDmJ8a0+3BL40TDalDvz7xikZcxbOI/aLJukLGpiDoaKsP2cyH4wdvXwii4jZwvgeWMeC/jNRQykjriBDSS1OzHocHgQkuPKcKU7a8ok+Kj7Lu/M/kgHjkWxIN/s5QmIeiUzXuvrPMrgoMGEW8XG4suHEvvitZvmNiOODYRGjAPumHgXEiYYG+BqLeyW7LPb9nqVbvXz98CjbSWQb/AGaSZhFCwfFahhDgZcX6RqXcCxplhwHEwFt/hwynF8JT4lxjwMDevGTmpaB4vZ8P7Nl7YT7zBqs+HiccdQYP0pFmsTgKPIcaiuIFPMdouXX/AHxxSZaLuVwy44GV0b6nWf5gv+zbGw4x4EuBBl83GOYzWDgMoZUhHfEMdx4n7YfwzcYaB0yieHjAjkF0vzmCBoA+37OGez9pLiig8CDxUYvGUEO4DBTKUl5HFHTyT7OIWXLVGpXUeLlUZlq38Ev9nGOX+Xg/JA+Rg+5vkGCkuPX0VGMFzdBcoVm8xxRwGTHrslnsmPzV/PBuL0eyPNUGloH5h+ziARir6/PzwUVQ1CGIn0JGPJDcVOYxFXAZnuavlVvycZQpnmUR4ZVFub/G/Z0XCCKJyi4HBmCzPLGPEoIqeCwOCniW0fbT8kuXLiVnCykiz9pX3/Z4u+m8ORQhNcscSozOGCBIrExxXwH279sxz0IcCLEbmkxHf3wQg9C+wH7PNR3V8UG/++34g1MI+WOGWReGDDAQ9HEs88NQY8vKPgyfycZjEm+eFRCZ0q9jbD9ns8Iw+yUzu1lecn4QYppBhng4vh5DcPFTZNCWaihFXjQ/OuGYqlIx5Q39OfLh+zyQsuB6q1FFFB4n0P0+/A5SmPAwY4/FiH+H5qPFxKCMFLy2Iewh+z5n4Me/T8MCCnHzqLgG4Mvgl8MfpJj1MUWooHyQs9zMp9CS4bGaeBlYz1fb+f7Qkh0J7NGK4oMOAyuXl8RDUTLCKLjEPIfZT+ONY6CXZuQV5VRB0QfyftCp9/RYouRH0vCcBxG5i3xnAuOh5D/X9cKKP/XMzDX7Qk1YX+yPuSR9zDDgPA3xfDyuTvLlFcFFPuw+TPDOrF3sYftCtRqagB7UMIQQYfRs4fp5aYqYsHCqrlVvBf8AF8sMwJMftFV2vlqeQzCEWVUIMY/SBljzLw4BgjVg+QjMsQLNjwvv9orf/EPggwuDxVx5EuP6Osx2EwhGgkxHiMNkuto+6k/aJDt8gMCDUuDNTMqPDs+jKFZFBgxWPj+fDOm7+xIb/aI3C6de2SLTsSPuYhwGYQ8iOOGa8TxORl0UUGOvTL+nkx/+8QiNMPkv9ogNkdYoGPad5YoMEgwal4rkixIOUi1mKDLi0/k/2lxQWoPagfcV+0VSqmHljqEtgxJN0sVs3ypynjdSinEYMuf9KVNRimwynbHIQrL/AGi6bd/rlNCEt4FQSBN2x8xzmKXE4Dix+IoiDHn6K+yMu/8AvmMERTre47z5NzJMMQbEf2hCw6T+YlXWD62iwzDzFLuDxd5hM8DfMxVU6VHkimD9GO39HJlnmPZDZW/3Mh+0Cisei2/iUv8Ax5gMQhL4EPSMxFNMfoSmUGDCekf2Yxi0vqS7zDV1/eEP2eeCL7vtLlH7vHMu7Tl+Zgwsm74uEJhBqYlnUSXwHiY4jioIQm0wDx+ZuMeFg9CKL0H3w/spcWmDtwQtB/CLNAPa4p+AqYx8kPzNEZ4HsZHsnyEMssd4/l0sSqX4PYixGow7ZHio8EIS4Q53pmBX0dzCEUUwD1GXGaSwRDWrv2blFd37g/sk2agNrAVD65Sst69BDsl7iprE9oIzZ+ZqiejiacfZj5/eoiHB9Gomqazk8Tyx4oDv7QyLcuo/Qvm4cLwGJpyqoQg03MR9Dh4rGZjD3jQffD9kLhwxmHGvdHTkafEfJyyi22i2NU9afEwHeJrI1jlhsN+yPG0azo3IFClt7hauCZMztsVUlPBBhxrhjxNcDBpOIwYZl4+o8MZ+TLwxfDOH7G3Gx11fKH/2rGjqrardyvPrHsNyp0sV4eIKPxm95/iWEZEsU9HcrQMGhqDwY473PAIwxjzBmoS/oYvoojhCKfyzlmAeGXE7d8P2MSkPZqZ6zq+/iFMtcq3HpFiWzFcVGI1d2MpTwZa54mhBzssM4IYXV5mH6NcCxRVFmZQ8CgbzR1Qpg4uWQebhmfMcFBhMReBynDcTqrfl/sWJUgHZomplE8uHRr2CV2H5iNoCodUkRuUe8yiBZ1qFGacdnFSyq8kt3mBqW0XgcPA6nYTLKtmeyJVqSuL5cdRXCweJFFM3BjLilxxBOtEA/Yi54gu8afDsPyZeGTHn/LC5sLQK9y0Eq2xcCVsQ7lez0pqGx5I9xCW5YoijMkjT7QJG8PvF3T7xXT07uIr/ADqUI4S7+PWE7C1gy+xwsUcfA3EdGeWJSiv1g2aGZ1WRkEITUR3O08SZSor5CCw9JlvJDMeinC9uJtTP1IbD3JYMOPmH7DU0eP8AAJbH6+4Eire27X3lvXHpgjXttAzl/g8sS6fXYFiYA7f3bKAvxEQBkcZUFipVXaM7goPnqOnMFrLHt4jZFrMHnDbMuTsUebI/EZdbTBfRjqtf8ZWmj+osWKOasN8hjKrJOxlaLMaZnqpvz6AHGEIcV3iJ+X8YmeVwoQJUk77ap39e0H7CGkAbagrx5lHq46vgiBfYyjVwPzOyv3b9+2VVKUaVSkmU1vtrooaagVwowHHpdNiXACqGopBtOwBH1hoipLzpe7baWKgBrxDFL07mIorG4/iFLDKZPB0/7mgDAcMBjTEaJuKSy8WLFmV8HwGCMC4x3M7NmAMoADRMtHx8AuB2vgMCx49ao/GUODEYrgFRYIiDqu5njWHnw/MP2BdjLB+1rGlkMhxIn2M0eK1eWY1ALc7VcrWSqKJvUCPsxyfSUtynj/Xvxni1/ns/dFNIAvAOiNJmv+URMpSYHGL1tsvjMw562zHf8hDJh4DfN8MUeymVBhCii8MOCdpwP0DYEQ3A7DNvMIQ4EtmgYlvOwF6qh6eZfDfNxHPU+Vi4AEsQR8j+wDRsTsQxl2lq5WVLpgKXi23B9u4xNdu693oh1/No33khR3ziC+AI3QWt1sr2xBVUVBq5hYjtUQcmvFpM/n94rNHsAELSMo2B0wSymIrK9o8jEHsX2Zb8RXB+mgPAmbkX4mHeQ6pT6xRchg4HgeeSSiA2wrAjZcEa2D1mX78lRMY0Ee4ys9z2eIEDi+MhHuItqt92oqP180IPly+xD3NVy5NUbCWtyzuAQ7sQeIVu4FX+CICCt9+awtpmnNw+QSo9SVI1lxCVsAbwako8bYTRrskEFvoGZgsh12zdLolkvnqVHsXSLGX9Dz+GTKeYdiGRL1NjqWSILcYJUrHJUOBagnSZ8yxRvweJccdjBjMw4CYLhlD28kcPV8K+GEIy4SSLyf68SVAHbqWIGjwPYjZdONB1jxLUqfKYZd3LGu7j0iN6OFGAr0LH/CXIWQHVka6FD2K/Et0VXuVpFbM/41Bym17mqOwLL6WzVh9DfzPbGCX/AIf9MwXryaIqMA1CVlkVHg8OCRIlQ4Cd5ggPpAe2Kqrg1FwJophwMFQIRwFjuIEjt/BBLqEXoisXhKq0l+zx+uriup0Da8EfC+If3CQI8EPDHBS/XsPRiJBE2OE4G6to2OQJAKkQtXR/BMXY+liEW0gtFzvqX+306iPUXdTCNnaZ+IFQ91uXL+m/pP6mLeRCwYIQWE1kS3dRtcgj6qY2ifQCcEupgDa6mUsQ9wzQS6vtw3wVEqgQhwRGLk8QaKraT8H+nuA2uviIVDk1VeZOhBAAgMAFB+u0zyU9Xcfzz5NJSm3oYEERj9ie8FG9N/OpjD1JtqGNuXwGWsZ64cU6XKctP4IMv/Ey4ckCVIKGDCHGtT1GUaoYy2HVRA0jcpowxWIwxbEV8HglysCVmRhTlzAwQIEIY4Rogm4cs+HwymWymVr7HlnkkZfsfSV18fx7xEh2FqG2gPXE1urrJlrdzwQKgOmfwQ8trCJy0kHswTGPxNS5dvyjud8kJUd4IfuTJB7DMiH8GX6ub/xRRAQ64XZZCFH/AF0xROza2l9LPJl9uoJW/N7YLPLwa5cGAg8tIzEd/wCQxCHvl3Bqaj7orLuPFRxFmo90OgzRUv4gnEKlwjPgmCJbghbPAIQIMSRgy7ZaG0Y8RWi9biYYG3/Uoz7vfu4EeuW10fPn7RsQbuzl/NRTWtC0V9kqMabMa/kozyyClt56smf2degh5Nx7t4ZS69Fdst0vrlutXHVILevbERirHCI/clJh/UgZ/wBSK3PfAr+Bp5v9UBT2fyrGgpMw5yBBKW14ez5nsons95qnp8ZwWu/m6tCR1lqV++eD4VN/EUN2eX67ly+VhAjkYyuS0+JdRmigNOGYc3wxhce03mUagT+mxQ1D4EOAEIyBpPUgO4sbVg5yx6C3xCpidH+4GDGajZ8JxXcuhNwJg0DxMaCOnEwo28GZTp+BuNOP5EUmLxcEASoHrcRoLeD+4qCDDg6g0B5BuEjkefi5Qb78mGHij9NKNynD+R7UPiIIP6lWo/lR9m+es41VfRQTbuWdfnlY6mkfCOl80PxG7QE6B4VtR+i5cuX9C1HjgTKPUZ5nuQZ1qE64Hc4Y8C8FxvdQIh0Iq4Rg74Oq5V3ym2rZlZQm1ZMyv95hmHztY5aSUQaee4Zd3kg6RcWQgZcFomYLnymYxMXZoinGvTENf/hMW9hBJdZjdQGRe/jSWpVGAp9zTLM8yqn4JYStl553LEiGkqKUp4+VIo/+Bh8LaUD9SMr8xOqedviJeauKz6EIhWVxcvm/qYqlseLTmXPub0zOM/D8xWPGteJ1HMfMEyrLEJyzNcR0TquU9zZTOwibSw2xBNeZNt150S9TqF4fSnQqoyj74viCww0wk5NMqmPwb05ZUbANQ3MzLMp+SIcuj6PyNwLGjq7D7Sq2pbs3UFrhRkEPpQcOpfS+Bz99JW9z/ugYGfDk9zcX9RVekwuuBDlTjFM8V/Gcr5v6L4uP0tEoHpv+PlmY/oEDLW+CeUdDxEMq/RjZQ+Wot6i8VFHcZWlzbGZ4U6pD6jJcI7ZQ0Rm0vEvlRQhR6ej5dJFwHK3XuoMRCtDwpgY5VCsulmMH/sBZp+jYQuXKVzIEhDi4ODEgwPb+I16XrwCQLyYmJ9kMofYVD/CSChHsqfjUt7wR8wB/8f1DSBCNQeCuauO2HDCkfBgst5Ny4suXLl8XF4l9AC1xjrswFBCnT5YpblmuAGhcNtfsdTQeltBd0+HDDwiJ3sWkmu99F2zfaroME0qDLkG6yzsw1Dj1AEzgHsS+S+9qKnXhW511AaH34Oqh6x8sDH3mpWO6hCerGbn0kRTxXLX/AJGVK5YmjLDstxxcCSv8iXLnV3b70YOec/ZZf6f872T44EGEU80MGJbkjbGl/GQP03L4S4xUgRYYK3Y17v8AUU5XMYPJuWRhlmki5YHomh1vF578vSESqrg+gh6Hk3H2It/ZU/AiEg6RxyarVo09vr3RLrmyr5e6lvEySMMEraZSwCAGoPoYdc820/iXRdZvXvL+sF4qe/fJQ9hUGrD6Y9pZoIpESkSHf0Vg3l4/Cjrbw0YSo8kpSlFjsm1J36f5qluTCaTDGbXVN+JIggiYen9PGt1K9yIlsP2UhwMOFTwk1MGHCLEdV9JK+WXLiDitjViEdKRU0aMHxGXcSyyyZS+8q2jHULp8bhbg4VBAAoiYlLW0dvHomPG7f/8AWJYED0mcuirKCqj0lZZTKAkWWd9xmQNFpPbxKIA/YwYSPl0Hhj4QtGGRXngiEHt5jr2hvLKNnvDKNcaxeTi4j4/35TZHz6fSZajwJEtkT6GEaZeFYF79DDSn9PeJmr2ByIQYpXxFgjIOalSXt475ZwXL5WG40SF8wh3IiUppjxkjDF7M+7RWmrLOu5r+D44JMO1QCUD6b7e5qbA9ybT77ii2GqhltD44apENQQg9S6zxcYtccDshASxMPmP2m049sTOziGcexEfkiDVNjl/Ay8WK7H5EKHPEvwSl/qb+ZRNo/HbN5g8Szg2/mEwZW2OKX9KcY/Pjpl5vo8gUz5W8ZLWjgNieYHi9Ql/QZSolrcxcjj5H6dylZFBD7pIcHBBhFMrlUKBEtjsr4AgMPokW8e4eZZM8MdKckDNfDubEY3tleFWFEWZTtCiH6zbPXY+P6ii4j0HkbjY0jr8Mi/YnxEdwbCIzCmiX70QmmIF3ABKklWIwsErcUSwDzUQIghYvMv1e5DHw2oRCNfIfnomKuQY27sK7Y7eCf7iH2+8usy8viOlVx1jr2BC7N/f7RCli4ODg4SEYdOdkGNvkQ7rXljAAdhcz7xFphtnx/ITaD2EYyt6DMCEJjyjyLX0GYQyI+e6+SPhZktnsE/TiXBFP9YmsckwQZeYcCmVQXgARtJfIhMBW5lLhBabxCwFXyR6YPuQRt8D+4DiJ7xAi1ZMw41KWhhi1H+Ubyk810yqJf4b6RTKaKx+evkPvCUBdnH3glQZHspPcxKGEZ+LkfCNbcH1fMJsYN8SyFeNWu5ZZHQlucKzs15hGDQAMQi92CtPU2BcHv7g9xopb0lZS59Z/mgXr7y/XZ5H/AFCd/Eub0dS76+CNV3vob+ZYAV0GpiQgfUfQnELns5IgK8DthMNWa9Ug7xDzO00RI9fMJq94ZVhXriG0HtiGX8bcVk/hDds8V9C6Ibr8NXU8kH+cQbBkJ+nAC1+cyLvMOCEGDCKDCnJ3EZb41md3lwZbBuFeAkI4pAj5/T7xqGDK8DuUcu/5e51BMMjW0LB5Gf1mX7MfwzCJXCeWRyP7t389QCRMin3swn3j6p4pR/adQhsSkfUckBEKd7YWtf8AXUDgfGKITYxikRaUcF5HqAnK29wQW2ytbzlv0O4bBgFtHyLFyzWrX+8cruK2/wDhLsy0eI3wYP5lJdes6H8sRbW4tnQ2tEH3O+/iMr8ocEQPrv6BczI6oWJpgL5fxdYx54YY674uXyWvhj+b7QrJK0PGiCRD07hywQzFgPhCZSwv3P041GA+5URnYfs83wTcIMGDHKSVVAYCQi6IrEWqY3HfLYQVlSYjYw855pV2ryQZhrrx1AGXfvaNZ6V2oW0wBiJvTwx2tMUNy8wrafcQ7/yI9SG2IxQH5NytQnfH26Yobusq9yKER7WZfwJ65BtJ81Q6nuLcPqXhqKACro3Ebu0ZfVf2wRDpBmPPbhy2TyfSvEfXCcavIvahXH3RPqZuuWC5y+JtWjxHLjbHuW6Pfu9RKOpoaIYEAgSvpuX9TLJQnmtp8SsGAtUnziJC6yb9Yfc6iSofSwcQ6/79eBgtEX50H6bLTPBBn2P0nmDCXBgy+Y0chO+BK8vj2qCxZTyFsLTMqG0ks8nxEqve3KjI+eP/AFAd9TFTkfOSG6z42/8AUZr3hn7tQvrMVOhrxuIc4jqUWF5tb98iVPzt942QqAWEK/Jm4phy/wAEOl8DLJ25WPiLJJFHq2vLLqn0VfmH3Yewdsr1kgJ/cr90xPr7bBXy/wBS20tFS1o88QbHbCwpob0JfZ1e2Zf9RlbDpAIEIf474ZdLBm6ez54RYeVxHZOtepy/SseA9g37CkXboF0X6fR0zFacmkvgJL/TLEpqs+lIMGXBgy4NcCHJXHxAmkh0m3ETWLt9LQjiL2iI3bHZsioCvnQgCq3ywOKrw+jmKZsPu/8AE1T4ZGbIxKdfJKeieJl2QbD8+jKzDzwPsmPqJS0x2xfF3wsZ3l9yH8TMa+xn8sRuAYz/ADgOB8Se55zycClTFbuD1r2CXbU/Hi192Kx1NBgIRCA4Agc3xqX/AIklsd1iJYaNHZLxJVfSD7f6Q5eHhjwqHfwhqVcAo1+nWwdfpqrtn8H1CXBly4xYy4QMpixhiagmIkm6J4zjXPo9JylzcLUlwyJpGIAK+YBu17RQnpzwp/JMtbyGvtMi2PU+5HUlXcXwxozxLRgOyxggFrUibT5E+6O/5P8AqbFmWM8zDx4AKqDfZj236sqxSjt/XmIqEfcy3bAGoMFQIf8A4kgMTQJpgX6TCRztqqevvM8PDGMD4X8O4shVIiPhNMXTd979NfXJvuyl+ZfNwYQ4WLB4DcWDCfPPWlNcBQciyviBwnIkKamyIdkIwJYmklSCrvSQgqvw4eNhaavol0tHwxAFf8SBVOG9OI0jQBlMZqTbMHBwPmFr7Pomwf0QygHsTLV+3PeWh466ELbKTUMECEOb+p/xJAZ9in1I1GkZ7FH2w/wsZtmn78QRLTo/TQAGklJ74hHU/bLT8N8XyMHgYxcvhfFwtFiEJK56svhRD4tfC325Uk4+tguSKY36YlQeyd/eVYfCIMMzvH+oSoPhTMhb0OSH0jN44HCpbsqCJqre8bYNTHEAv9R37Q1CIZbgFSqGGD6B/hv67l8MBDJMiOIgLxbV7r6FlxZcuMKa19uZ9DV9ngItFfj9NajtugBeDUXdo83Di4MVgwly5fBYMuEDxUx5bLBC5G06osODcJBwUYjIUPcmOzeuo1CNnkcS84pE8zQQukwB/Ulyb8HRLZT9LwIH0X9L9F8XxcviuE4LJfMAuGP0rxcYT+gl92o3h/ytnD/q+X+mx2AIrSMdEjFG7qD44uDLly48XL4ue0tL4XB8wijkvWl0QYMbpS8ZYQ4DweLWWTbiE1xNih84gc/EWizKezct7ftNYxkX2r+J4Q+dxdrcs46ufPEEqH03wv8A+G+Gxx/730PF8LLYtjcPpPnUB4fi/wAv6cMiBEj+97w25awN2PgQNE+nUuHIhAwYScqQ5skHFsojQ20SXZaLBd39E7DDBF+E/wAGUgEPqOL/AMXmGa/wWxU3jDobNnqR4Ysvi4yjOk+8pMP+XP8ATp8UHLLyFzALiRlqYTOMYGLlPRidoLaWeSXLiweTi4QeCDktHOgpEsFlnGFqKKZaRXEcCMp9FB9KzX9JAQI8Evm5f13GFQAvK0T50kb9sFTbfUt/r8Ry/wAPf0MESzXn6Ll8MvIfc48wiSxjGMWXLiz+s+508T3a/l+nZw+f4WGxG3IYorV3AuAJRBRMFS7sp8kbXJDcOATkl8LhyXSnjOa+IMOW3jWa4cKgh4GbMJITgplHICBKgQ5OX6R4vhUL4H8QRWWR0/tMgFBmiz1PggyvRnr1YxQwZTUU1cKQ5b97/hLSP3D8TcYx+jLw+PLuR8oP0Iz0TL8/067ro17IGiCJ3lX5OL/ozGvDp8x1LGKERlyClu4eUElw+lbhNwkheIfSdQQGWMpLYMVeOHRx2IW0VAlStwBCaYcAIQ4If4fH0MVsXKYRHu5pyd+VenpCoB7NvzUg2sWQNNIybu00w5CFAQbOyX4hLcPPwsH0nDElKZPHr/Uc8GXy6rPxyF/EAXnr2xSd/bBmt9R8L/Tq3xUB5+ecxjZL5h5avhtB8lL19RBioeYMPoDEhxxghfEpBxiwI+UE64xThIV8BhDMPpPqqX9DF2Ap0RcXBK66hVGgai7qrE6iNa/jN0Oi3RNWaLfoGWjW39Qd1LnfHZ/gZbM9mybzGw8xIxl8Jo9xzc/GepYVATc3ff8ATsMqSciRpn718U4VBgpTmmDn6m5VdRPPAyL08Yged8DLi4Iph8JZCkJI6YWlxDAcV+5bHNQRiLifgh+eAeAahL+m/wDEC9jKHmeykqZcfULihNuSLerPlnpqyZ/L9acom6iH+oi0ue/Dm9RfptIwbCfcQTCPK1NDLi9Sx0qo/ENF/hP08FeDI9eGZqZXX6X1IZiu3kIdShBCLiqSxXuhXiL/AGPsyuGDdfEUdSUdS4R49B9SUmTJ5i4tgsuXB8S9x0goWhB4QMIEymEDFGJxGwWVMpywKa+ApdyAwhD/AC3eAld5XHh6Mqq4KWnrMGMZD5l+o86mmnsfUnZjNkjVckV+0bH8/QfQkoS7Rp2QAEyMedzN2PfNItekezmyhLhX85g/Txk2D1H0kFGkw9GFfil6EoSGNqjSw++WZ4ALTpqZFAm/ah1+YoFxbt65YOvLBNxGncd8z1cSJJuq9SJZ+xB8/wDsuED9AUQYM7Q4BwkUw4scgXHRqZPmOP0J38gRf0XLlzX1MDywpOmIrEfn3SmoSDSaYRgeUrWQ0u8P8aBP8vllE6Pvspl2MT/gPBbonXBl8ARGFOLGHlyvGUXdq5oWN+e/0/stnjyfgmcgVxqjV1o93LNR5vYpFOurtu1sEJJ9sRJid/6eZW4S2tkXf9Y/1HJMn5hvIMkLHbzqBygfmUl3CpcuXLgwpuEFoQTZykErCMGWzZGyIKLPpaSBgy/8DNfQiO9h1FQtuTbKDFYjBKcmowWGnz26vEa0WTLfoQ3hd+QTxRSOH/ALlhfDCpqXLqKlmfmr5g/8r7llHxNwGN5WP0+IOwEfFTUeZ6l0QAMq4CeEy9m9G1iyr3AiG2zvxO3jw7YWhDUF8nR3MrUOIvs7uG3pcscBGnMd7gegD5Nkc00/PAZlU1Lly74DDtCCSCCBkJJG4sTbwb544nmMRZbwXcIwi/pvh+i+ANFjsdMbJnkNwskdmddy0PhZRvZO9OFoeo3352ruAdM2dM0IG4fXYMyWYmo6fmMJcbSnEbFWQ6sVEL+gr5xw+1uD6OT9OsBF0XvgRSXLKkq8TOGlt9iK4KWBpPJm/wB37rFKnWvD3grMzY1iiVs587irGPGoLfPrDpgflggr3nsgWw0temhqYLGzzL4XlUeAnl5NwK8ggJcuXLnTld8GMxmEJOCTfDwX8pauLXyVsUGXD/J7wz6h/dA6S4ZlsXCY9IIgyT8T1HlN7a/zyYlgbKoYOi3DuUEvg+g4Z9hBHO5ldW+kbJnpJT5cr5Jm71eV/T1X7sT0nveBgNHAfhbGDXOM+XqKG8vLo4obAHcSfVq5e0e5WXppQcCvRC9W9johi/A7mf6DjW4ZLWDHfb7bh59ZvzDJvB78SBHcq1wl7jPkxMiNOLly5f0C7ly+JBJwElS425q6NIUmj6Tkggb/AMp4s/C+pMiOxlXxEd9qoBRsY9HV6J2PkSHPLZ68pu1O+auumeVikZ2wZcHlIEPQ1LBfNE4EPJ/TpnT03uur6uZvTEOzZFHpB7v9fp1HNiH33IAlRgDUvjoMEAl+WB8bitDj1jC1egJkjwjUKqYqPbOiDYzfPR7Smw2/dmf5zoly3adX2TQFAm2ELbIDdms7FguS2qv+iOrtBXi4RcGtRMLlDCnyRnZk8kuaalxZcuXCLghxJwMLwggi45gcxTNOJXUqmUhxCBly5cHipfNy+KzcMDw0/wAJSI4TqaCMGSLQtPtcZIso79E8MDw0hqu4qkPHcPszX67HcG+4Nw+kSxb9PoDPPPo/01nZUr6Oz3cRRVrdrt+nJqqHB5WD8xkHYXlVrKyJGOjeBm8no2T2N4hjUQ9RfcWyw6wyjKwwGztlooA+Caa2QdGKIUKl2VLDULfdqJhxMHpiz5JSZF+IUlRKly4MOBSbCDM4fJiHWYQtqXLgy4M3EQYMw8CmoQRcIuJUv55CV3fOW8RxDB+k+m5cBojs0SgClZHiPLbhtbGLLaI7Kg32rVT2esewFXhvwxVoowsGYP0pAM3pjKgmJShE2I4fhzHhr8/+ubsN5pZk+H8MUKV14n9NmkbQfxFM4SKonGw8ZlbqnXAs8+JeJsHQBho8w53Yfdq/iEVZvXSHKJdHh8Qq5TJ6Ea+8toMamG1C9EzLxNeJTqMsJGEjK8S2L2gselTMxfGfJuZYw/MA3UuXxfAeBg/EGEEEEEDK+hldy6qUVKZbnnBhFwZfB9VTUZGB2VIB0qk7JRULJn+JZ/KIPeIx2fgWR2eiNeLCZKCeSKsfZ/p7hXmCaMsSpfFRLgxYVxVxAVV/0RQZSFdef2ns/V1Pl7w8wEiaR1+mccSR0ATPBjegY/DgqKGXqO8KdDb4i8rinL5Y9nEteLqW6S2vCpfSWankxAcbfJhmFU+KUBivGw8wDyABRGds+6zuu6gkA1GHgPAkqYCwytKVhU1HyMyDqFNwQ7GyAVQ8WMWxwB8kXTJ+YQMGbmEy1OkL3CLgwgYQMvm/k2apilnFZwEDBlwg/WUi8T4BD86DkiwAHPchl6MSpfC0kSybF0BHFJeqQ8y4B84JguxuOYfQLl9s6ngMGVLnrdukt7+Km3Mq3RE38yfpi3dZHk3ysgcKwP8Aw3BylRxp8Iq2gKE0Y7ETUPVQrFZGjyxbvAsru8dgTOlY+LmuKEOp1JARMSJGGKjLGL+qYXwH4IkOtbrVcjUAGlTaj4WJ2WoTTZDB3sjqF1ZZOpg+OIMFlJrJC0IuDcGpczYcCCCBhA8LEITw0QagnGct4BhAweL+p0y5hR9jCQK2D1xmBN31DuU/CPmbeEqarVRQNWeZUHZofyugl1gLg6+PRh4Pa6PqRItfQ2jmSW73LivXKPn/AKsIbXuzcb4xD1iY10V2hsg3+lrjD/wnF+7McCMB6i8elblyUIwPSGFbO0W0l0bjfQh6b8zJu7QWqeIzNlQiQmzUVvIn/TuMqMCJGGEjDAr2oPv/ACiMGyjRTivFTNAWA9yCWxd5Mypk0aDxKdRAtCG9aneYyIWiQUgz5YF4DLhSW/LgPBcLcgy45jwXTbEqMTWfQqMGDBl8DzdcMuJ8ehh+DsDKoRkXfglAY7VEFL8r6Dtj6H1T156PaXe3oU/H9kA5raBv1V6+JjYKFuhFFj9N8dwrixmrB3lkUQT4Q7PniNW1J4vRB+liE63uwjhbldvBjecpUdAFCsu4tDAiCLTYedL7RchAPMe1D2tvtHVled3LRne3UA7PZ8QIvfq5hhlTo4Eut3UsD2HionAwInAwhXaiDur4qEneYzbipS1wJY2+YFp52hNAt115i8AB1OtSgS5nuLWIYLgiagX0hqxhFIvIieAhWEEXxUs59Eg1xnC5AZcGXLg/UzQ07690M5P3MwkbLBR9WMPt6e7/AKl3V76qfjV8xxitbbfu3L6QfLetV6DXRc8lAeR9xb9CBBY2UXCPYKoRa82+ueH1ly4c2DGxal3M0d/RxEjcaL+AXxAu4pEdow/Zl6t/e736WogDWHBgg9fy/wDEsYgtHdSnPV1/tLmUVo38TOQeTu+8qM/gqYEe8WKYDvtgPEeY24u0FjaArCtAMqYrS7D6I3lAyokSJEjCRizENhslepsiSrbBEiB7PUqe4fESH5H9BGQUG4RxlbYCPKGtK9fE7n8Ra3HwgyUxtILhiHJrh4Bc3yCSCFyEbR5naFjVPU5IgeFwZf0XGkYHVoILbsjobGLeRj0f5Q0t/wAdHQesTZR5Zv3vaDaVb169k1C8um0ws8/8bgNBS0teh3WKL5/ZeiKCWjywQxlUUu8iX/iexFE8lGeppJ5lu/iWhCKvZ+lC1Kyy/wBrBlQIMpj7Qf1KlIXRLst1g379TOl9ekFLvD5gGw8BtlILKDUXgoPv8StD7B9SypOho6uOv24rxoKjIuPDtiKLOCANFRiRiRIxIkYBrT/QTtOYPNxIrRs7epvG9dmZNg66JVnEo4HjuG9Nds2UFFAlG167SUgxZi98lpCGMk6WHpn8cDWoQclIIGDBjmeX6C1IVmaX4+jQYMIM1LjwMcVRsqeEoi766YegiAPpUshd1ame9gvUQglBri/eJebv/tmOvHq/iQaLKa6fkf4IK5G2i/CdsyyKEbKmvIEVfFPqGn5jDlJSYjgxnqZ9TFT0dINh2TcZl807+TMFHnNfpTSv904P5CbyFPk2yioV4qIKJ/AMClNaWFJCpU1V1Agq+gnmWwUXK0dsHdOuoQJUDPlgQqpd2Otzep8QHj9pcEAUHUrhjEjElRIwvKm/D5joO+ICpXl0ysGi+oM/1BPOP5Q8FUECSkZx8kFARC13+H2mLGHB7vELg1mmLMc3CLMxBjDZCVGyL39/E7WX4il8oSoMvgb4SPDo4Isc+ELQZcHzLmpXwlbNsE20wPXwwVbiGkz4hlXyRBtGdMHyHSTEpeobo2voMLjY6P457fWGuw029deoTevO5gtmH3zHMtx7nYvukRuwYjB5S5cXMmGO7akPGf8AMGfxWjybTDqgf2Tu2D4Oh8v0mG33PtN49iPxqUSjgZkUUy3S/gT57CajQXSn2xC42HzuDb1+XAesz1htWJ32whWBkW80bfzCwbjel6WhYOEqVE5YkYxIkSDdlYNpAspHvtF+98f7hszfiTyzqoEYwWQAeSNLWr+Hj4gzXh/CbQbOz51BodUVjULiAtsJgFTeRbDyiiFOBoIy0zH3gyiKF+AEsg8iPXxLo5KRJVcpMMvOYHxLgxYsSkYsvZ68wCh/KEMoQQjkNRJhlwVtAM58tx4lKG3HsncDaX6vv+yXXjxd+1Ciu/M/M+oZgroPV2MBYaFbdeRlcM0aIPFKMeIQzwCTUQguV+1JcL3k8lpJTBw6+n9J3Hyd99xfnXft4l0e35S/UScQGBH52r6fadLe8VXvt8zZYmGEyfDNgJe/usCwg+alBMdsDsvbBipr6HhIxiQME1KqbwfOYeh9qJUWgH4RRRyfaiECIbmwxvuFljUrwNYwiGbYCWT7kfR9H6DLSE9vGYVQkx9IJJF8pGLZbwteapdxWQZcWK47HLgSKXMXd58zfMH3IJ/5cQ4ddkM2lypKLvHl6IZTw60XkbgoeK9j0eqhlSdj+euvpLAhjGNHoHfvGS2HVQe1hGy/a6Pafz5hDghwgRNgFl9z/ueiB+5JS4ZLwkKdXK8sB/SLHUOPVCWu2O/UpDBj2roeIEmLst+UoiLlaua1k0mEg6UvlR4qfxGLgDCn62MdhGkSJWXEsS57V4iuVK8WyePIYNDLWpoPyly7v3YF3BOmepHxoHY4cpYX7AuC7D7rUpFssdD1jLb6RRIyQZbUwWvymlbgssQ4lkOSROW21BYYlxyAy4y+WLywRjZeH5IqhZoCgU7mTNZl3kMWw3fSfIDQa+MdsJrZc+X5X9RscBoYWEAADqHAwYcVCyEuaOV3/cm1e19y8P1CDxO/0hiTSg+eWKJX3p0I5iN/9Pz6R5qhWCwZZ1PCgCVw8pynGU8wtiVMQHiUmUax3v8Azf8A2BGxmn0m3/rF6s9mW6R7lwOFe4kQ0kJ//Ms8RbtPvKdC+GbrfAE3ENQewjeUxH1IS/haEYuaRnkEDq5cI0MOJTkRi/i1mKTTxEDwkuuHwVGJEgNkx/fc73eoWOJfNLRc5hU7jCsDwNnuxy21rpwVH+BVy9kxLGmkpPZn5oyrFImE3jTOiaeyN/P6QYU2xB1LKlYS6i8gdHqaOfFv5+yWpA6SMtSjjODK4eNx4ePSz8AsVp5mFsV40kZUGE/uzMeAftmL1wIFyuDBCQOFphHgqJw6ypUzmcby2FLdkKURZKhTUrM2eJh8IeY8ObgXNfQejFcprMvigxlkvJfcruLDDegxibgWXO0BuZfxDz2t9oBXCQcEvi+CGlzN4uBIhL0+jab/AEdcthgvsuWDMrqCuGUXNPV/z9Pr3ClWLlbPbySpJKrisl/Q8PDEnruTIdyJ3Rxb3eTv3h2Yn/DMLIEO3uA0TFv9Jqen5wEqVAjAlcMaSo4hEndRmUqMYRhhk+MJ1ILlbDDw+QglqU8tcMxI3lhBlLFHhvhCjBZAYEbGVPA6TKQZSYIb5fLfCAgf4CEdQ5IRNKywm8aZYTpvXR+f0cxUM/6AS6mZeL4Yw81TQ0lHZ06/MIfFHEYTZLg8seGXGdpOjuBkt2OMwpg7QHRDGVogW7eJ2YrPF+D0iXDgkrkOXjxGZZUruMqPDmIlxNSsRLjaBCgPUY1OsjwwUyjMiaZ+JRxE3GF7jx6paNUVhIyuAWX9S68cJkwBxkVK/wABCAhdEsH7gexwvEZxXt4yv9G42+k9WP50GpUS/oZc8NnhyQIYWM85eI4smri+VkQ6zIFEvgkkLHl4SJio+u+Y/sjZrD0f6jtA/CM/8RRQt+lI9i/jn7sBAUGgwHBOKmpVyvofoYvh4XgZccxY8JKlkugk8USXHCqyMl5JgNS7N3BlzqJceQJIhziviuG6AdfQsD675JYZYj0og1DSJHi2/wDmJUMjX5f0a2B1/HEU7f5XjxcLLl8MuFNytiABBetdYwRBuh2GPuRSnffpLDwHAQ8nihjzglQKgc1XDzWeGLxcZcuXGPBcuXLjwXF4Rgl3Gd5GlEhmCzuooXiEyzh5ZVMxWIDwu4FyoQcU4HFfUQIJVdR1aSHzx+Vi+gWcm1Q9hF/oxH/ixKB8fzPBhXGpcuXLl8eRDPkk79zSQsInQr3yU+OqlH2aY3EZV8+NQ84SRSNuWVElSpUqEe0PPLHlYy6ZcWMWXCGMLGLivUYuLL5LlxYyjLIbLIs09wl+Zqn4mFcQwVmAY5nkm7gCahDBeRGEIQ/xvFoJiH3qYTqgGtlidxG+0IcjD3UiH1hurEfoyonkiMlP8tYe4pcXi4y5cHhmEybu5lVpCbMoU3EMUKjah9cdo4RyOGYbhIWB4b4JXJw8a+heHhzF4uXw5+h4qsWWI4zSLdQZhuDqFoTqXwydp4I0K4InhmNwZmBhmC+XpTK4Ty4wgYfRfJKiDcP8nQ2wy/XUkg9TNCr+HpFuFq1r0MJDCB7QYN8ZRbnRfoxIuhA8XicVMGXLlxZcuXB4Xyyt7bf44wtF+mb+yWwroYfuYfkh4pdOJdtjySxCSSAwn3wYS8pvHkMXLly5cWNuLjF8vK3GXPRy1xXcW4tMZuLLl6i5qXFjNsY1EmEONOyiuFpE4rMxEZkJTXATwEGED6TgY4E0dfMUrW9uo3S99Yyrbt+sDhgxfg+GeBnfY4VQzCZ6hr1ezx+jYJizevt+UMy6iYpMIkvCEHSXLlxb4vgQcMYwGh7Bw+5qOh6f9tMyoKdMrJD9v7S7R/ECDQHV+SxFF2J8Un0FIOJjD/BreXjceBeMRZs5vhfiMwjLjmPDAgy+B3NcXBAjFFI2QmE76V14ZYLOG6UxVKqGDwkkDCHBMEAZY64w5/1ifEG25YoWdqwvtAtb17ZYAWqUfwfMH1FSXa6Imim+x7Ph4Frnfo8MprCb7EqAwsJtuUp/EDSjR+jraA7fxSnA3vXsYdIDLHgi4vFy+LqLUuMT5lcaUAPD9tsjq+ev3vEwRvp3jIM9bf8AczBb0X8NIjh9iQ+5AjL7R+atVmsfumO58oRvfnZCuEPh/wBSrS+bII3cREjCTiI9PLw4vJpD1xi5lLnqxljHEJmUbCa+ZbAysBHRCpXUSPVRxEuMW8bkSuENTDKyFR7jxOS0ZqlsthBB0gwmpZAiFv7xYQSg0cQEenmL94ABQdeJfh2egiduRO/r4mIawV1UJ15X5l0c1eNaroODLgPvfxHTiNH9yyFfgFt4Ceoq8/r/AGgoIBABgDUr9HsiF06fUMuuhv8Akk372NPSQWEBYMvkZl8XFuL54NRi3Hgx7jaMf9qim98Lmh97l/Im0on0KQknvpKtH3uVpNXoGV3DFVl4/wBsc+32kBA+tHX7R/xI+IacLoFGpnyDMe+0x/cagg83n54cxqf4f+ETJFsB8xrvcNn8Jn/GD17mydzUBeYHmMKtS4rUVibZqDdS7ZeCCE7SuLi3x6JbEjyxUFJTGnBFyGpiZLEl062WOIeSW8gRUys7iUOPZ10TOFaGj3j1e3R1IiM3InfkJdEPTyeAeiJTugVpKw5VQExjsDZLkjSyntKXtdDcemRNdIRq3AFA8r0Sjcbf4J/ShqX2v0GLKHUX8kGLIXg8Di5uXH0ZbGMWLUeSjGMYhKCUOonpvgR2w6lgu5F8b2cfjOCVr85zsD7zNr3ok/PhePf9Wdii2fd3/hjtH0XEMPn5xWnmbKt9mKinqGfyRuvVC4Vgma9kJRvbmBWoeBLiVvlI50y5Yx4MwrTLvlZk5eckSGdxieJZ8zoRiLJbNxXcdWL+IkX+YDqAIs/dIMCwdbt8ERgnt6oyo2HHeY+GNDN2bYn/AHtmCpDQDL5QeaOZSSW0Ag1ppRNdFcOtiJmCqvrcag/wnvLh/Iv9R/emc+35Yr80sr6v6VYM3eCybamVTJ75gOIF90NMDMeAtCkusy5cYvDGbcMeHqi+IosYx9ONHFxhwS7m+TirlVk/1KCoOkjFfOQwcIcCDfkXMP5NKay1P/uEp0XVBfkiEH6SX5Blix7Wz5eE2ap4tCWZh7Iv2IAU87p9oig5xLuoaL43K4qZ+hlc7OKXiiMsGxYoZmFZdFwo/wBNZ7wiog0L0gNrvvi+zAVKSUwYkDClXriXI5viDydBpalaHx6YJ1ggXVYdC9rolSahrR8aogx2YH6Rhr4JfE75z8PhgulsKbf3bFrfy6Kg5Wjv/SCSVXaY8TbDXt+FDSjUCtFfpnFmTrzSV8Y/OEISyEjBlwYy+NIxjGMXgxYsY/4D6FlQlcP1U6iKmOwxrVl01BgCdH/JUoT3nrNYKfH9KxDPaKslJaRvT+VMdSnd7HqQZVncBmT9qWEmk2Fy5K/yBN6lNSrly4hKgZjm/TgJc3EZhG0RCjAp2YaWydriaGwbTG9tsYsH43x1QvhKJcy5MS9uiaYBrY0DUIpfjpjVysAADoiMit3OHrpjCxqRhUS5BjUbz3SQjUAxbVVU9XuE2A79Zl/Rmn3Q7ArQLX0IqlsZ6Y1QA9AoP02yAR2OSNMLuFKq+z1LTwroQMu/oKMSMY8Hgxly+NS9nB9BD6T/AB1GOrUTSYZgKnh0/NyrDfa8wHwb/d9oFuzT+G0QxgHzs+1ytvPF38kSu78mAmPLqn2pmdL4v5IrD1v/AES4GvX/AJk3qWOpYdS6qJU64r+YI3F2gp60hvsENFXeT/MiY4/TRrA/NIntivmosqPVaZeMbWAju7YPcDuAwCUdQwPQi9MtecPiEKtHJ+fKYHIU8+D5U6E2DaraGB7ABW6DqUptaO2KFC9dYdTqm/VWgQoU/wBQZP08UFu//QJetKBhldKKHuS6Ww5DUcxIxeGMwI8FisXjUuX9Nw5uuCEqVHiuKiSuGBylwKy/wX94hRRuqfkrcKPNEzDuLuWWJVwf3WY5THySjvg9cxAoC9BFuPmXyr4iHY/01m2Xtli68NkwFlUiSz/ciLe9oM6HlIo/dJKJA90swwfzSxYqjrb9iXf/AHup3n2L0PaKGV9FwEfpwEFmaaYvvxYQYTTpPmV1KBWu+nvLNvI948TYr59fHlgXP7N3q/qL018g+USOfwS/LhdcDGHgx4YxjixRYxlxeF+gv6WGXMJcvmoEriuajCPDheGMo3GBeO0H2GoBY+I3BSetIodnfF/wZ1djSt9o/gm2XvkftmICEO24DXzJKuz0llWYgWxHldD4wyoye2t+BEtg3vPgklobq/ltj0qttVQ3Gb1DHBFM0Y+if9Bc+y3FoW6ruDfcPL2ikYH5fWKXb8a/6YLoagKD9RpCBEMosY8z0iDRp1GVC37fMt5HguLGLHHiXgzfIcFy+S5cuFfrqOAFgIC4IyuLDFVGKglSuNMqJL1cSmzdwyhP/GtSsMZ0+H0+4/qk2j43/bgKXD5L7w9cPKASoYuUQRzBSEJmCFyv6LbOHekddPvK7U7t+7FTXAS08BLBOyeCAGjr9Tlh3gsY7am8v7kPR3rnpeb79v8Az8wu30F52iPJPBcviua4U2ZTzBNC/DDQT2b+ppG/48TTf8npNN/xenFn/wB3Et/9XpE9h7y24f8AHiI7P3L+ps19mU7hYg/MTgIJXwFFJYi8Kmpc0TqDAtqKprg4xcWIeZTUpZctLl4GXDgLdxcFHKZxaXCaE216/RCLAM+vTJ+qjEBHY5PtB0NZr0y0psqZ2tfDqE9w5HhjCy+GY8174h/qCFgkJ/B5g4V792MSl7SnXt9EZz96k1l/dsovwYbR/jNKfhBaB9iQLX2EC0D4+mpsg/EXv7abPfGbm8bV/XvQi6T6C/I4l/4S4eflkETr3gpoCe4k9WCq5XuD8avOUZaK8SmUksJlMEHFcbjTuDGKQ6QywHTBDcOp6fooCqqLy7cuvXysrAnblvK/V1Suc+ACXr5FMrp8cL/Rn5GXP8RJ8EQ7i9xNpnfj2lTl/GEgJa+oP4Eq1T5bGH9igOIo8GOa/wDy1KlQK4E0Lgte9Qxnwpatf8+1n8vf8873tDZn/f3H45nGqHtWfwsLmmvu5r98H9RwlPdE8xBJZxidx8ky7nulnB9GUO5W4KanrgECBxhQ2ht6DbEwPXqH5BAgFoyv1lXFQK//AMmuaSudonuJl3e5m7Xxm6+Mn+jqMj7PLB+/E/1uM70+Z/tudrJrPlg2nsz/ABqM7m+0dx8FRp1DKP3cH4+6hL1NSaTwZO/pPvfBAH7Wpco+moAfTSVK/wD4gv8A/8QAGhEAAQUBAAAAAAAAAAAAAAAAATFwcYCwwP/aAAgBAgEJPwDCNUN7IryOfB//xAAmEQABAgMGBwAAAAAAAAAAAAABAGACITIRMUFRcZASIjNwcqHA/9oACAEDAQk/ANxcSQQn290bkSmd/uZE2/RF6LeojlocCsG9V04m9dEOJYN3xVx5S3cwsrVUJN2JVH58D//Z;movable=0;resizable=0;rotatable=0;deletable=0;editable=0;locked=1;connectable=0;" vertex="1" parent="1">
          <mxGeometry x="1270" y="220" width="1900" height="1900" as="geometry" />
        </mxCell>
        <mxCell id="i0nZwowpKzq9zR_XvQ2A-2" value="&lt;font style=&quot;font-size: 120px;&quot;&gt;Winwing Ursa Minor Fighter (Left)&lt;/font&gt;" style="text;strokeColor=none;fillColor=none;html=1;fontSize=24;fontStyle=1;verticalAlign=middle;align=left;fontFamily=Helvetica;" vertex="1" parent="1">
          <mxGeometry x="23" y="17" width="3167" height="153" as="geometry" />
        </mxCell>
        <mxCell id="1jEyAe4BTQBdPuvEd-_A-255" style="edgeStyle=orthogonalEdgeStyle;rounded=1;orthogonalLoop=1;jettySize=auto;html=1;strokeWidth=10;endArrow=none;startFill=0;strokeColor=#B20000;curved=0;" edge="1" parent="1" source="1jEyAe4BTQBdPuvEd-_A-149">
          <mxGeometry relative="1" as="geometry">
            <mxPoint x="2120" y="420" as="targetPoint" />
          </mxGeometry>
        </mxCell>
        <mxCell id="1jEyAe4BTQBdPuvEd-_A-149" value="" style="rounded=0;whiteSpace=wrap;html=1;strokeWidth=4;" vertex="1" parent="1">
          <mxGeometry x="3010" y="380" width="400" height="80" as="geometry" />
        </mxCell>
        <mxCell id="1jEyAe4BTQBdPuvEd-_A-256" style="edgeStyle=orthogonalEdgeStyle;rounded=1;orthogonalLoop=1;jettySize=auto;html=1;strokeWidth=10;endArrow=none;startFill=0;strokeColor=#B20000;curved=0;exitX=0;exitY=0.5;exitDx=0;exitDy=0;" edge="1" parent="1" source="1jEyAe4BTQBdPuvEd-_A-150">
          <mxGeometry relative="1" as="geometry">
            <mxPoint x="1980" y="410" as="targetPoint" />
          </mxGeometry>
        </mxCell>
        <mxCell id="1jEyAe4BTQBdPuvEd-_A-150" value="" style="rounded=0;whiteSpace=wrap;html=1;strokeWidth=4;" vertex="1" parent="1">
          <mxGeometry x="3970" y="310" width="400" height="80" as="geometry" />
        </mxCell>
        <mxCell id="1jEyAe4BTQBdPuvEd-_A-151" value="" style="rounded=0;whiteSpace=wrap;html=1;strokeWidth=4;" vertex="1" parent="1">
          <mxGeometry x="3970" y="390" width="400" height="80" as="geometry" />
        </mxCell>
        <mxCell id="1jEyAe4BTQBdPuvEd-_A-152" value="" style="rounded=0;whiteSpace=wrap;html=1;strokeWidth=4;" vertex="1" parent="1">
          <mxGeometry x="3970" y="470" width="400" height="80" as="geometry" />
        </mxCell>
        <mxCell id="1jEyAe4BTQBdPuvEd-_A-153" value="" style="rounded=0;whiteSpace=wrap;html=1;strokeWidth=4;" vertex="1" parent="1">
          <mxGeometry x="3970" y="550" width="400" height="80" as="geometry" />
        </mxCell>
        <mxCell id="1jEyAe4BTQBdPuvEd-_A-260" style="edgeStyle=orthogonalEdgeStyle;rounded=1;orthogonalLoop=1;jettySize=auto;html=1;strokeWidth=10;endArrow=none;startFill=0;strokeColor=#B20000;curved=0;exitX=0;exitY=0.5;exitDx=0;exitDy=0;" edge="1" parent="1" source="1jEyAe4BTQBdPuvEd-_A-154">
          <mxGeometry relative="1" as="geometry">
            <mxPoint x="2140" y="560" as="targetPoint" />
            <Array as="points">
              <mxPoint x="3570" y="778" />
              <mxPoint x="3570" y="560" />
            </Array>
          </mxGeometry>
        </mxCell>
        <mxCell id="1jEyAe4BTQBdPuvEd-_A-154" value="" style="rounded=0;whiteSpace=wrap;html=1;strokeWidth=4;" vertex="1" parent="1">
          <mxGeometry x="3970" y="738" width="400" height="80" as="geometry" />
        </mxCell>
        <mxCell id="1jEyAe4BTQBdPuvEd-_A-155" value="" style="rounded=0;whiteSpace=wrap;html=1;strokeWidth=4;" vertex="1" parent="1">
          <mxGeometry x="3970" y="818" width="400" height="80" as="geometry" />
        </mxCell>
        <mxCell id="1jEyAe4BTQBdPuvEd-_A-156" value="" style="rounded=0;whiteSpace=wrap;html=1;strokeWidth=4;" vertex="1" parent="1">
          <mxGeometry x="3970" y="898" width="400" height="80" as="geometry" />
        </mxCell>
        <mxCell id="1jEyAe4BTQBdPuvEd-_A-157" value="" style="rounded=0;whiteSpace=wrap;html=1;strokeWidth=4;" vertex="1" parent="1">
          <mxGeometry x="3970" y="978" width="400" height="80" as="geometry" />
        </mxCell>
        <mxCell id="1jEyAe4BTQBdPuvEd-_A-158" value="" style="rounded=0;whiteSpace=wrap;html=1;strokeWidth=4;" vertex="1" parent="1">
          <mxGeometry x="3970" y="1058" width="400" height="80" as="geometry" />
        </mxCell>
        <mxCell id="1jEyAe4BTQBdPuvEd-_A-261" style="edgeStyle=orthogonalEdgeStyle;rounded=1;orthogonalLoop=1;jettySize=auto;html=1;strokeWidth=10;endArrow=none;startFill=0;strokeColor=#B20000;curved=0;" edge="1" parent="1" source="1jEyAe4BTQBdPuvEd-_A-159">
          <mxGeometry relative="1" as="geometry">
            <mxPoint x="2050" y="620" as="targetPoint" />
          </mxGeometry>
        </mxCell>
        <mxCell id="1jEyAe4BTQBdPuvEd-_A-159" value="" style="rounded=0;whiteSpace=wrap;html=1;strokeWidth=4;" vertex="1" parent="1">
          <mxGeometry x="3020" y="660" width="400" height="80" as="geometry" />
        </mxCell>
        <mxCell id="1jEyAe4BTQBdPuvEd-_A-160" value="" style="rounded=0;whiteSpace=wrap;html=1;strokeWidth=4;" vertex="1" parent="1">
          <mxGeometry x="3020" y="740" width="400" height="80" as="geometry" />
        </mxCell>
        <mxCell id="1jEyAe4BTQBdPuvEd-_A-161" value="" style="rounded=0;whiteSpace=wrap;html=1;strokeWidth=4;" vertex="1" parent="1">
          <mxGeometry x="3020" y="820" width="400" height="80" as="geometry" />
        </mxCell>
        <mxCell id="1jEyAe4BTQBdPuvEd-_A-162" value="" style="rounded=0;whiteSpace=wrap;html=1;strokeWidth=4;" vertex="1" parent="1">
          <mxGeometry x="3020" y="900" width="400" height="80" as="geometry" />
        </mxCell>
        <mxCell id="1jEyAe4BTQBdPuvEd-_A-163" value="" style="rounded=0;whiteSpace=wrap;html=1;strokeWidth=4;" vertex="1" parent="1">
          <mxGeometry x="3020" y="980" width="400" height="80" as="geometry" />
        </mxCell>
        <mxCell id="1jEyAe4BTQBdPuvEd-_A-265" style="edgeStyle=orthogonalEdgeStyle;rounded=1;orthogonalLoop=1;jettySize=auto;html=1;strokeWidth=10;endArrow=none;startFill=0;strokeColor=#B20000;curved=0;exitX=0;exitY=0.5;exitDx=0;exitDy=0;" edge="1" parent="1" source="1jEyAe4BTQBdPuvEd-_A-164">
          <mxGeometry relative="1" as="geometry">
            <mxPoint x="2240" y="830" as="targetPoint" />
            <Array as="points">
              <mxPoint x="3881" y="1225" />
              <mxPoint x="3881" y="1120" />
              <mxPoint x="2520" y="1120" />
              <mxPoint x="2520" y="830" />
            </Array>
          </mxGeometry>
        </mxCell>
        <mxCell id="1jEyAe4BTQBdPuvEd-_A-164" value="" style="rounded=0;whiteSpace=wrap;html=1;strokeWidth=4;" vertex="1" parent="1">
          <mxGeometry x="3970" y="1185" width="400" height="80" as="geometry" />
        </mxCell>
        <mxCell id="1jEyAe4BTQBdPuvEd-_A-165" value="" style="rounded=0;whiteSpace=wrap;html=1;strokeWidth=4;" vertex="1" parent="1">
          <mxGeometry x="3970" y="1265" width="400" height="80" as="geometry" />
        </mxCell>
        <mxCell id="1jEyAe4BTQBdPuvEd-_A-166" value="" style="rounded=0;whiteSpace=wrap;html=1;strokeWidth=4;" vertex="1" parent="1">
          <mxGeometry x="3970" y="1345" width="400" height="80" as="geometry" />
        </mxCell>
        <mxCell id="1jEyAe4BTQBdPuvEd-_A-167" value="" style="rounded=0;whiteSpace=wrap;html=1;strokeWidth=4;" vertex="1" parent="1">
          <mxGeometry x="3970" y="1425" width="400" height="80" as="geometry" />
        </mxCell>
        <mxCell id="1jEyAe4BTQBdPuvEd-_A-168" value="" style="rounded=0;whiteSpace=wrap;html=1;strokeWidth=4;" vertex="1" parent="1">
          <mxGeometry x="3970" y="1505" width="400" height="80" as="geometry" />
        </mxCell>
        <mxCell id="1jEyAe4BTQBdPuvEd-_A-268" style="edgeStyle=orthogonalEdgeStyle;rounded=1;orthogonalLoop=1;jettySize=auto;html=1;strokeWidth=10;endArrow=none;startFill=0;strokeColor=#B20000;curved=0;" edge="1" parent="1" source="1jEyAe4BTQBdPuvEd-_A-169">
          <mxGeometry relative="1" as="geometry">
            <mxPoint x="2420" y="1320" as="targetPoint" />
          </mxGeometry>
        </mxCell>
        <mxCell id="1jEyAe4BTQBdPuvEd-_A-169" value="" style="rounded=0;whiteSpace=wrap;html=1;strokeWidth=4;" vertex="1" parent="1">
          <mxGeometry x="3010" y="1225" width="400" height="80" as="geometry" />
        </mxCell>
        <mxCell id="1jEyAe4BTQBdPuvEd-_A-170" value="" style="rounded=0;whiteSpace=wrap;html=1;strokeWidth=4;" vertex="1" parent="1">
          <mxGeometry x="3410" y="1225" width="400" height="80" as="geometry" />
        </mxCell>
        <mxCell id="1jEyAe4BTQBdPuvEd-_A-171" value="" style="rounded=0;whiteSpace=wrap;html=1;strokeWidth=4;" vertex="1" parent="1">
          <mxGeometry x="3010" y="1305" width="400" height="80" as="geometry" />
        </mxCell>
        <mxCell id="1jEyAe4BTQBdPuvEd-_A-172" value="" style="rounded=0;whiteSpace=wrap;html=1;strokeWidth=4;" vertex="1" parent="1">
          <mxGeometry x="3410" y="1305" width="400" height="80" as="geometry" />
        </mxCell>
        <mxCell id="1jEyAe4BTQBdPuvEd-_A-269" style="edgeStyle=orthogonalEdgeStyle;rounded=1;orthogonalLoop=1;jettySize=auto;html=1;exitX=0;exitY=0.5;exitDx=0;exitDy=0;strokeWidth=10;endArrow=none;startFill=0;strokeColor=#B20000;curved=0;" edge="1" parent="1" source="1jEyAe4BTQBdPuvEd-_A-173">
          <mxGeometry relative="1" as="geometry">
            <mxPoint x="2570" y="1390" as="targetPoint" />
            <Array as="points">
              <mxPoint x="2760" y="1459" />
              <mxPoint x="2760" y="1390" />
            </Array>
          </mxGeometry>
        </mxCell>
        <mxCell id="1jEyAe4BTQBdPuvEd-_A-173" value="" style="rounded=0;whiteSpace=wrap;html=1;strokeWidth=4;" vertex="1" parent="1">
          <mxGeometry x="3010" y="1419" width="400" height="80" as="geometry" />
        </mxCell>
        <mxCell id="1jEyAe4BTQBdPuvEd-_A-272" style="edgeStyle=orthogonalEdgeStyle;rounded=1;orthogonalLoop=1;jettySize=auto;html=1;exitX=0;exitY=0.5;exitDx=0;exitDy=0;strokeWidth=10;endArrow=none;startFill=0;strokeColor=#B20000;curved=0;" edge="1" parent="1" source="1jEyAe4BTQBdPuvEd-_A-174">
          <mxGeometry relative="1" as="geometry">
            <mxPoint x="2540" y="1514.5" as="targetPoint" />
            <mxPoint x="3920" y="1709.5" as="sourcePoint" />
            <Array as="points">
              <mxPoint x="3970" y="1710" />
              <mxPoint x="3540" y="1710" />
              <mxPoint x="3540" y="1600" />
              <mxPoint x="2540" y="1600" />
            </Array>
          </mxGeometry>
        </mxCell>
        <mxCell id="1jEyAe4BTQBdPuvEd-_A-174" value="" style="rounded=0;whiteSpace=wrap;html=1;strokeWidth=4;" vertex="1" parent="1">
          <mxGeometry x="3970" y="1655" width="400" height="80" as="geometry" />
        </mxCell>
        <mxCell id="1jEyAe4BTQBdPuvEd-_A-175" value="" style="rounded=0;whiteSpace=wrap;html=1;strokeWidth=4;" vertex="1" parent="1">
          <mxGeometry x="3970" y="1732" width="400" height="80" as="geometry" />
        </mxCell>
        <mxCell id="1jEyAe4BTQBdPuvEd-_A-273" style="edgeStyle=orthogonalEdgeStyle;rounded=1;orthogonalLoop=1;jettySize=auto;html=1;strokeWidth=10;endArrow=none;startFill=0;strokeColor=#B20000;curved=0;" edge="1" parent="1" source="1jEyAe4BTQBdPuvEd-_A-176">
          <mxGeometry relative="1" as="geometry">
            <mxPoint x="2600" y="1730" as="targetPoint" />
          </mxGeometry>
        </mxCell>
        <mxCell id="1jEyAe4BTQBdPuvEd-_A-176" value="" style="rounded=0;whiteSpace=wrap;html=1;strokeWidth=4;" vertex="1" parent="1">
          <mxGeometry x="3010" y="1752" width="400" height="80" as="geometry" />
        </mxCell>
        <mxCell id="1jEyAe4BTQBdPuvEd-_A-177" value="" style="shape=lineEllipse;perimeter=ellipsePerimeter;whiteSpace=wrap;html=1;backgroundOutline=1;fillColor=#000000;" vertex="1" parent="1">
          <mxGeometry x="4400" y="741" width="70" height="70" as="geometry" />
        </mxCell>
        <mxCell id="1jEyAe4BTQBdPuvEd-_A-178" value="" style="html=1;shadow=0;dashed=0;align=center;verticalAlign=middle;shape=mxgraph.arrows2.arrow;dy=0.6;dx=40;direction=north;notch=0;fillColor=#000000;" vertex="1" parent="1">
          <mxGeometry x="4400" y="821" width="70" height="70" as="geometry" />
        </mxCell>
        <mxCell id="1jEyAe4BTQBdPuvEd-_A-179" value="" style="html=1;shadow=0;dashed=0;align=center;verticalAlign=middle;shape=mxgraph.arrows2.arrow;dy=0.6;dx=40;direction=south;notch=0;fillColor=#000000;" vertex="1" parent="1">
          <mxGeometry x="4400" y="984" width="70" height="70" as="geometry" />
        </mxCell>
        <mxCell id="1jEyAe4BTQBdPuvEd-_A-180" value="" style="html=1;shadow=0;dashed=0;align=center;verticalAlign=middle;shape=mxgraph.arrows2.arrow;dy=0.6;dx=40;flipH=1;notch=0;fillColor=#000000;" vertex="1" parent="1">
          <mxGeometry x="4400" y="1061" width="70" height="70" as="geometry" />
        </mxCell>
        <mxCell id="1jEyAe4BTQBdPuvEd-_A-181" value="" style="html=1;shadow=0;dashed=0;align=center;verticalAlign=middle;shape=mxgraph.arrows2.arrow;dy=0.6;dx=40;notch=0;fillColor=#000000;" vertex="1" parent="1">
          <mxGeometry x="4400" y="904" width="70" height="70" as="geometry" />
        </mxCell>
        <mxCell id="1jEyAe4BTQBdPuvEd-_A-182" value="" style="shape=lineEllipse;perimeter=ellipsePerimeter;whiteSpace=wrap;html=1;backgroundOutline=1;fillColor=#000000;" vertex="1" parent="1">
          <mxGeometry x="3440" y="670" width="70" height="70" as="geometry" />
        </mxCell>
        <mxCell id="1jEyAe4BTQBdPuvEd-_A-183" value="" style="html=1;shadow=0;dashed=0;align=center;verticalAlign=middle;shape=mxgraph.arrows2.arrow;dy=0.6;dx=40;direction=north;notch=0;fillColor=#000000;movable=1;resizable=1;rotatable=1;deletable=1;editable=1;locked=0;connectable=1;" vertex="1" parent="1">
          <mxGeometry x="3440" y="750" width="70" height="70" as="geometry" />
        </mxCell>
        <mxCell id="1jEyAe4BTQBdPuvEd-_A-184" value="" style="html=1;shadow=0;dashed=0;align=center;verticalAlign=middle;shape=mxgraph.arrows2.arrow;dy=0.6;dx=40;direction=south;notch=0;fillColor=#000000;" vertex="1" parent="1">
          <mxGeometry x="3440" y="905" width="70" height="70" as="geometry" />
        </mxCell>
        <mxCell id="1jEyAe4BTQBdPuvEd-_A-185" value="" style="html=1;shadow=0;dashed=0;align=center;verticalAlign=middle;shape=mxgraph.arrows2.arrow;dy=0.6;dx=40;flipH=1;notch=0;fillColor=#000000;" vertex="1" parent="1">
          <mxGeometry x="3440" y="990" width="70" height="70" as="geometry" />
        </mxCell>
        <mxCell id="1jEyAe4BTQBdPuvEd-_A-186" value="" style="html=1;shadow=0;dashed=0;align=center;verticalAlign=middle;shape=mxgraph.arrows2.arrow;dy=0.6;dx=40;notch=0;fillColor=#000000;" vertex="1" parent="1">
          <mxGeometry x="3440" y="833" width="70" height="70" as="geometry" />
        </mxCell>
        <mxCell id="1jEyAe4BTQBdPuvEd-_A-187" value="" style="shape=lineEllipse;perimeter=ellipsePerimeter;whiteSpace=wrap;html=1;backgroundOutline=1;fillColor=#000000;" vertex="1" parent="1">
          <mxGeometry x="4400" y="1187" width="70" height="70" as="geometry" />
        </mxCell>
        <mxCell id="1jEyAe4BTQBdPuvEd-_A-188" value="" style="html=1;shadow=0;dashed=0;align=center;verticalAlign=middle;shape=mxgraph.arrows2.arrow;dy=0.6;dx=40;direction=north;notch=0;fillColor=#000000;" vertex="1" parent="1">
          <mxGeometry x="4400" y="1267" width="70" height="70" as="geometry" />
        </mxCell>
        <mxCell id="1jEyAe4BTQBdPuvEd-_A-189" value="" style="html=1;shadow=0;dashed=0;align=center;verticalAlign=middle;shape=mxgraph.arrows2.arrow;dy=0.6;dx=40;direction=south;notch=0;fillColor=#000000;" vertex="1" parent="1">
          <mxGeometry x="4400" y="1427" width="70" height="70" as="geometry" />
        </mxCell>
        <mxCell id="1jEyAe4BTQBdPuvEd-_A-190" value="" style="html=1;shadow=0;dashed=0;align=center;verticalAlign=middle;shape=mxgraph.arrows2.arrow;dy=0.6;dx=40;flipH=1;notch=0;fillColor=#000000;" vertex="1" parent="1">
          <mxGeometry x="4400" y="1507" width="70" height="70" as="geometry" />
        </mxCell>
        <mxCell id="1jEyAe4BTQBdPuvEd-_A-191" value="" style="html=1;shadow=0;dashed=0;align=center;verticalAlign=middle;shape=mxgraph.arrows2.arrow;dy=0.6;dx=40;notch=0;fillColor=#000000;" vertex="1" parent="1">
          <mxGeometry x="4400" y="1350" width="70" height="70" as="geometry" />
        </mxCell>
        <mxCell id="1jEyAe4BTQBdPuvEd-_A-192" value="" style="shape=lineEllipse;perimeter=ellipsePerimeter;whiteSpace=wrap;html=1;backgroundOutline=1;fillColor=#000000;" vertex="1" parent="1">
          <mxGeometry x="4400" y="310" width="70" height="70" as="geometry" />
        </mxCell>
        <mxCell id="1jEyAe4BTQBdPuvEd-_A-193" value="" style="html=1;shadow=0;dashed=0;align=center;verticalAlign=middle;shape=mxgraph.arrows2.arrow;dy=0.6;dx=40;direction=north;notch=0;fillColor=#000000;" vertex="1" parent="1">
          <mxGeometry x="4400" y="390" width="70" height="70" as="geometry" />
        </mxCell>
        <mxCell id="1jEyAe4BTQBdPuvEd-_A-194" value="" style="html=1;shadow=0;dashed=0;align=center;verticalAlign=middle;shape=mxgraph.arrows2.arrow;dy=0.6;dx=40;direction=south;notch=0;fillColor=#000000;" vertex="1" parent="1">
          <mxGeometry x="4400" y="553" width="70" height="70" as="geometry" />
        </mxCell>
        <mxCell id="1jEyAe4BTQBdPuvEd-_A-195" value="" style="html=1;shadow=0;dashed=0;align=center;verticalAlign=middle;shape=mxgraph.arrows2.arrow;dy=0.6;dx=40;flipH=1;notch=0;fillColor=#000000;" vertex="1" parent="1">
          <mxGeometry x="4400" y="630" width="70" height="70" as="geometry" />
        </mxCell>
        <mxCell id="1jEyAe4BTQBdPuvEd-_A-196" value="" style="html=1;shadow=0;dashed=0;align=center;verticalAlign=middle;shape=mxgraph.arrows2.arrow;dy=0.6;dx=40;notch=0;fillColor=#000000;" vertex="1" parent="1">
          <mxGeometry x="4400" y="473" width="70" height="70" as="geometry" />
        </mxCell>
        <mxCell id="1jEyAe4BTQBdPuvEd-_A-197" value="" style="rounded=0;whiteSpace=wrap;html=1;strokeWidth=4;" vertex="1" parent="1">
          <mxGeometry x="3970" y="630" width="400" height="80" as="geometry" />
        </mxCell>
        <mxCell id="1jEyAe4BTQBdPuvEd-_A-198" value="" style="rounded=0;whiteSpace=wrap;html=1;strokeWidth=4;" vertex="1" parent="1">
          <mxGeometry x="3980" y="2030" width="400" height="80" as="geometry" />
        </mxCell>
        <mxCell id="1jEyAe4BTQBdPuvEd-_A-199" value="" style="rounded=0;whiteSpace=wrap;html=1;strokeWidth=4;" vertex="1" parent="1">
          <mxGeometry x="3490" y="2030" width="400" height="80" as="geometry" />
        </mxCell>
        <mxCell id="1jEyAe4BTQBdPuvEd-_A-200" value="" style="html=1;shadow=0;dashed=0;align=center;verticalAlign=middle;shape=mxgraph.arrows2.twoWayArrow;dy=0.6;dx=35;fillColor=#000000;" vertex="1" parent="1">
          <mxGeometry x="4080" y="1943" width="100" height="60" as="geometry" />
        </mxCell>
        <mxCell id="1jEyAe4BTQBdPuvEd-_A-201" value="" style="html=1;shadow=0;dashed=0;align=center;verticalAlign=middle;shape=mxgraph.arrows2.twoWayArrow;dy=0.6;dx=35;fillColor=#000000;direction=south;" vertex="1" parent="1">
          <mxGeometry x="3675" y="1903.5" width="60" height="100" as="geometry" />
        </mxCell>
        <mxCell id="1jEyAe4BTQBdPuvEd-_A-202" value="" style="rounded=0;whiteSpace=wrap;html=1;strokeWidth=4;" vertex="1" parent="1">
          <mxGeometry x="3000" y="2030" width="400" height="80" as="geometry" />
        </mxCell>
        <mxCell id="1jEyAe4BTQBdPuvEd-_A-203" value="" style="html=1;shadow=0;dashed=0;align=center;verticalAlign=middle;shape=mxgraph.arrows2.bendDoubleArrow;dy=15;dx=38;arrowHead=55;rounded=1;rotation=45;fillColor=#000000;" vertex="1" parent="1">
          <mxGeometry x="3140" y="1921.5" width="100" height="100" as="geometry" />
        </mxCell>
        <mxCell id="1jEyAe4BTQBdPuvEd-_A-212" style="edgeStyle=orthogonalEdgeStyle;rounded=0;orthogonalLoop=1;jettySize=auto;html=1;exitX=0;exitY=0;exitDx=30;exitDy=21;exitPerimeter=0;entryX=0;entryY=0;entryDx=30;entryDy=49;entryPerimeter=0;" edge="1" parent="1" source="1jEyAe4BTQBdPuvEd-_A-185" target="1jEyAe4BTQBdPuvEd-_A-185">
          <mxGeometry relative="1" as="geometry" />
        </mxCell>
        <mxCell id="1jEyAe4BTQBdPuvEd-_A-274" style="edgeStyle=orthogonalEdgeStyle;rounded=1;orthogonalLoop=1;jettySize=auto;html=1;exitX=1;exitY=0.5;exitDx=0;exitDy=0;endArrow=none;startFill=0;strokeWidth=10;strokeColor=#B20000;curved=0;" edge="1" parent="1" source="1jEyAe4BTQBdPuvEd-_A-215">
          <mxGeometry relative="1" as="geometry">
            <mxPoint x="1890" y="500" as="targetPoint" />
          </mxGeometry>
        </mxCell>
        <mxCell id="1jEyAe4BTQBdPuvEd-_A-215" value="" style="rounded=0;whiteSpace=wrap;html=1;strokeWidth=4;" vertex="1" parent="1">
          <mxGeometry x="870" y="360" width="400" height="80" as="geometry" />
        </mxCell>
        <mxCell id="1jEyAe4BTQBdPuvEd-_A-277" style="edgeStyle=orthogonalEdgeStyle;rounded=1;orthogonalLoop=1;jettySize=auto;html=1;endArrow=none;startFill=0;strokeWidth=10;strokeColor=#B20000;curved=0;" edge="1" parent="1" source="1jEyAe4BTQBdPuvEd-_A-216">
          <mxGeometry relative="1" as="geometry">
            <mxPoint x="1910" y="630" as="targetPoint" />
            <Array as="points">
              <mxPoint x="1590" y="490" />
              <mxPoint x="1590" y="560" />
              <mxPoint x="1910" y="560" />
            </Array>
          </mxGeometry>
        </mxCell>
        <mxCell id="1jEyAe4BTQBdPuvEd-_A-216" value="" style="rounded=0;whiteSpace=wrap;html=1;strokeWidth=4;" vertex="1" parent="1">
          <mxGeometry x="870" y="458" width="400" height="80" as="geometry" />
        </mxCell>
        <mxCell id="1jEyAe4BTQBdPuvEd-_A-217" value="" style="rounded=0;whiteSpace=wrap;html=1;strokeWidth=4;" vertex="1" parent="1">
          <mxGeometry x="380" y="360" width="400" height="80" as="geometry" />
        </mxCell>
        <mxCell id="1jEyAe4BTQBdPuvEd-_A-218" value="" style="rounded=0;whiteSpace=wrap;html=1;strokeWidth=4;" vertex="1" parent="1">
          <mxGeometry x="380" y="440" width="400" height="80" as="geometry" />
        </mxCell>
        <mxCell id="1jEyAe4BTQBdPuvEd-_A-219" value="" style="rounded=0;whiteSpace=wrap;html=1;strokeWidth=4;" vertex="1" parent="1">
          <mxGeometry x="380" y="520" width="400" height="80" as="geometry" />
        </mxCell>
        <mxCell id="1jEyAe4BTQBdPuvEd-_A-278" style="edgeStyle=orthogonalEdgeStyle;rounded=1;orthogonalLoop=1;jettySize=auto;html=1;exitX=1;exitY=0.5;exitDx=0;exitDy=0;endArrow=none;startFill=0;strokeWidth=10;strokeColor=#B20000;curved=0;" edge="1" parent="1" source="1jEyAe4BTQBdPuvEd-_A-221">
          <mxGeometry relative="1" as="geometry">
            <mxPoint x="1640" y="639.666666666667" as="targetPoint" />
          </mxGeometry>
        </mxCell>
        <mxCell id="1jEyAe4BTQBdPuvEd-_A-221" value="" style="rounded=0;whiteSpace=wrap;html=1;strokeWidth=4;" vertex="1" parent="1">
          <mxGeometry x="380" y="600" width="400" height="80" as="geometry" />
        </mxCell>
        <mxCell id="1jEyAe4BTQBdPuvEd-_A-222" value="" style="rounded=0;whiteSpace=wrap;html=1;strokeWidth=4;" vertex="1" parent="1">
          <mxGeometry x="380" y="680" width="400" height="80" as="geometry" />
        </mxCell>
        <mxCell id="1jEyAe4BTQBdPuvEd-_A-279" style="edgeStyle=orthogonalEdgeStyle;rounded=1;orthogonalLoop=1;jettySize=auto;html=1;exitX=1;exitY=0.5;exitDx=0;exitDy=0;endArrow=none;startFill=0;strokeWidth=10;strokeColor=#B20000;curved=0;" edge="1" parent="1" source="1jEyAe4BTQBdPuvEd-_A-223">
          <mxGeometry relative="1" as="geometry">
            <mxPoint x="1750" y="710" as="targetPoint" />
          </mxGeometry>
        </mxCell>
        <mxCell id="1jEyAe4BTQBdPuvEd-_A-223" value="" style="rounded=0;whiteSpace=wrap;html=1;strokeWidth=4;" vertex="1" parent="1">
          <mxGeometry x="380" y="820" width="400" height="80" as="geometry" />
        </mxCell>
        <mxCell id="1jEyAe4BTQBdPuvEd-_A-224" value="" style="rounded=0;whiteSpace=wrap;html=1;strokeWidth=4;" vertex="1" parent="1">
          <mxGeometry x="380" y="900" width="400" height="80" as="geometry" />
        </mxCell>
        <mxCell id="1jEyAe4BTQBdPuvEd-_A-225" value="" style="rounded=0;whiteSpace=wrap;html=1;strokeWidth=4;" vertex="1" parent="1">
          <mxGeometry x="870" y="924" width="400" height="80" as="geometry" />
        </mxCell>
        <mxCell id="1jEyAe4BTQBdPuvEd-_A-281" style="edgeStyle=orthogonalEdgeStyle;rounded=1;orthogonalLoop=1;jettySize=auto;html=1;exitX=1;exitY=0.25;exitDx=0;exitDy=0;endArrow=none;startFill=0;strokeWidth=10;strokeColor=#B20000;curved=0;" edge="1" parent="1">
          <mxGeometry relative="1" as="geometry">
            <mxPoint x="1850" y="779" as="targetPoint" />
            <mxPoint x="1270" y="993" as="sourcePoint" />
          </mxGeometry>
        </mxCell>
        <mxCell id="1jEyAe4BTQBdPuvEd-_A-226" value="" style="rounded=0;whiteSpace=wrap;html=1;strokeWidth=4;" vertex="1" parent="1">
          <mxGeometry x="870" y="1004" width="400" height="80" as="geometry" />
        </mxCell>
        <mxCell id="1jEyAe4BTQBdPuvEd-_A-227" value="" style="rounded=0;whiteSpace=wrap;html=1;strokeWidth=4;" vertex="1" parent="1">
          <mxGeometry x="390" y="1414.5" width="400" height="80" as="geometry" />
        </mxCell>
        <mxCell id="1jEyAe4BTQBdPuvEd-_A-228" value="" style="rounded=0;whiteSpace=wrap;html=1;strokeWidth=4;" vertex="1" parent="1">
          <mxGeometry x="790" y="1414.5" width="400" height="80" as="geometry" />
        </mxCell>
        <mxCell id="1jEyAe4BTQBdPuvEd-_A-230" value="" style="rounded=0;whiteSpace=wrap;html=1;strokeWidth=4;" vertex="1" parent="1">
          <mxGeometry x="390" y="1494.5" width="400" height="80" as="geometry" />
        </mxCell>
        <mxCell id="1jEyAe4BTQBdPuvEd-_A-231" value="" style="rounded=0;whiteSpace=wrap;html=1;strokeWidth=4;" vertex="1" parent="1">
          <mxGeometry x="790" y="1494.5" width="400" height="80" as="geometry" />
        </mxCell>
        <mxCell id="1jEyAe4BTQBdPuvEd-_A-232" value="" style="rounded=0;whiteSpace=wrap;html=1;strokeWidth=4;" vertex="1" parent="1">
          <mxGeometry x="790" y="2003" width="400" height="80" as="geometry" />
        </mxCell>
        <mxCell id="1jEyAe4BTQBdPuvEd-_A-233" value="" style="rounded=0;whiteSpace=wrap;html=1;strokeWidth=4;" vertex="1" parent="1">
          <mxGeometry x="790" y="2080" width="400" height="80" as="geometry" />
        </mxCell>
        <mxCell id="1jEyAe4BTQBdPuvEd-_A-291" style="edgeStyle=orthogonalEdgeStyle;rounded=1;orthogonalLoop=1;jettySize=auto;html=1;exitX=1;exitY=0.5;exitDx=0;exitDy=0;endArrow=none;startFill=0;strokeWidth=10;strokeColor=#B20000;curved=0;" edge="1" parent="1" source="1jEyAe4BTQBdPuvEd-_A-234">
          <mxGeometry relative="1" as="geometry">
            <mxPoint x="1970" y="1800" as="targetPoint" />
          </mxGeometry>
        </mxCell>
        <mxCell id="1jEyAe4BTQBdPuvEd-_A-234" value="" style="rounded=0;whiteSpace=wrap;html=1;strokeWidth=4;" vertex="1" parent="1">
          <mxGeometry x="790" y="1841.5" width="400" height="80" as="geometry" />
        </mxCell>
        <mxCell id="1jEyAe4BTQBdPuvEd-_A-235" value="" style="shape=lineEllipse;perimeter=ellipsePerimeter;whiteSpace=wrap;html=1;backgroundOutline=1;fillColor=#000000;" vertex="1" parent="1">
          <mxGeometry x="290" y="360" width="70" height="70" as="geometry" />
        </mxCell>
        <mxCell id="1jEyAe4BTQBdPuvEd-_A-236" value="" style="html=1;shadow=0;dashed=0;align=center;verticalAlign=middle;shape=mxgraph.arrows2.arrow;dy=0.6;dx=40;direction=north;notch=0;fillColor=#000000;" vertex="1" parent="1">
          <mxGeometry x="290" y="680" width="70" height="70" as="geometry" />
        </mxCell>
        <mxCell id="1jEyAe4BTQBdPuvEd-_A-237" value="" style="html=1;shadow=0;dashed=0;align=center;verticalAlign=middle;shape=mxgraph.arrows2.arrow;dy=0.6;dx=40;direction=south;notch=0;fillColor=#000000;" vertex="1" parent="1">
          <mxGeometry x="290" y="520" width="70" height="70" as="geometry" />
        </mxCell>
        <mxCell id="1jEyAe4BTQBdPuvEd-_A-238" value="" style="html=1;shadow=0;dashed=0;align=center;verticalAlign=middle;shape=mxgraph.arrows2.arrow;dy=0.6;dx=40;flipH=1;notch=0;fillColor=#000000;" vertex="1" parent="1">
          <mxGeometry x="290" y="600" width="70" height="70" as="geometry" />
        </mxCell>
        <mxCell id="1jEyAe4BTQBdPuvEd-_A-239" value="" style="html=1;shadow=0;dashed=0;align=center;verticalAlign=middle;shape=mxgraph.arrows2.arrow;dy=0.6;dx=40;notch=0;fillColor=#000000;" vertex="1" parent="1">
          <mxGeometry x="290" y="440" width="70" height="70" as="geometry" />
        </mxCell>
        <mxCell id="1jEyAe4BTQBdPuvEd-_A-240" value="" style="html=1;shadow=0;dashed=0;align=center;verticalAlign=middle;shape=mxgraph.arrows2.arrow;dy=0.6;dx=40;direction=north;notch=0;fillColor=#000000;" vertex="1" parent="1">
          <mxGeometry x="290" y="820" width="70" height="70" as="geometry" />
        </mxCell>
        <mxCell id="1jEyAe4BTQBdPuvEd-_A-241" value="" style="html=1;shadow=0;dashed=0;align=center;verticalAlign=middle;shape=mxgraph.arrows2.arrow;dy=0.6;dx=40;direction=south;notch=0;fillColor=#000000;" vertex="1" parent="1">
          <mxGeometry x="290" y="900" width="70" height="70" as="geometry" />
        </mxCell>
        <mxCell id="1jEyAe4BTQBdPuvEd-_A-242" value="" style="rounded=0;whiteSpace=wrap;html=1;strokeWidth=4;" vertex="1" parent="1">
          <mxGeometry x="390" y="1254.5" width="400" height="80" as="geometry" />
        </mxCell>
        <mxCell id="1jEyAe4BTQBdPuvEd-_A-284" value="" style="endArrow=none;html=1;rounded=1;exitX=1;exitY=0.75;exitDx=0;exitDy=0;edgeStyle=orthogonalEdgeStyle;startFill=0;strokeWidth=10;strokeColor=#B20000;curved=0;" edge="1" parent="1" source="1jEyAe4BTQBdPuvEd-_A-242">
          <mxGeometry width="50" height="50" relative="1" as="geometry">
            <mxPoint x="1360" y="1260" as="sourcePoint" />
            <mxPoint x="1990" y="1030" as="targetPoint" />
            <Array as="points">
              <mxPoint x="1390" y="1315" />
              <mxPoint x="1390" y="1030" />
            </Array>
          </mxGeometry>
        </mxCell>
        <mxCell id="1jEyAe4BTQBdPuvEd-_A-285" value="" style="endArrow=none;html=1;rounded=1;exitX=1;exitY=1;exitDx=0;exitDy=0;edgeStyle=orthogonalEdgeStyle;startFill=0;strokeWidth=10;strokeColor=#B20000;curved=0;" edge="1" parent="1" source="1jEyAe4BTQBdPuvEd-_A-228">
          <mxGeometry width="50" height="50" relative="1" as="geometry">
            <mxPoint x="1360" y="1260" as="sourcePoint" />
            <mxPoint x="1780" y="1620" as="targetPoint" />
            <Array as="points">
              <mxPoint x="1520" y="1495" />
              <mxPoint x="1520" y="1620" />
            </Array>
          </mxGeometry>
        </mxCell>
        <mxCell id="1jEyAe4BTQBdPuvEd-_A-286" value="" style="endArrow=none;html=1;rounded=1;exitX=1;exitY=0;exitDx=0;exitDy=0;startFill=0;strokeWidth=10;strokeColor=#B20000;edgeStyle=orthogonalEdgeStyle;" edge="1" parent="1" source="1jEyAe4BTQBdPuvEd-_A-233">
          <mxGeometry width="50" height="50" relative="1" as="geometry">
            <mxPoint x="1190" y="2079.94" as="sourcePoint" />
            <mxPoint x="2030" y="1749.94" as="targetPoint" />
            <Array as="points">
              <mxPoint x="2031" y="2080" />
              <mxPoint x="2031" y="1750" />
            </Array>
          </mxGeometry>
        </mxCell>
        <mxCell id="dzvztrRbwdt8XZ-YbZpV-1" value="" style="rounded=0;whiteSpace=wrap;html=1;strokeWidth=4;" vertex="1" parent="1">
          <mxGeometry x="3570" y="818" width="400" height="80" as="geometry" />
        </mxCell>
        <mxCell id="dzvztrRbwdt8XZ-YbZpV-2" value="" style="rounded=0;whiteSpace=wrap;html=1;strokeWidth=4;" vertex="1" parent="1">
          <mxGeometry x="3570" y="898" width="400" height="80" as="geometry" />
        </mxCell>
      </root>
    </mxGraphModel>
  </diagram>
</mxfile>
